<svg width="24" height="24" viewBox="0 0 24 24" fill="none" xmlns="http://www.w3.org/2000/svg">
  <path d="M12 23.5C18.3513 23.5 23.5 18.3513 23.5 12C23.5 5.64873 18.3513 0.5 12 0.5C5.64873 0.5 0.5 5.64873 0.5 12C0.5 18.3513 5.64873 23.5 12 23.5Z" fill="#1877F2" />
  <path d="M16.4766 15.3241L16.9866 12.0001H13.7972V9.84307C13.7972 8.93357 14.2427 8.04706 15.6712 8.04706H17.1211V5.21707C16.2698 5.07929 15.4095 5.00409 14.5472 4.99207C11.9202 4.99207 10.2032 6.58407 10.2032 9.46657V12.0001H7.2832V15.3241H10.2032V23.3601C11.3939 23.5467 12.6064 23.5467 13.7972 23.3601V15.3241H16.4766Z" fill="white" />
</svg>
  