<svg width="24" height="24" viewBox="0 0 24 24" fill="none" xmlns="http://www.w3.org/2000/svg">
  <path d="M12.004 1.50005C7.62048 1.50005 6.33798 1.50455 6.08898 1.52505C5.37077 1.55381 4.6663 1.73104 4.01998 2.04555C3.56803 2.26523 3.15935 2.56451 2.81348 2.92905C2.14438 3.62776 1.71786 4.52322 1.59698 5.48305C1.52598 5.97455 1.50548 6.07455 1.50098 8.58305C1.50098 9.41955 1.50098 10.52 1.50098 11.996C1.50098 16.377 1.50598 17.6585 1.52698 17.907C1.55671 18.61 1.72671 19.2998 2.02698 19.936C2.30731 20.5104 2.70876 21.0172 3.20368 21.4216C3.69861 21.826 4.27526 22.1183 4.89398 22.2785C5.39388 22.3977 5.90477 22.4647 6.41848 22.4785C6.67848 22.49 9.32898 22.498 11.981 22.498C14.633 22.498 17.285 22.495 17.5385 22.482C18.071 22.4719 18.6008 22.4025 19.118 22.275C19.7379 22.1161 20.3157 21.8236 20.8109 21.4181C21.3061 21.0127 21.7068 20.504 21.985 19.9275C22.2806 19.3039 22.4489 18.6275 22.48 17.938C22.494 17.757 22.5 14.872 22.5 11.991C22.5 9.11005 22.4935 6.23005 22.4795 6.04905C22.4492 5.35189 22.2774 4.66817 21.9745 4.03955C21.7528 3.57717 21.4477 3.15968 21.0745 2.80805C20.3738 2.14089 19.4779 1.71563 18.518 1.59455C18.0275 1.52355 17.93 1.50255 15.418 1.49805L12.004 1.50005Z" fill="url(#paint0_radial)" />
  <path d="M12.004 1.50005C7.62048 1.50005 6.33798 1.50455 6.08898 1.52505C5.37077 1.55381 4.6663 1.73104 4.01998 2.04555C3.56803 2.26523 3.15935 2.56451 2.81348 2.92905C2.14438 3.62776 1.71786 4.52322 1.59698 5.48305C1.52598 5.97455 1.50548 6.07455 1.50098 8.58305C1.50098 9.41955 1.50098 10.52 1.50098 11.996C1.50098 16.377 1.50598 17.6585 1.52698 17.907C1.55671 18.61 1.72671 19.2998 2.02698 19.936C2.30731 20.5104 2.70876 21.0172 3.20368 21.4216C3.69861 21.826 4.27526 22.1183 4.89398 22.2785C5.39388 22.3977 5.90477 22.4647 6.41848 22.4785C6.67848 22.49 9.32898 22.498 11.981 22.498C14.633 22.498 17.285 22.495 17.5385 22.482C18.071 22.4719 18.6008 22.4025 19.118 22.275C19.7379 22.1161 20.3157 21.8236 20.8109 21.4181C21.3061 21.0127 21.7068 20.504 21.985 19.9275C22.2806 19.3039 22.4489 18.6275 22.48 17.938C22.494 17.757 22.5 14.872 22.5 11.991C22.5 9.11005 22.4935 6.23005 22.4795 6.04905C22.4492 5.35189 22.2774 4.66817 21.9745 4.03955C21.7528 3.57717 21.4477 3.15968 21.0745 2.80805C20.3738 2.14089 19.4779 1.71563 18.518 1.59455C18.0275 1.52355 17.93 1.50255 15.418 1.49805L12.004 1.50005Z" fill="url(#paint1_radial)" />
  <path d="M12.0001 4.24658C9.89457 4.24658 9.63057 4.25558 8.80357 4.29308C8.16053 4.30595 7.52433 4.42785 6.92207 4.65358C6.40691 4.85266 5.93905 5.15721 5.54848 5.54769C5.15792 5.93817 4.85327 6.40597 4.65407 6.92108C4.42792 7.52357 4.30601 8.16017 4.29357 8.80358C4.25657 9.63058 4.24707 9.89508 4.24707 12.0036C4.24707 14.1121 4.25657 14.3731 4.29407 15.2001C4.30701 15.8432 4.42873 16.4796 4.65407 17.0821C4.85307 17.597 5.15735 18.0646 5.54746 18.4552C5.93757 18.8457 6.40491 19.1505 6.91957 19.3501C7.52209 19.5754 8.15842 19.6971 8.80157 19.7101C9.62857 19.7476 9.89257 19.7571 11.9976 19.7571C14.1026 19.7571 14.3666 19.7476 15.1936 19.7101C15.8369 19.6971 16.4734 19.5754 17.0761 19.3501C17.5909 19.1504 18.0584 18.8455 18.4488 18.4549C18.8391 18.0643 19.1437 17.5965 19.3431 17.0816C19.5676 16.4786 19.6894 15.8423 19.7036 15.1991C19.7406 14.3721 19.7501 14.1086 19.7501 12.0026C19.7501 9.89658 19.7406 9.63208 19.7036 8.80508C19.6895 8.16201 19.5676 7.52585 19.3431 6.92308C19.144 6.40793 18.8394 5.94006 18.449 5.5495C18.0585 5.15893 17.5907 4.85428 17.0756 4.65508C16.4727 4.42952 15.8361 4.30763 15.1926 4.29458C14.3656 4.25708 14.1021 4.24808 11.9961 4.24808L12.0001 4.24658ZM11.3046 5.64658H12.0001C14.0701 5.64658 14.3156 5.65358 15.1326 5.69108C15.6242 5.69697 16.1111 5.78729 16.5721 5.95808C16.9063 6.0872 17.2099 6.28483 17.4632 6.53825C17.7165 6.79167 17.9141 7.09528 18.0431 7.42958C18.2139 7.89058 18.3042 8.3775 18.3101 8.86908C18.3471 9.68658 18.3556 9.93208 18.3556 12.0016C18.3556 14.0711 18.3471 14.3166 18.3101 15.1341C18.3042 15.6257 18.2139 16.1126 18.0431 16.5736C17.9139 16.9078 17.7164 17.2112 17.4631 17.4646C17.2097 17.7179 16.9062 17.9155 16.5721 18.0446C16.1111 18.2156 15.6242 18.306 15.1326 18.3116C14.3156 18.3486 14.0701 18.3566 12.0001 18.3566C9.93007 18.3566 9.68457 18.3486 8.86757 18.3116C8.37596 18.3055 7.88904 18.2151 7.42807 18.0441C7.09377 17.9151 6.79015 17.7176 6.53673 17.4642C6.28331 17.2109 6.08569 16.9073 5.95657 16.5731C5.78528 16.1122 5.69495 15.6252 5.68957 15.1336C5.65207 14.3161 5.64457 14.0706 5.64457 11.9996C5.64457 9.92858 5.65207 9.68458 5.68957 8.86708C5.69526 8.37548 5.78558 7.88853 5.95657 7.42758C6.08544 7.09306 6.28296 6.78925 6.5364 6.53572C6.78985 6.28219 7.09359 6.08457 7.42807 5.95558C7.88888 5.78406 8.3759 5.69355 8.86757 5.68808C9.58257 5.65558 9.86007 5.64608 11.3046 5.64458V5.64658ZM16.1381 6.93408C15.954 6.93408 15.7741 6.98867 15.6211 7.09093C15.468 7.1932 15.3488 7.33855 15.2784 7.50861C15.2079 7.67867 15.1895 7.86578 15.2255 8.0463C15.2614 8.22681 15.3501 8.39261 15.4803 8.52272C15.6105 8.65283 15.7763 8.74142 15.9568 8.77726C16.1374 8.81311 16.3245 8.79461 16.4945 8.72411C16.6645 8.6536 16.8098 8.53426 16.912 8.38118C17.0142 8.22809 17.0687 8.04814 17.0686 7.86408C17.0686 7.74191 17.0445 7.62094 16.9977 7.50807C16.951 7.39521 16.8824 7.29266 16.796 7.2063C16.7096 7.11993 16.607 7.05144 16.4941 7.00473C16.3812 6.95802 16.2602 6.93402 16.1381 6.93408ZM12.0001 8.01858C11.2124 8.01799 10.4422 8.25104 9.78692 8.68825C9.13168 9.12545 8.62083 9.74718 8.319 10.4748C8.01716 11.2024 7.93791 12.0031 8.09125 12.7758C8.2446 13.5484 8.62366 14.2582 9.18049 14.8154C9.73731 15.3726 10.4469 15.7521 11.2194 15.9059C11.992 16.0597 12.7928 15.981 13.5206 15.6796C14.2484 15.3782 14.8704 14.8678 15.308 14.2128C15.7456 13.5578 15.9792 12.7878 15.9791 12.0001C15.9789 10.9446 15.5598 9.93234 14.8137 9.18577C14.0675 8.43919 13.0556 8.01938 12.0001 8.01858ZM12.0001 9.41858C12.5115 9.41868 13.0113 9.57046 13.4364 9.85472C13.8616 10.139 14.1928 10.5429 14.3883 11.0155C14.5837 11.4881 14.6347 12.008 14.5346 12.5095C14.4345 13.011 14.1879 13.4715 13.826 13.8329C13.4641 14.1942 13.0032 14.4401 12.5015 14.5394C11.9999 14.6387 11.48 14.587 11.0078 14.3908C10.5355 14.1946 10.1321 13.8627 9.84848 13.4371C9.56489 13.0116 9.41388 12.5115 9.41457 12.0001C9.41464 11.6606 9.48157 11.3245 9.61154 11.011C9.74152 10.6974 9.93199 10.4125 10.1721 10.1725C10.4122 9.93258 10.6972 9.74227 11.0108 9.61248C11.3245 9.48269 11.6606 9.41595 12.0001 9.41608V9.41858Z" fill="white" />
  <defs>
    <radialGradient id="paint0_radial" cx="0" cy="0" r="1" gradientUnits="userSpaceOnUse" gradientTransform="translate(7.126 24.1548) rotate(-90) scale(20.8175 19.3583)">
      <stop stop-color="#FFDD55" />
      <stop offset="0.1" stop-color="#FFDD55" />
      <stop offset="0.5" stop-color="#FF543E" />
      <stop offset="1" stop-color="#C837AB" />
    </radialGradient>
    <radialGradient id="paint1_radial" cx="0" cy="0" r="1" gradientUnits="userSpaceOnUse" gradientTransform="translate(-2.05042 2.92134) rotate(78.6774) scale(9.30384 38.3498)">
      <stop stop-color="#3771C8" />
      <stop offset="0.128" stop-color="#3771C8" />
      <stop offset="1" stop-color="#6600FF" stop-opacity="0" />
    </radialGradient>
  </defs>
</svg>
  