<svg width="24" height="24" viewBox="0 0 24 24" fill="none" xmlns="http://www.w3.org/2000/svg">
  <path fill-rule="evenodd" clip-rule="evenodd" d="M15.6655 17.4649C15.5341 18.5215 14.8771 19.3676 13.8594 19.7913C13.2927 20.0274 12.5317 20.1548 11.9293 20.1148C10.9897 20.0798 10.1069 19.8571 9.29321 19.4501C9.00251 19.3046 8.56915 19.0141 8.23639 18.742C8.15211 18.6732 8.1421 18.6292 8.19787 18.5521C8.22798 18.5078 8.2835 18.428 8.40622 18.2528C8.58421 17.9987 8.60641 17.9669 8.62643 17.9371C8.68338 17.8519 8.77591 17.8445 8.86717 17.9145C8.87676 17.9217 8.87676 17.9217 8.88399 17.9272C8.89896 17.9386 8.89896 17.9386 8.93429 17.9653C8.97004 17.9924 8.99124 18.0085 8.99982 18.0147C9.87738 18.6845 10.8995 19.0707 11.9313 19.1093C13.3669 19.0903 14.3992 18.4613 14.5842 17.4955C14.7875 16.4326 13.9313 15.5145 12.256 15.0027C11.732 14.8427 10.4076 14.3262 10.1635 14.1866C9.01672 13.531 8.48058 12.6723 8.55679 11.6116C8.67354 10.1414 10.0743 9.04479 11.8442 9.03744C12.6357 9.03587 13.4256 9.19615 14.1844 9.5077C14.453 9.61804 14.9327 9.87239 15.0983 9.99289C15.1937 10.0611 15.2126 10.1407 15.1579 10.2265C15.1274 10.2763 15.0769 10.3552 14.9705 10.5197L14.9693 10.5215C14.8293 10.7381 14.8249 10.7449 14.7928 10.7956C14.7372 10.8779 14.672 10.8856 14.5719 10.8237C13.7599 10.2922 12.8598 10.0248 11.8699 10.0055C10.6374 10.0293 9.71369 10.744 9.65296 11.7176C9.63681 12.5969 10.3137 13.2389 11.7757 13.7284C14.7435 14.6577 15.8793 15.7472 15.6655 17.4649ZM12.0003 2.28457C13.9325 2.28457 15.5075 4.07124 15.5812 6.30779H8.4196C8.49328 4.07124 10.0682 2.28457 12.0003 2.28457ZM22 6.72827C22 6.49604 21.8081 6.30779 21.5714 6.30779H16.9294C16.8155 3.35472 14.6523 1 12.0003 1C9.34847 1 7.18522 3.35472 7.07133 6.30779L2.42276 6.30787C2.18968 6.312 2.00202 6.49868 2.00202 6.72827C2.00202 6.73925 2.00244 6.75014 2.00328 6.76087H2L2.66265 20.9943C2.66274 21.0339 2.66425 21.0738 2.66728 21.114C2.66795 21.1231 2.66871 21.1321 2.66947 21.1411L2.6709 21.1711L2.67249 21.1727C2.77318 22.1631 3.51086 22.9609 4.51392 22.9977L4.51619 22.9998H19.2618C19.2688 22.9999 19.2758 23 19.2828 23C19.2898 23 19.2967 22.9999 19.3037 22.9998H19.3351L19.3358 22.9993C20.3563 22.9721 21.183 22.1632 21.2703 21.1606L21.2708 21.1601L21.2715 21.1466C21.2723 21.1361 21.2731 21.1256 21.2738 21.115C21.2754 21.0898 21.2765 21.0646 21.2769 21.0396L21.9999 6.74999H21.9994C21.9999 6.7428 22 6.73554 22 6.72827Z" fill="#EE4D2D" />
</svg>
  