<svg width="24" height="24" viewBox="0 0 24 24" fill="none" xmlns="http://www.w3.org/2000/svg">
  <circle cx="12" cy="12" r="12" fill="black" />
  <path d="M10.3812 9.6V12.393C10.0394 12.29 9.67875 12.2653 9.3261 12.3209C8.97346 12.3765 8.63789 12.5109 8.34435 12.7141C8.05082 12.9173 7.80689 13.1841 7.6307 13.4946C7.45451 13.8051 7.3506 14.1513 7.3267 14.5075C7.3267 15.63 7.9437 16.978 9.6797 16.978C9.99205 16.9826 10.3021 16.924 10.5912 16.8058C10.8803 16.6875 11.1426 16.5119 11.3621 16.2897C11.5816 16.0675 11.7539 15.8031 11.8687 15.5126C11.9834 15.222 12.0382 14.9113 12.0297 14.599V3.5415H14.7937C15.2632 6.4655 16.7252 7.1445 18.6832 7.4575V10.2575C18.6832 10.2575 16.3597 10.093 14.8717 8.97V14.506C14.8717 16.8035 13.1217 19.806 9.7027 19.806C6.2837 19.806 4.5332 16.908 4.5332 14.48C4.55522 13.7606 4.72946 13.0541 5.04444 12.407C5.35942 11.7599 5.80798 11.1869 6.36055 10.7258C6.91312 10.2647 7.55716 9.92596 8.25019 9.73191C8.94323 9.53785 9.66953 9.4929 10.3812 9.6Z" fill="#6AC9D0" />
  <path d="M11.1644 10.25V13.043C10.8225 12.9399 10.4619 12.9153 10.1092 12.9709C9.75649 13.0265 9.42089 13.161 9.12735 13.3642C8.83381 13.5675 8.58989 13.8343 8.41373 14.1449C8.23757 14.4554 8.13371 14.8017 8.10988 15.158C8.10988 16.2805 8.72688 17.628 10.4629 17.628C10.7752 17.6326 11.0853 17.574 11.3744 17.4557C11.6635 17.3374 11.9257 17.1619 12.1453 16.9396C12.3648 16.7174 12.5371 16.4531 12.6518 16.1625C12.7666 15.872 12.8213 15.5612 12.8129 15.249V4.19446H15.5769C16.0469 7.11796 17.5089 7.79696 19.4669 8.10996V10.91C19.4669 10.91 17.1434 10.7455 15.6554 9.62296V15.159C15.6554 17.456 13.9054 20.459 10.4864 20.459C7.06738 20.459 5.31738 17.559 5.31738 15.133C5.339 14.4134 5.51292 13.7067 5.82765 13.0593C6.14239 12.4119 6.5908 11.8386 7.14331 11.3772C7.69581 10.9158 8.33986 10.5767 9.03298 10.3824C9.7261 10.1881 10.4525 10.143 11.1644 10.25Z" fill="#EE1D52" />
  <path d="M18.6829 7.95348C17.8959 7.79695 17.179 7.39422 16.6359 6.80348C15.8484 6.33348 15.2539 5.55348 14.9244 4.19348H12.8124V15.25C12.8209 15.5622 12.7661 15.873 12.6514 16.1635C12.5366 16.4541 12.3643 16.7184 12.1448 16.9407C11.9253 17.1629 11.663 17.3384 11.3739 17.4567C11.0848 17.575 10.7748 17.6336 10.4624 17.629C10.102 17.6495 9.74221 17.5801 9.41528 17.4271C9.08834 17.2741 8.80455 17.0423 8.58941 16.7525C8.18704 16.5369 7.85449 16.211 7.63079 15.8131C7.40708 15.4152 7.30149 14.9618 7.32641 14.506C7.3503 14.1498 7.45421 13.8036 7.6304 13.4931C7.80659 13.1826 8.05053 12.9158 8.34406 12.7126C8.63759 12.5094 8.97316 12.375 9.32581 12.3194C9.67845 12.2638 10.0391 12.2884 10.3809 12.3915V10.1915C9.06196 10.2016 7.79811 10.7218 6.85406 11.6429C5.91001 12.564 5.35899 13.8147 5.31641 15.133C5.32487 16.5672 5.88011 17.9441 6.86891 18.983C7.70898 19.5362 8.69616 19.8237 9.70191 19.808C13.1219 19.808 14.8709 16.808 14.8709 14.508V8.97148C16.3589 10.0945 18.6824 10.259 18.6824 10.259L18.6829 7.95348Z" fill="white" />
</svg>
  