<svg width="24" height="24" viewBox="0 0 24 24" fill="none" xmlns="http://www.w3.org/2000/svg">
  <path fill-rule="evenodd" clip-rule="evenodd" d="M12.078 3.75036C12.052 3.75012 12.026 3.75 12 3.75C11.974 3.75 11.9479 3.75012 11.922 3.75036C11.0933 5.15661 10.4846 6.67405 10.1108 8.25H13.8892C13.5154 6.67405 12.9066 5.15661 12.078 3.75036ZM14.1713 9.75H9.82869C9.72485 10.4928 9.67218 11.2445 9.67218 12C9.67218 12.7555 9.72485 13.5072 9.8287 14.25H14.1713C14.2751 13.5072 14.3278 12.7555 14.3278 12C14.3278 11.2445 14.2751 10.4928 14.1713 9.75ZM15.6846 14.25C15.7796 13.5063 15.8278 12.7549 15.8278 12C15.8278 11.2451 15.7796 10.4937 15.6846 9.75H19.9395C20.1417 10.4652 20.25 11.22 20.25 12C20.25 12.78 20.1417 13.5348 19.9395 14.25H15.6846ZM13.8892 15.75H10.1108C10.4846 17.326 11.0933 18.8434 11.922 20.2496C11.948 20.2499 11.974 20.25 12 20.25C12.026 20.25 12.052 20.2499 12.078 20.2496C12.9066 18.8434 13.5154 17.326 13.8892 15.75ZM13.9085 20.0281C14.5971 18.6703 15.1067 17.2322 15.4271 15.75H19.3504C18.2647 17.8739 16.2855 19.4652 13.9085 20.0281ZM12.3915 21.7423C12.4909 21.7568 12.5917 21.7509 12.6876 21.7261C17.7515 21.3733 21.75 17.1536 21.75 12C21.75 6.84647 17.7517 2.62681 12.6878 2.27389C12.5918 2.24904 12.4909 2.24318 12.3913 2.25771C12.2615 2.25259 12.131 2.25 12 2.25C11.8689 2.25 11.7385 2.25259 11.6087 2.25771C11.5091 2.24317 11.4082 2.24904 11.3121 2.27389C6.24831 2.62685 2.25 6.84649 2.25 12C2.25 17.1536 6.24842 21.3733 11.3123 21.7261C11.4083 21.7509 11.509 21.7568 11.6085 21.7423C11.7383 21.7474 11.8689 21.75 12 21.75C12.1311 21.75 12.2616 21.7474 12.3915 21.7423ZM13.9085 3.97186C16.2855 4.53482 18.2647 6.1261 19.3504 8.25H15.4271C15.1068 6.76778 14.5971 5.32966 13.9085 3.97186ZM10.0915 20.0281C9.40288 18.6703 8.89322 17.2322 8.57283 15.75H4.64956C5.73529 17.8739 7.71449 19.4652 10.0915 20.0281ZM8.17218 12C8.17218 11.2451 8.22032 10.4937 8.31535 9.75H4.06055C3.85825 10.4652 3.75 11.22 3.75 12C3.75 12.78 3.85825 13.5348 4.06055 14.25H8.31536C8.22032 13.5063 8.17218 12.7549 8.17218 12ZM8.57282 8.25C8.8932 6.76778 9.40286 5.32967 10.0914 3.97188C7.71448 4.53484 5.73528 6.12611 4.64956 8.25H8.57282Z" fill="#0D1B1E" />
</svg>