<svg width="24" height="24" viewBox="0 0 24 24" fill="none" xmlns="http://www.w3.org/2000/svg">
  <path d="M6.93074 0.0034652C12.5756 0.0034652 18.2169 0.0034652 23.8617 0C23.9726 0 24.0003 0.0242564 24.0003 0.138608C23.9969 6.03292 23.9969 11.9238 23.9969 17.8181C23.9102 17.7904 23.8929 17.8735 23.8583 17.9116C23.2969 18.5146 22.6524 19.0205 21.9455 19.4398C20.3792 20.3685 18.6674 20.8675 16.8724 21.11C15.2992 21.3249 13.7225 21.3145 12.1528 21.0823C10.3197 20.812 8.58365 20.2714 7.00698 19.2769C6.95153 19.2423 6.90302 19.2353 6.84065 19.2596C5.88079 19.6616 4.88974 19.866 3.84325 19.7621C3.71503 19.6685 3.80166 19.5923 3.8675 19.5195C4.32144 19.0101 4.61599 18.428 4.69569 17.7453C4.73727 17.3988 4.68529 17.0835 4.47738 16.7785C3.90562 15.9399 3.49673 15.0182 3.19525 14.0514C2.63043 12.2391 2.42944 10.3818 2.57498 8.48628C2.69626 6.87496 3.04625 5.31909 3.7185 3.84291C4.30065 2.56772 5.09072 1.44499 6.18919 0.557898C6.43175 0.367312 6.68471 0.187121 6.93074 0.0034652ZM8.85393 8.94369C8.81928 8.9922 8.79156 9.02686 8.76384 9.06151C7.77625 10.2917 6.78867 11.5253 5.79762 12.752C5.60357 12.991 5.51348 13.2475 5.52041 13.5524C5.52387 13.6876 5.55506 13.7291 5.69367 13.7291C7.05896 13.7222 8.42078 13.7257 9.78607 13.7257C9.82765 13.7257 9.86577 13.7257 9.90735 13.7222C10.1534 13.698 10.2989 13.5524 10.3093 13.3029C10.3128 13.1886 10.3024 13.0708 10.3128 12.9599C10.3266 12.8178 10.2747 12.7866 10.1395 12.7866C9.13461 12.7935 8.1297 12.7901 7.12826 12.7901C7.07628 12.7901 7.02084 12.8074 6.95847 12.7658C6.99312 12.7208 7.02084 12.6792 7.05549 12.6376C7.33617 12.2841 7.61339 11.9342 7.89407 11.5807C8.59751 10.6936 9.29748 9.7996 10.0113 8.91943C10.2262 8.65608 10.3128 8.365 10.3162 8.03581C10.3162 7.94918 10.2885 7.92492 10.2054 7.92492C8.73265 7.92839 7.25647 7.92839 5.78376 7.92492C5.6902 7.92492 5.66594 7.95611 5.66594 8.0462C5.66941 8.2853 5.67634 8.52787 5.66594 8.76697C5.65901 8.90211 5.70406 8.9333 5.83574 8.9333C6.76441 8.92636 7.69309 8.92983 8.62523 8.92983C8.6876 8.91944 8.76384 8.90904 8.85393 8.94369ZM14.1384 13.3237C14.2285 13.639 14.3394 13.7222 14.6651 13.7257C14.7586 13.7257 14.8557 13.7187 14.9492 13.7257C15.0532 13.7326 15.0844 13.6945 15.0844 13.5905C15.0774 13.1851 15.0809 12.7797 15.0809 12.3777C15.0809 11.4144 15.0809 10.4476 15.0844 9.48426C15.0844 9.37338 15.0636 9.3214 14.9388 9.33179C14.769 9.34219 14.5992 9.33526 14.4294 9.33526C14.1661 9.33526 14.1661 9.33526 14.1522 9.59515C14.1522 9.60208 14.1418 9.60901 14.128 9.62287C13.6428 9.29368 13.1092 9.1516 12.5236 9.23477C11.9345 9.31793 11.4459 9.59169 11.0751 10.056C10.4133 10.8842 10.4029 12.045 11.0439 12.8594C11.3835 13.2925 11.8201 13.5732 12.3573 13.691C13.0018 13.8296 13.5909 13.6806 14.1384 13.3237ZM19.8144 9.17586C18.56 9.17586 17.5273 10.212 17.5273 11.4698C17.5273 12.7208 18.56 13.7638 19.8005 13.7638C21.0688 13.7638 22.1014 12.7346 22.1014 11.4664C22.0979 10.2085 21.0688 9.17586 19.8144 9.17586ZM16.8689 10.7976C16.8689 9.86197 16.8689 8.92983 16.8689 7.99423C16.8689 7.93185 16.9001 7.84869 16.7789 7.85215C16.5086 7.85908 16.2383 7.85562 15.968 7.85215C15.8952 7.85215 15.871 7.87987 15.8744 7.94918C15.8779 8.09818 15.8744 8.24719 15.8744 8.39965C15.8744 10.0318 15.8744 11.6673 15.8744 13.2995C15.8744 13.5975 15.9957 13.7187 16.2903 13.7222C16.4289 13.7222 16.5709 13.7153 16.7095 13.7257C16.8308 13.7326 16.8724 13.7014 16.8689 13.5697C16.8689 12.648 16.8689 11.7228 16.8689 10.7976Z" fill="#FDFEFE" />
  <path d="M6.93042 0.0034652C6.68439 0.187121 6.43143 0.367312 6.19233 0.561363C5.09039 1.44846 4.30379 2.57118 3.72164 3.84638C3.04939 5.32255 2.6994 6.87496 2.57812 8.48975C2.43604 10.3852 2.63356 12.2391 3.19839 14.0549C3.49986 15.0217 3.90876 15.9434 4.48052 16.782C4.68843 17.0869 4.73694 17.4023 4.69883 17.7488C4.61913 18.4314 4.32458 19.0136 3.87064 19.523C3.8048 19.5957 3.71471 19.672 3.84638 19.7655C3.91569 19.8314 3.98499 19.8903 4.05083 19.9596C4.31765 20.2333 4.58447 20.514 4.85129 20.7878C5.19782 21.1447 5.54434 21.4981 5.88739 21.855C6.33094 22.3159 6.77102 22.7768 7.2111 23.2377C7.42248 23.456 7.63039 23.6777 7.84177 23.896C7.86949 23.9238 7.89721 23.9515 7.89721 23.9965C5.3087 23.9965 2.72019 23.9965 0.128213 24C0.0242565 24 0.00693042 23.9792 0.00693042 23.8787C0.00346521 15.9573 0.00346521 8.03927 0 0.121282C0 0.0207912 0.0207913 0 0.121282 0C2.391 0.0034652 4.66071 0.0034652 6.93042 0.0034652Z" fill="#0068FE" />
  <path d="M7.89067 23.9966C7.89067 23.9516 7.86295 23.9238 7.83522 23.8961C7.62385 23.6778 7.41593 23.456 7.20456 23.2377C6.76448 22.7769 6.32439 22.316 5.88085 21.8551C5.53779 21.4982 5.19127 21.1413 4.84475 20.7878C4.57793 20.5106 4.31111 20.2334 4.04429 19.9596C3.97845 19.8938 3.90915 19.8314 3.83984 19.7656C4.88287 19.873 5.87738 19.6651 6.83725 19.2631C6.89962 19.2354 6.94467 19.2423 7.00358 19.2804C8.58024 20.2784 10.3198 20.8155 12.1494 21.0858C13.7226 21.318 15.2958 21.3284 16.869 21.1135C18.6605 20.871 20.3723 20.372 21.9421 19.4433C22.6524 19.024 23.2935 18.5181 23.8549 17.9151C23.8895 17.877 23.9068 17.7904 23.9935 17.8216C23.9935 19.8349 23.9935 21.8482 23.9969 23.8615C23.9969 23.9897 23.9623 24.0035 23.8479 24.0035C18.5288 23.9966 13.2098 23.9966 7.89067 23.9966Z" fill="#015BDF" />
  <path d="M8.85405 8.94372C8.76395 8.9056 8.68772 8.91946 8.61495 8.91946C7.68627 8.91946 6.7576 8.916 5.82546 8.92293C5.69725 8.92293 5.6522 8.89521 5.65566 8.7566C5.66606 8.5175 5.66259 8.2784 5.65566 8.03583C5.6522 7.94574 5.67992 7.91455 5.77348 7.91455C7.24619 7.91802 8.72237 7.91802 10.1951 7.91455C10.2817 7.91455 10.306 7.94227 10.306 8.02544C10.3025 8.35463 10.2159 8.64571 10.001 8.90907C9.2872 9.78923 8.58723 10.6833 7.88379 11.5704C7.60311 11.9238 7.32589 12.2738 7.04521 12.6272C7.01402 12.6688 6.98284 12.7104 6.94818 12.7555C7.01056 12.797 7.066 12.7797 7.11798 12.7797C8.12289 12.7797 9.1278 12.7832 10.1292 12.7762C10.2644 12.7762 10.3198 12.8074 10.3025 12.9495C10.2886 13.0639 10.3025 13.1782 10.299 13.2926C10.2886 13.5421 10.1431 13.6876 9.89707 13.7119C9.85896 13.7153 9.81737 13.7153 9.77579 13.7153C8.4105 13.7153 7.04867 13.7119 5.68338 13.7188C5.54478 13.7188 5.51359 13.6772 5.51012 13.5421C5.50319 13.2371 5.59675 12.9807 5.78734 12.7416C6.78185 11.5149 7.76597 10.2813 8.75356 9.05114C8.79514 9.03035 8.81939 8.99223 8.85405 8.94372Z" fill="#0468FB" />
  <path d="M14.1384 13.3237C13.5909 13.6841 13.0018 13.8297 12.3538 13.6876C11.8167 13.5698 11.3801 13.2891 11.0405 12.8559C10.3994 12.0382 10.4098 10.8808 11.0717 10.0526C11.4425 9.58827 11.9311 9.31106 12.5202 9.23136C13.1058 9.14819 13.6394 9.29373 14.1246 9.61946C14.1384 9.6056 14.1488 9.59867 14.1488 9.59174C14.1661 9.33185 14.1661 9.33185 14.426 9.33185C14.5958 9.33185 14.7656 9.34224 14.9354 9.32838C15.0602 9.32145 15.081 9.36996 15.081 9.48085C15.0775 10.4442 15.0775 11.411 15.0775 12.3743C15.0775 12.7797 15.074 13.1851 15.081 13.5871C15.081 13.6911 15.0498 13.7326 14.9458 13.7222C14.8523 13.7153 14.7552 13.7222 14.6617 13.7222C14.3394 13.7222 14.2251 13.6391 14.1384 13.3237ZM11.5014 11.4699C11.5014 12.2114 12.0974 12.8074 12.832 12.804C13.5563 12.8005 14.1523 12.201 14.1523 11.4733C14.1523 10.7352 13.5563 10.1392 12.8182 10.1392C12.0939 10.1392 11.5014 10.7387 11.5014 11.4699Z" fill="#0569FB" />
  <path d="M19.8144 9.1759C21.0688 9.1759 22.0979 10.2051 22.1014 11.4699C22.1048 12.7347 21.0722 13.7673 19.8005 13.7673C18.56 13.7673 17.5273 12.7278 17.5273 11.4733C17.5273 10.2155 18.56 9.17937 19.8144 9.1759ZM21.1519 11.4733C21.1519 10.7214 20.5628 10.1288 19.8144 10.1288C19.0659 10.1288 18.4699 10.7214 18.4733 11.4699C18.4733 12.2184 19.0694 12.8179 19.8109 12.8144C20.5628 12.8179 21.1519 12.2253 21.1519 11.4733Z" fill="#0568FB" />
  <path d="M16.8683 10.7976C16.8683 11.7228 16.8649 12.6445 16.8718 13.5697C16.8718 13.6979 16.8337 13.7326 16.7124 13.7257C16.5738 13.7153 16.4317 13.7257 16.2931 13.7222C15.9986 13.7187 15.8773 13.6009 15.8773 13.2994C15.8773 11.6673 15.8773 10.0318 15.8773 8.39966C15.8773 8.25065 15.8807 8.09818 15.8773 7.94918C15.8738 7.87988 15.8981 7.85216 15.9708 7.85216C16.2411 7.85562 16.5114 7.85562 16.7817 7.85216C16.903 7.84869 16.8718 7.93185 16.8718 7.99423C16.8718 8.92983 16.8683 9.86543 16.8683 10.7976Z" fill="#0569FB" />
  <path d="M11.501 11.4698C11.501 10.7386 12.0935 10.1392 12.8178 10.1392C13.5558 10.1392 14.1519 10.7352 14.1519 11.4733C14.1519 12.201 13.5558 12.8039 12.8316 12.8039C12.097 12.8074 11.501 12.2114 11.501 11.4698Z" fill="#FBFDFE" />
  <path d="M21.1513 11.4733C21.1513 12.2252 20.5587 12.8178 19.8102 12.8178C19.0652 12.8178 18.4727 12.2217 18.4727 11.4733C18.4727 10.7248 19.0652 10.1322 19.8137 10.1322C20.5622 10.1288 21.1547 10.7213 21.1513 11.4733Z" fill="#FBFDFE" />
</svg>
  