<svg width="24" height="24" viewBox="0 0 24 24" fill="current" xmlns="http://www.w3.org/2000/svg">
  <path fill-rule="evenodd" clip-rule="evenodd" d="M9 3C9 2.45228 9.45228 2 10 2H14C14.5477 2 15 2.45228 15 3V7H9V3ZM7 7V3C7 1.34772 8.34772 0 10 0H14C15.6523 0 17 1.34772 17 3V7H21C22.6523 7 24 8.34772 24 10V14C24 15.6523 22.6523 17 21 17H17V21C17 22.6523 15.6523 24 14 24H10C8.34772 24 7 22.6523 7 21V17H3C1.34772 17 0 15.6523 0 14V10C0 8.34772 1.34772 7 3 7H7ZM7 15H3C2.45228 15 2 14.5477 2 14V10C2 9.45228 2.45228 9 3 9H7V15ZM9 15V9H15V15H9ZM9 17V21C9 21.5477 9.45228 22 10 22H14C14.5477 22 15 21.5477 15 21V17H9ZM17 15H21C21.5477 15 22 14.5477 22 14V10C22 9.45228 21.5477 9 21 9H17V15Z" fill="current" />
</svg>
  