<svg width="24" height="24" viewBox="0 0 24 24" fill="current" xmlns="http://www.w3.org/2000/svg">
  <path fill-rule="evenodd" clip-rule="evenodd" d="M3 2C2.73478 2 2.48043 2.10536 2.29289 2.29289C2.10536 2.48043 2 2.73478 2 3V7C2 7.26522 2.10536 7.51957 2.29289 7.70711C2.48043 7.89464 2.73478 8 3 8H5H11H15V2H3ZM16.2643 9.9647C16.1801 9.98771 16.0915 10 16 10H11.8022L10.4453 16.1086C10.4308 16.1737 10.423 16.2399 10.4217 16.3063C10.4204 16.3769 10.4265 16.4477 10.4402 16.5174C10.4666 16.6525 10.5207 16.7808 10.5991 16.8941C10.6774 17.0073 10.7783 17.1032 10.8955 17.1756C11.0126 17.2481 11.1433 17.2955 11.2796 17.3151L14.4245 17.7651C15.1393 17.8673 15.7934 18.2239 16.2665 18.7694C16.7396 19.315 17 20.0129 17 20.735V23C17 23.5523 16.5523 24 16 24H1C0.447715 24 0 23.5523 0 23V20.236C1.88947e-05 19.6788 0.15524 19.1325 0.448263 18.6585C0.741286 18.1845 1.16053 17.8016 1.659 17.5525L1.66715 17.5484L1.70527 17.5298C1.83683 17.4634 1.9521 17.3687 2.04282 17.2525C2.13432 17.1354 2.19853 16.9993 2.2308 16.8541L3.75347 10H3C2.20435 10 1.44129 9.68393 0.87868 9.12132C0.316071 8.55871 0 7.79565 0 7V3C0 2.20435 0.316071 1.44129 0.87868 0.87868C1.44129 0.316071 2.20435 0 3 0H16C16.0915 0 16.1801 0.0122863 16.2643 0.035299L20.2425 1.02986C20.6877 1.14115 21 1.54113 21 2V4H23C23.5523 4 24 4.44772 24 5C24 5.55228 23.5523 6 23 6H21V8C21 8.45887 20.6877 8.85885 20.2425 8.97014L16.2643 9.9647ZM19 2.78078L17 2.28078V7.71922L19 7.21922V5V2.78078ZM9.75348 10H5.80223L5.64822 10.6932L4.1832 17.2879C4.08643 17.7233 3.89374 18.1318 3.61921 18.4834C3.34467 18.835 2.99518 19.121 2.59618 19.3204L2.58785 19.3246L2.54964 19.3432C2.38496 19.4263 2.24644 19.5533 2.14942 19.7102C2.05175 19.8682 2.00001 20.0503 2 20.236V22H15V20.735C15 20.4943 14.9132 20.2616 14.7555 20.0797C14.5978 19.8979 14.3796 19.779 14.1414 19.7449L10.9964 19.2949C10.5873 19.2363 10.1947 19.0939 9.84334 18.8765C9.49195 18.6592 9.18925 18.3716 8.95421 18.0318C8.71917 17.6919 8.55686 17.3072 8.47745 16.9018C8.39804 16.4963 8.40324 16.0788 8.49274 15.6754L8.78113 14.3772L9.75348 10ZM5 4C4.44772 4 4 4.44772 4 5C4 5.55228 4.44772 6 5 6H7C7.55228 6 8 5.55228 8 5C8 4.44772 7.55228 4 7 4H5Z" fill="current" />
</svg>
  