<svg width="24" height="24" viewBox="0 0 24 24" fill="none" xmlns="http://www.w3.org/2000/svg">
  <path d="M7.516 13.656L4.879 16.293C3.908 15.65 2.588 15.756 1.733 16.611C0.756999 17.587 0.756999 19.17 1.733 20.147C2.133 20.547 2.635 20.774 3.155 20.846C3.227 21.366 3.454 21.868 3.854 22.268C4.83 23.244 6.413 23.244 7.39 22.268C8.245 21.413 8.351 20.092 7.708 19.122L10.345 16.485" stroke="current" stroke-width="2" stroke-linecap="round" stroke-linejoin="round" />
  <path d="M22.668 9.00901L18.425 13.252C16.304 15.373 12.739 14.695 10.647 16.787C9.94 16.08 7.111 13.251 7.111 13.251C7.111 13.251 7.995 14.135 7.111 13.251C9.203 11.159 8.525 7.59401 10.646 5.47301L14.889 1.23001" stroke="current" stroke-width="2" stroke-linecap="round" stroke-linejoin="round" />
  <path d="M17.722 6.891C20.067 9.236 21.887 9.789 22.668 9.008C23.449 8.227 22.896 6.408 20.551 4.062C18.206 1.716 15.671 0.448 14.89 1.23C14.109 2.012 15.377 4.546 17.722 6.891Z" stroke="current" stroke-width="2" stroke-linecap="round" stroke-linejoin="round" />
</svg>
  