<svg width="24" height="24" viewBox="0 0 24 24" fill="current" xmlns="http://www.w3.org/2000/svg">
  <path fill-rule="evenodd" clip-rule="evenodd" d="M3 0C2.62123 0 2.27496 0.214002 2.10557 0.552786L0.105573 4.55279C0.0361451 4.69164 0 4.84476 0 5V7C0 7.55228 0.447715 8 1 8H4L4 23C4 23.5523 4.44772 24 5 24C5.55229 24 6 23.5523 6 23L6 8H9C9.55229 8 10 7.55228 10 7V5C10 4.84476 9.96385 4.69164 9.89443 4.55279L7.89443 0.552786C7.72504 0.214002 7.37877 0 7 0H3ZM5 6H8V5.23607L6.38197 2H3.61803L2 5.23607V6H5ZM11 9C10.4477 9 10 9.44771 10 10V13H9C8.44771 13 8 13.4477 8 14V21C8 21.5523 8.44771 22 9 22H10V23C10 23.5523 10.4477 24 11 24C11.5523 24 12 23.5523 12 23V22H20V23C20 23.5523 20.4477 24 21 24C21.5523 24 22 23.5523 22 23V22H23C23.5523 22 24 21.5523 24 21V14C24 13.4477 23.5523 13 23 13H22V10C22 9.44771 21.5523 9 21 9H11ZM21 20H22V15H21H20V17C20 17.5523 19.5523 18 19 18H13C12.4477 18 12 17.5523 12 17V15H11H10V20H11H21ZM20 13V11H12V13H13C13.5523 13 14 13.4477 14 14V16H18V14C18 13.4477 18.4477 13 19 13H20Z" fill="current" />
</svg>
  