<svg width="24" height="24" viewBox="0 0 24 24" fill="current" xmlns="http://www.w3.org/2000/svg">
  <path fill-rule="evenodd" clip-rule="evenodd" d="M2 1C1.44772 1 1 1.44772 1 2V6V18V22C1 22.5523 1.44772 23 2 23H7H12H17H22C22.5523 23 23 22.5523 23 22V18V6V2C23 1.44772 22.5523 1 22 1H17H12H7H2ZM18 21H21V19H18V21ZM16 19V21H13V19H16ZM17 17H21V7H17H12H7H3V17H7H12H17ZM11 21H8V19H11V21ZM6 21V19H3V21H6ZM16 3H13V5H16V3ZM18 5V3H21V5H18ZM3 3H6V5H3V3ZM8 3V5H11V3H8ZM15 12L10 9V15L15 12Z" fill="current" />
</svg>
  