<svg width="24" height="24" viewBox="0 0 24 24" fill="none" xmlns="http://www.w3.org/2000/svg">
  <path fill-rule="evenodd" clip-rule="evenodd" d="M13 2.99964C13.1236 3.09244 13.2427 3.19083 13.357 3.29444C13.4617 3.38935 13.5623 3.48864 13.6587 3.59203C13.7796 3.72177 13.8937 3.85795 14.0004 4C14.5525 3.9998 15 3.55216 15 3C15 2.44772 14.5523 2 14 2C13.4478 2 13.0002 2.44752 13 2.99964ZM11.1287 2.12793C11.5023 0.896397 12.6465 0 14 0C15.6569 0 17 1.34315 17 3C17 4.35355 16.1036 5.49773 14.8721 5.87128C14.9558 6.23401 15 6.61184 15 7C15 8.15457 14.6087 9.21775 13.9514 10.0641C17.3674 10.5283 20 13.4567 20 17C20 20.866 16.866 24 13 24H7C3.13401 24 0 20.866 0 17C0 13.4567 2.63265 10.5283 6.0486 10.0641C5.39134 9.21775 5 8.15457 5 7C5 4.23858 7.23858 2 10 2C10.3882 2 10.766 2.04423 11.1287 2.12793ZM12.0253 4.78676C11.4916 4.29814 10.7806 4 10 4C8.34315 4 7 5.34315 7 7C7 8.65685 8.34315 10 10 10C11.6569 10 13 8.65685 13 7C13 6.22399 12.7054 5.5168 12.2219 4.98419C12.1594 4.91539 12.0938 4.84951 12.0253 4.78676ZM7 12H10C7.79086 12 6 13.7909 6 16C6 17.1947 6.52375 18.2671 7.35418 19H6.99999C6.12591 19 5.67613 18.6582 5.41153 18.2907C5.11021 17.8722 4.99999 17.34 4.99999 17C4.99999 16.4477 4.55228 16 3.99999 16C3.44771 16 2.99999 16.4477 2.99999 17C2.99999 17.66 3.18977 18.6278 3.78846 19.4593C4.42386 20.3418 5.47407 21 6.99999 21H7.58076C8.07973 21 8.5 21.3929 8.5 22L7 22C4.23858 22 2 19.7614 2 17C2 14.2386 4.23858 12 7 12ZM10 12C12.2091 12 14 13.7909 14 16C14 17.1928 13.4779 18.2637 12.6498 18.9965C13.4263 18.9597 13.8394 18.6366 14.0885 18.2907C14.3898 17.8722 14.5 17.34 14.5 17C14.5 16.4477 14.9477 16 15.5 16C16.0523 16 16.5 16.4477 16.5 17C16.5 17.66 16.3102 18.6278 15.7115 19.4593C15.0761 20.3418 14.0259 21 12.5 21H11.9192C11.4203 21 11 21.3929 11 22L13 22C15.7614 22 18 19.7614 18 17C18 14.2386 15.7614 12 13 12H10ZM10 14C8.89543 14 8 14.8954 8 16C8 17.1046 8.89543 18 10 18C11.1046 18 12 17.1046 12 16C12 14.8954 11.1046 14 10 14ZM19 5.5C19 5.22386 19.2239 5 19.5 5C19.7761 5 20 5.22386 20 5.5V7H21.5C21.7761 7 22 7.22386 22 7.5C22 7.77614 21.7761 8 21.5 8H19V5.5ZM19.5 3C18.1193 3 17 4.11929 17 5.5V9C17 9.55229 17.4477 10 18 10H21.5C22.8807 10 24 8.88071 24 7.5C24 6.27577 23.12 5.25706 21.9581 5.04188C21.7429 3.87996 20.7242 3 19.5 3Z" fill="#0D1B1E" />
</svg>
  