<svg width="24" height="24" viewBox="0 0 24 24" fill="none" xmlns="http://www.w3.org/2000/svg">
  <path fill-rule="evenodd" clip-rule="evenodd" d="M2 3C2 2.44728 2.44728 2 3 2H21C21.5527 2 22 2.44728 22 3V14H2V3ZM2 17V16H22V17C22 17.5527 21.5527 18 21 18H12H3C2.44728 18 2 17.5527 2 17ZM0 17V15V3C0 1.34272 1.34272 0 3 0H21C22.6573 0 24 1.34272 24 3V15V17C24 18.6573 22.6573 20 21 20H13V22H18C18.5523 22 19 22.4477 19 23C19 23.5523 18.5523 24 18 24H12H6C5.44772 24 5 23.5523 5 23C5 22.4477 5.44772 22 6 22H11V20H3C1.34272 20 0 18.6573 0 17ZM13 5C13 5.55228 12.5523 6 12 6C11.4477 6 11 5.55228 11 5C11 4.44772 11.4477 4 12 4C12.5523 4 13 4.44772 13 5Z" fill="#0D1B1E" />
</svg>
  