<svg width="24" height="24" viewBox="0 0 24 24" fill="#0D1B1E" xmlns="http://www.w3.org/2000/svg">
  <g clip-path="url(#clip0)">
    <path fill-rule="evenodd" clip-rule="evenodd" d="M6.58348 1.99581C7.39971 1.92079 8.22012 2.05844 8.96535 2.39357C8.98567 2.49745 8.98979 2.65535 8.96525 2.85238C8.94128 3.04473 8.89536 3.23165 8.84787 3.37339C8.82821 3.43206 8.8111 3.47455 8.79935 3.5008C8.65694 3.69106 8.58612 3.92714 8.60219 4.16689C8.62097 4.44711 8.75673 4.70652 8.97626 4.88168C9.01577 4.91321 9.04188 4.95853 9.04933 5.00853C9.05489 5.04578 9.04978 5.08356 9.03498 5.11764C8.61372 5.57411 8.08116 5.91351 7.48942 6.10257C7.25047 6.1275 7.00873 6.1061 6.7775 6.0393L6.49995 7.00001L5.50017 6.97917C5.47293 8.28587 5.56307 9.59237 5.7695 10.883C5.77285 10.9039 5.77686 10.9247 5.78154 10.9454C6.01124 11.962 6.6036 12.9338 7.09575 13.6689C7.23581 13.878 7.39659 14.1091 7.53843 14.313L7.53852 14.3132C7.63202 14.4476 7.71729 14.5701 7.78297 14.6668C7.99023 14.9718 8.08009 15.1299 8.10585 15.1962C8.23367 15.5251 8.52539 15.7623 8.87347 15.8204C9.22156 15.8784 9.57446 15.7487 9.80209 15.4791C10.4112 14.7575 11.9711 13.8329 13.8806 13.317C15.7614 12.8089 17.6827 12.7792 19.0598 13.4806C20.7428 14.5814 21.427 15.9796 21.4944 17.2186C21.5627 18.4732 21.009 19.6499 20.0406 20.3708C18.2159 21.4304 16.1433 21.9892 14.0326 21.99C14.004 21.99 13.9755 21.9913 13.947 21.9937C12.2757 22.1379 10.5924 21.943 8.99828 21.4207C8.85716 21.3745 8.70752 21.3603 8.56023 21.3791C7.95205 21.4568 6.97808 21.4924 6.03646 21.3717C5.04569 21.2447 4.32501 20.9733 3.98558 20.6275L3.98554 20.6274L3.98551 20.6274C3.98458 20.6264 3.96647 20.607 3.93317 20.559C3.90005 20.5113 3.85908 20.4458 3.81169 20.3603C3.71655 20.1886 3.60748 19.9578 3.49312 19.6701C3.26462 19.0951 3.02988 18.3299 2.8459 17.4279C2.47732 15.6209 2.32433 13.3239 2.78907 10.9664L2.78907 10.9664C3.3045 8.35132 3.98423 5.9906 4.74408 4.30794C5.12594 3.46233 5.50502 2.8402 5.85623 2.44529C6.21919 2.03716 6.43305 2.00001 6.49195 2.00001C6.52251 2.00001 6.55305 1.99861 6.58348 1.99581ZM8.94593 2.32448C8.94565 2.32392 8.94549 2.32366 8.94548 2.32368L8.94673 2.32618C8.9464 2.32545 8.94613 2.32489 8.94593 2.32448ZM8.78451 3.53078C8.78447 3.53057 8.78629 3.52693 8.79008 3.5205C8.78645 3.52778 8.78455 3.53099 8.78451 3.53078ZM7.73906 10.5335C7.61192 9.72983 7.5344 8.91942 7.50683 8.10688C7.61843 8.10078 7.7299 8.08983 7.84095 8.07402C7.88928 8.06713 7.93705 8.05672 7.98386 8.04286C8.99232 7.74426 9.89608 7.16722 10.5913 6.37804C10.6179 6.34782 10.6427 6.31603 10.6655 6.28284C10.9801 5.82434 11.1095 5.2637 11.0275 4.7137C10.9871 4.44256 10.8968 4.18392 10.7635 3.9498C10.8426 3.70158 10.9116 3.40728 10.9499 3.09963C10.9906 2.77283 11.0026 2.38554 10.927 2.0037C10.8518 1.62377 10.671 1.16323 10.2537 0.824029C10.1988 0.779371 10.1392 0.740674 10.0761 0.708589C8.954 0.138119 7.69493 -0.106979 6.44127 0.000575477C5.57762 0.0199559 4.88084 0.532483 4.36173 1.1162C3.82075 1.7245 3.34321 2.55056 2.92132 3.48482C2.07366 5.36192 1.3574 7.8877 0.826824 10.5796C0.300568 13.2491 0.476575 15.8191 0.886248 17.8276C1.09139 18.8334 1.35809 19.7131 1.6345 20.4086C1.89402 21.0617 2.20778 21.6715 2.55835 22.0286C3.39393 22.8798 4.69973 23.2168 5.78218 23.3555C6.8058 23.4867 7.8412 23.4654 8.58744 23.3889C10.3609 23.9399 12.2244 24.1441 14.0762 23.9899C16.5442 23.9814 18.9663 23.3193 21.0958 22.0706C21.1236 22.0544 21.1505 22.0367 21.1766 22.0178C22.7292 20.8931 23.5968 19.0458 23.4915 17.1099C23.3849 15.1519 22.2937 13.1872 20.1052 11.7748C20.0798 11.7584 20.0536 11.7431 20.0268 11.7291C18.0045 10.6704 15.4755 10.8145 13.359 11.3862C11.8163 11.803 10.3296 12.4916 9.2603 13.2855L9.15013 13.1274C9.02696 12.9509 8.90228 12.7722 8.75765 12.5562C8.28271 11.8468 7.88602 11.1517 7.73906 10.5335ZM19.0087 17.8609C19.4841 17.58 19.6418 16.9668 19.3609 16.4913C19.0799 16.0158 18.4667 15.8581 17.9912 16.1391C16.1099 17.2507 13.8646 17.5715 11.7472 17.0311C11.2121 16.8945 10.6676 17.2176 10.531 17.7527C10.3944 18.2878 10.7175 18.8324 11.2526 18.9689C13.8828 19.6402 16.6717 19.2418 19.0087 17.8609Z" fill="" />
  </g>
  <defs>
    <clipPath id="clip0">
      <rect width="24" height="24" fill="white" />
    </clipPath>
  </defs>
</svg>
  