<svg width="24" height="24" viewBox="0 0 24 24" fill="none" xmlns="http://www.w3.org/2000/svg">
  <g clip-path="url(#clip0)">
    <path d="M8.45601 2.03697C8.22172 1.99395 7.98089 2.00226 7.75013 2.06133C7.51937 2.1204 7.30417 2.22882 7.11937 2.37911C6.93456 2.5294 6.78456 2.718 6.67971 2.93188C6.57485 3.14576 6.51763 3.37984 6.51201 3.61797C6.44627 4.12725 6.56446 4.64326 6.84531 5.07315C7.12616 5.50304 7.55123 5.81858 8.04401 5.96297C8.27829 6.00599 8.51912 5.99768 8.74988 5.93862C8.98064 5.87955 9.19584 5.77113 9.38065 5.62083C9.56545 5.47054 9.71545 5.28195 9.82031 5.06807C9.92516 4.85419 9.98238 4.62011 9.98801 4.38197C10.0537 3.8727 9.93555 3.35668 9.6547 2.92679C9.37385 2.4969 8.94879 2.18137 8.45601 2.03697V2.03697Z" stroke="current" stroke-width="2" stroke-linecap="round" stroke-linejoin="round" />
    <path d="M2.19399 7.04497C2.6896 6.96911 3.19543 7.08607 3.60744 7.37177C4.01945 7.65748 4.3063 8.09022 4.40899 8.58097C4.496 8.8088 4.53648 9.05176 4.52806 9.29549C4.51963 9.53923 4.46247 9.7788 4.35994 10.0001C4.2574 10.2214 4.11159 10.4199 3.93108 10.5839C3.75058 10.7479 3.53906 10.8741 3.30899 10.955C2.81292 11.0317 2.30633 10.9151 1.89366 10.6293C1.48098 10.3435 1.19369 9.91032 1.09099 9.41897C1.00406 9.19095 0.963708 8.94781 0.972332 8.70393C0.980956 8.46005 1.03838 8.22038 1.1412 7.99906C1.24403 7.77775 1.39017 7.5793 1.571 7.41542C1.75182 7.25155 1.96366 7.12558 2.19399 7.04497V7.04497Z" stroke="current" stroke-width="2" stroke-linecap="round" stroke-linejoin="round" />
    <path d="M15.544 2.03697C15.7783 1.99395 16.0191 2.00226 16.2499 2.06133C16.4806 2.1204 16.6958 2.22882 16.8806 2.37911C17.0654 2.5294 17.2154 2.718 17.3203 2.93188C17.4252 3.14576 17.4824 3.37984 17.488 3.61797C17.5537 4.12725 17.4355 4.64326 17.1547 5.07315C16.8738 5.50304 16.4488 5.81858 15.956 5.96297C15.7217 6.00599 15.4809 5.99768 15.2501 5.93862C15.0194 5.87955 14.8042 5.77113 14.6194 5.62083C14.4346 5.47054 14.2846 5.28195 14.1797 5.06807C14.0748 4.85419 14.0176 4.62011 14.012 4.38197C13.9463 3.8727 14.0645 3.35668 14.3453 2.92679C14.6262 2.4969 15.0512 2.18137 15.544 2.03697V2.03697Z" stroke="current" stroke-width="2" stroke-linecap="round" stroke-linejoin="round" />
    <path d="M21.806 7.04497C21.3104 6.96911 20.8045 7.08607 20.3925 7.37177C19.9805 7.65748 19.6937 8.09022 19.591 8.58097C19.504 8.8088 19.4635 9.05176 19.4719 9.29549C19.4803 9.53923 19.5375 9.7788 19.64 10.0001C19.7426 10.2214 19.8884 10.4199 20.0689 10.5839C20.2494 10.7479 20.4609 10.8741 20.691 10.955C21.1866 11.0308 21.6924 10.9139 22.1044 10.6282C22.5164 10.3425 22.8033 9.90972 22.906 9.41897C22.993 9.19114 23.0335 8.94818 23.025 8.70445C23.0166 8.46071 22.9595 8.22114 22.8569 7.99986C22.7544 7.77858 22.6086 7.58008 22.4281 7.41607C22.2476 7.25207 22.036 7.12589 21.806 7.04497Z" stroke="current" stroke-width="2" stroke-linecap="round" stroke-linejoin="round" />
    <path d="M5 19C5 19.7956 5.31607 20.5587 5.87868 21.1213C6.44129 21.6839 7.20435 22 8 22C10 22 10 21 12 21C14 21 14 22 16 22C16.7956 22 17.5587 21.6839 18.1213 21.1213C18.6839 20.5587 19 19.7956 19 19C19 15 15 10 12 10C9 10 5 15 5 19Z" stroke="current" stroke-width="2" stroke-linecap="round" stroke-linejoin="round" />
  </g>
  <defs>
    <clipPath id="clip0">
      <rect width="24" height="24" fill="white" />
    </clipPath>
  </defs>
</svg>
  