<svg width="24" height="24" viewBox="0 0 24 24" fill="current" xmlns="http://www.w3.org/2000/svg">
  <path fill-rule="evenodd" clip-rule="evenodd" d="M6 0C5.44772 0 5 0.447715 5 1V3C5 3.55228 5.44772 4 6 4C6.55228 4 7 3.55228 7 3V2H17V3C17 3.55228 17.4477 4 18 4C18.5523 4 19 3.55228 19 3V1C19 0.447715 18.5523 0 18 0H6ZM19 10C19 10.5523 18.5523 11 18 11C17.4477 11 17 10.5523 17 10C17 9.44771 17.4477 9 18 9C18.5523 9 19 9.44771 19 10ZM5 7C4.20435 7 3.44129 7.31607 2.87868 7.87868C2.31607 8.44129 2 9.20435 2 10V17H5V14C5 13.4477 5.44772 13 6 13H18C18.5523 13 19 13.4477 19 14V17H22V10C22 9.20435 21.6839 8.44129 21.1213 7.87868C20.5587 7.31607 19.7956 7 19 7H5ZM19 19H23C23.5523 19 24 18.5523 24 18V10C24 8.67392 23.4732 7.40215 22.5355 6.46447C21.5979 5.52678 20.3261 5 19 5H5C3.67392 5 2.40215 5.52678 1.46447 6.46447C0.526784 7.40215 0 8.67392 0 10V18C0 18.5523 0.447715 19 1 19H5V23C5 23.5523 5.44772 24 6 24H18C18.5523 24 19 23.5523 19 23V19ZM17 18V15H7V18V22H17V18Z" fill="current" />
</svg>
  