<svg width="24" height="24" viewBox="0 0 24 24" fill="#0D1B1E" xmlns="http://www.w3.org/2000/svg">
  <g clip-path="url(#clip0)">
    <path fill-rule="evenodd" clip-rule="evenodd" d="M17.9996 9.98074L14.0186 5.99973L17.9996 2.01872L21.9806 5.99973L17.9996 9.98074ZM12.5718 4.61804C11.8087 5.38113 11.8087 6.61833 12.5718 7.38142L16.6179 11.4275C17.381 12.1906 18.6182 12.1906 19.3812 11.4275L23.4273 7.38142C24.1904 6.61833 24.1904 5.38113 23.4273 4.61804L19.3812 0.571977C18.6182 -0.191108 17.381 -0.191106 16.6179 0.571978L12.5718 4.61804ZM3 1.00001C1.89543 1.00001 1 1.89544 1 3.00001V9.00001C1 10.1046 1.89543 11 3 11H9C10.1046 11 11 10.1046 11 9.00001V3.00001C11 1.89544 10.1046 1.00001 9 1.00001H3ZM3 3.00001H9V9.00001H3V3.00001ZM13 15C13 13.8954 13.8954 13 15 13H21C22.1046 13 23 13.8954 23 15V21C23 22.1046 22.1046 23 21 23H15C13.8954 23 13 22.1046 13 21V15ZM21 15H15V21H21V15ZM3 13C1.89543 13 1 13.8954 1 15V21C1 22.1046 1.89543 23 3 23H9C10.1046 23 11 22.1046 11 21V15C11 13.8954 10.1046 13 9 13H3ZM3 15H9V21H3V15Z" fill="" />
  </g>
  <defs>
    <clipPath id="clip0">
      <rect width="24" height="24" fill="white" />
    </clipPath>
  </defs>
</svg>
  