<svg width="24" height="24" viewBox="0 0 24 24" fill="current" xmlns="http://www.w3.org/2000/svg">
  <path fill-rule="evenodd" clip-rule="evenodd" d="M2 1C1.44772 1 1 1.44772 1 2V4.277C1 4.636 1.19244 4.96746 1.50422 5.14545C1.65493 5.23149 1.7802 5.35585 1.86734 5.50593C1.95448 5.65601 2.00037 5.82646 2.00037 6C2.00037 6.17354 1.95448 6.34399 1.86734 6.49407C1.7802 6.64415 1.65493 6.76852 1.50422 6.85455C1.19244 7.03254 1 7.364 1 7.723V10.277C1 10.636 1.19244 10.9675 1.50422 11.1454C1.65493 11.2315 1.78021 11.3559 1.86734 11.5059C1.95448 11.656 2.00037 11.8265 2.00037 12C2.00037 12.1735 1.95448 12.344 1.86734 12.4941C1.78021 12.6441 1.65493 12.7685 1.50422 12.8546C1.19244 13.0325 1 13.364 1 13.723V16.277C1 16.636 1.19244 16.9675 1.50422 17.1454C1.65493 17.2315 1.7802 17.3559 1.86734 17.5059C1.95448 17.656 2.00037 17.8265 2.00037 18C2.00037 18.1735 1.95448 18.344 1.86734 18.4941C1.7802 18.6441 1.65493 18.7685 1.50422 18.8546C1.19244 19.0325 1 19.364 1 19.723V22C1 22.5523 1.44772 23 2 23H4.277C4.636 23 4.96746 22.8076 5.14545 22.4958C5.23149 22.3451 5.35585 22.2198 5.50593 22.1327C5.65601 22.0455 5.82646 21.9996 6 21.9996C6.17354 21.9996 6.34399 22.0455 6.49407 22.1327C6.64415 22.2198 6.76851 22.3451 6.85455 22.4958C7.03254 22.8076 7.364 23 7.723 23H10.277C10.636 23 10.9675 22.8076 11.1454 22.4958C11.2315 22.3451 11.3559 22.2198 11.5059 22.1327C11.656 22.0455 11.8265 21.9996 12 21.9996C12.1735 21.9996 12.344 22.0455 12.4941 22.1327C12.6441 22.2198 12.7685 22.3451 12.8546 22.4958C13.0325 22.8076 13.364 23 13.723 23H16.277C16.636 23 16.9675 22.8076 17.1454 22.4958C17.2315 22.3451 17.3559 22.2198 17.5059 22.1327C17.656 22.0455 17.8265 21.9996 18 21.9996C18.1735 21.9996 18.344 22.0455 18.4941 22.1327C18.6441 22.2198 18.7685 22.3451 18.8546 22.4958C19.0325 22.8076 19.364 23 19.723 23H22C22.5523 23 23 22.5523 23 22V19.723C23 19.364 22.8076 19.0325 22.4958 18.8546C22.3451 18.7685 22.2198 18.6441 22.1327 18.4941C22.0455 18.344 21.9996 18.1735 21.9996 18C21.9996 17.8265 22.0455 17.656 22.1327 17.5059C22.2198 17.3559 22.3451 17.2315 22.4958 17.1454C22.8076 16.9675 23 16.636 23 16.277V13.723C23 13.364 22.8076 13.0325 22.4958 12.8546C22.3451 12.7685 22.2198 12.6441 22.1327 12.4941C22.0455 12.344 21.9996 12.1735 21.9996 12C21.9996 11.8265 22.0455 11.656 22.1327 11.5059C22.2198 11.3559 22.3451 11.2315 22.4958 11.1454C22.8076 10.9675 23 10.636 23 10.277V7.723C23 7.364 22.8076 7.03254 22.4958 6.85455C22.3451 6.76851 22.2198 6.64415 22.1327 6.49407C22.0455 6.34399 21.9996 6.17354 21.9996 6C21.9996 5.82646 22.0455 5.65601 22.1327 5.50593C22.2198 5.35585 22.3451 5.23149 22.4958 5.14545C22.8076 4.96746 23 4.636 23 4.277V2C23 1.44772 22.5523 1 22 1H19.723C19.3463 1 19.0183 1.20824 18.8478 1.51587C18.7621 1.66139 18.6403 1.78246 18.4941 1.86734C18.344 1.95448 18.1735 2.00037 18 2.00037C17.8265 2.00037 17.656 1.95448 17.5059 1.86734C17.3559 1.7802 17.2315 1.65493 17.1454 1.50422C16.9675 1.19244 16.636 1 16.277 1H13.723C13.364 1 13.0325 1.19244 12.8546 1.50422C12.7685 1.65493 12.6441 1.78021 12.4941 1.86734C12.344 1.95448 12.1735 2.00037 12 2.00037C11.8265 2.00037 11.656 1.95448 11.5059 1.86734C11.3559 1.78021 11.2315 1.65493 11.1454 1.50422C10.9675 1.19244 10.636 1 10.277 1H7.723C7.364 1 7.03254 1.19244 6.85455 1.50422C6.76852 1.65493 6.64415 1.7802 6.49407 1.86734C6.34399 1.95448 6.17354 2.00037 6 2.00037C5.82646 2.00037 5.65601 1.95448 5.50593 1.86734C5.35585 1.7802 5.23149 1.65493 5.14545 1.50422C4.96746 1.19244 4.636 1 4.277 1H2ZM19.4983 3.59695C19.7732 3.43734 20.0197 3.23553 20.2292 3H21V3.77077C20.7645 3.98035 20.5627 4.22681 20.403 4.50172C20.1388 4.95684 19.9996 5.47374 19.9996 6C19.9996 6.52626 20.1388 7.04316 20.403 7.49828C20.5627 7.77319 20.7645 8.01965 21 8.22923V9.77077C20.7645 9.98035 20.5627 10.2268 20.403 10.5017C20.1388 10.9568 19.9996 11.4737 19.9996 12C19.9996 12.5263 20.1388 13.0432 20.403 13.4983C20.5627 13.7732 20.7645 14.0197 21 14.2292V15.7708C20.7645 15.9803 20.5627 16.2268 20.403 16.5017C20.1388 16.9568 19.9996 17.4737 19.9996 18C19.9996 18.5263 20.1388 19.0432 20.403 19.4983C20.5627 19.7732 20.7645 20.0197 21 20.2292V21H20.2292C20.0197 20.7645 19.7732 20.5627 19.4983 20.403C19.0432 20.1388 18.5263 19.9996 18 19.9996C17.4737 19.9996 16.9568 20.1388 16.5017 20.403C16.2268 20.5627 15.9803 20.7645 15.7708 21H14.2292C14.0197 20.7645 13.7732 20.5627 13.4983 20.403C13.0432 20.1388 12.5263 19.9996 12 19.9996C11.4737 19.9996 10.9568 20.1388 10.5017 20.403C10.2268 20.5627 9.98035 20.7645 9.77077 21H8.22923C8.01965 20.7645 7.77319 20.5627 7.49828 20.403C7.04316 20.1388 6.52626 19.9996 6 19.9996C5.47374 19.9996 4.95684 20.1388 4.50172 20.403C4.22681 20.5627 3.98035 20.7645 3.77077 21H3V20.2292C3.23553 20.0197 3.43734 19.7732 3.59695 19.4983C3.86119 19.0432 4.00037 18.5263 4.00037 18C4.00037 17.4737 3.86119 16.9568 3.59695 16.5017C3.43734 16.2268 3.23553 15.9803 3 15.7708V14.2292C3.23552 14.0197 3.43734 13.7732 3.59695 13.4983C3.86119 13.0432 4.00037 12.5263 4.00037 12C4.00037 11.4737 3.86119 10.9568 3.59695 10.5017C3.43734 10.2268 3.23552 9.98035 3 9.77077V8.22923C3.23553 8.01965 3.43734 7.77319 3.59695 7.49828C3.86119 7.04317 4.00037 6.52626 4.00037 6C4.00037 5.47374 3.86119 4.95683 3.59695 4.50172C3.43734 4.22681 3.23553 3.98035 3 3.77077V3H3.77077C3.98035 3.23553 4.22681 3.43734 4.50172 3.59695C4.95683 3.86119 5.47374 4.00037 6 4.00037C6.52626 4.00037 7.04317 3.86119 7.49828 3.59695C7.77319 3.43734 8.01965 3.23553 8.22923 3H9.77077C9.98035 3.23552 10.2268 3.43734 10.5017 3.59695C10.9568 3.86119 11.4737 4.00037 12 4.00037C12.5263 4.00037 13.0432 3.86119 13.4983 3.59695C13.7732 3.43734 14.0197 3.23552 14.2292 3H15.7708C15.9803 3.23553 16.2268 3.43734 16.5017 3.59695C16.9568 3.86119 17.4737 4.00037 18 4.00037C18.5263 4.00037 19.0432 3.86119 19.4983 3.59695ZM7 6C6.44772 6 6 6.44772 6 7V17C6 17.5523 6.44772 18 7 18H17C17.5523 18 18 17.5523 18 17V7C18 6.44772 17.5523 6 17 6H7ZM8 16V8H16V16H8Z" fill="current" />
</svg>
  