<svg width="24" height="24" viewBox="0 0 24 24" fill="current" xmlns="http://www.w3.org/2000/svg">
  <path fill-rule="evenodd" clip-rule="evenodd" d="M15.5 2C14.5717 2 13.6815 2.36875 13.0251 3.02513C12.3687 3.6815 12 4.57174 12 5.5V9V15C12 15.5523 11.5523 16 11 16C10.4477 16 10 15.5523 10 15V10H8V13C8 14.3261 7.47322 15.5979 6.53553 16.5355C5.59785 17.4732 4.32608 18 3 18H2V21C2 21.2652 2.10536 21.5196 2.29289 21.7071C2.48043 21.8946 2.73478 22 3 22H6C6.55228 22 7 22.4477 7 23C7 23.5523 6.55228 24 6 24H3C2.20435 24 1.44129 23.6839 0.87868 23.1213C0.316071 22.5587 0 21.7957 0 21V17V15C0 13.1435 0.737498 11.363 2.05025 10.0503C3.36301 8.7375 5.14348 8 7 8H10V5.5C10 4.04131 10.5795 2.64236 11.6109 1.61091C12.6424 0.579463 14.0413 0 15.5 0C16.9587 0 18.3576 0.579463 19.3891 1.61091C20.4205 2.64236 21 4.04131 21 5.5V8V9V18.4648L23.5547 20.1679C23.8329 20.3534 24 20.6656 24 21V23C24 23.5523 23.5523 24 23 24H17C16.4477 24 16 23.5523 16 23V21C16 20.6656 16.1671 20.3534 16.4453 20.1679L19 18.4648V9V8V5.5C19 4.57174 18.6313 3.6815 17.9749 3.02513C17.3185 2.36875 16.4283 2 15.5 2ZM6 10.101C5.04656 10.2956 4.16285 10.7661 3.46447 11.4645C2.52678 12.4021 2 13.6739 2 15V16H3C3.79565 16 4.55871 15.6839 5.12132 15.1213C5.68393 14.5587 6 13.7956 6 13V10.101ZM10 21C10 20.4477 10.4477 20 11 20C11.5523 20 12 20.4477 12 21C12 21.5523 11.5523 22 11 22C10.4477 22 10 21.5523 10 21ZM11 18C9.34315 18 8 19.3431 8 21C8 22.6569 9.34315 24 11 24C12.6569 24 14 22.6569 14 21C14 19.3431 12.6569 18 11 18ZM18 22V21.5352L20 20.2019L22 21.5352V22H18Z" fill="current" />
</svg>
  