<svg width="25" height="26" viewBox="0 0 25 26" fill="none" xmlns="http://www.w3.org/2000/svg">
<path d="M12.5 0.5C5.72375 0.5 0 6.22375 0 13C0 19.7763 5.72375 25.5 12.5 25.5C19.2763 25.5 25 19.7763 25 13C25 6.22375 19.2763 0.5 12.5 0.5ZM12.5 6.75C14.6587 6.75 16.25 8.34 16.25 10.5C16.25 12.66 14.6587 14.25 12.5 14.25C10.3425 14.25 8.75 12.66 8.75 10.5C8.75 8.34 10.3425 6.75 12.5 6.75ZM6.1175 18.965C7.23875 17.315 9.10875 16.215 11.25 16.215H13.75C15.8925 16.215 17.7613 17.315 18.8825 18.965C17.285 20.675 15.0188 21.75 12.5 21.75C9.98125 21.75 7.715 20.675 6.1175 18.965Z" fill="black"/>
</svg>
