<svg width="30" height="30" viewBox="0 0 30 30" fill="none" xmlns="http://www.w3.org/2000/svg">
<path d="M12.5005 30C11.2578 29.9984 10.0665 29.504 9.18773 28.6252C8.30901 27.7465 7.81463 26.5552 7.81299 25.3124C7.83491 25.0802 7.94266 24.8645 8.11519 24.7075C8.28773 24.5505 8.51264 24.4634 8.74593 24.4634C8.97921 24.4634 9.20412 24.5505 9.37666 24.7075C9.54919 24.8645 9.65694 25.0802 9.67886 25.3124C9.69876 26.0451 10.0038 26.7411 10.529 27.2522C11.0543 27.7634 11.7583 28.0494 12.4912 28.0494C13.2241 28.0494 13.9281 27.7634 14.4533 27.2522C14.9786 26.7411 15.2836 26.0451 15.3035 25.3124C15.3254 25.0802 15.4332 24.8645 15.6057 24.7075C15.7782 24.5505 16.0031 24.4634 16.2364 24.4634C16.4697 24.4634 16.6946 24.5505 16.8671 24.7075C17.0397 24.8645 17.1475 25.0802 17.1694 25.3124C17.1677 26.5519 16.6759 27.7405 15.8012 28.6186C14.9265 29.4968 13.74 29.9934 12.5005 30Z" fill="black"/>
<path d="M22.8064 26.2494H2.18841C1.74113 26.2496 1.30454 26.1127 0.937471 25.8571C0.570403 25.6016 0.29051 25.2396 0.135519 24.82C-0.0194717 24.4005 -0.0421096 23.9435 0.070657 23.5107C0.183424 23.0778 0.426173 22.69 0.766186 22.3994C0.79759 22.3729 0.830845 22.3486 0.8657 22.3268C1.77193 21.5382 2.49847 20.5644 2.99631 19.4711C3.49415 18.3778 3.75171 17.1904 3.7516 15.989V12.4998C3.74332 10.533 4.40229 8.62146 5.62085 7.07754C6.83941 5.53362 8.54554 4.44859 10.4605 3.9997C10.7024 3.94224 10.9573 3.98323 11.169 4.11368C11.3807 4.24412 11.5319 4.45333 11.5894 4.69526C11.6468 4.9372 11.6058 5.19204 11.4754 5.40374C11.3449 5.61544 11.1357 5.76666 10.8938 5.82411C9.39057 6.17681 8.05136 7.02881 7.0949 8.24095C6.13845 9.45309 5.62127 10.9537 5.62786 12.4978V15.9849C5.62793 17.4765 5.30346 18.9502 4.67696 20.3038C4.05045 21.6574 3.13691 22.8585 1.99974 23.8237L1.94377 23.8672C1.90002 23.9227 1.87661 23.9915 1.87742 24.0621C1.87797 24.145 1.91112 24.2243 1.96972 24.2829C2.02831 24.3415 2.10762 24.3746 2.19048 24.3752H22.8064C22.8893 24.3746 22.9686 24.3415 23.0272 24.2829C23.0858 24.2243 23.119 24.145 23.1195 24.0621C23.1206 23.9911 23.0964 23.922 23.0511 23.8672L22.9972 23.8237C21.8902 22.8818 20.9974 21.714 20.3787 20.3988C20.3218 20.287 20.2878 20.165 20.2789 20.0399C20.27 19.9148 20.2863 19.7892 20.3268 19.6705C20.3674 19.5518 20.4313 19.4424 20.5149 19.3489C20.5985 19.2554 20.6999 19.1796 20.8133 19.126C20.9267 19.0724 21.0497 19.0422 21.1751 19.037C21.3004 19.0318 21.4254 19.0519 21.5429 19.0959C21.6603 19.14 21.7677 19.2072 21.8587 19.2935C21.9496 19.3798 22.0224 19.4836 22.0725 19.5985C22.5674 20.6422 23.2734 21.5719 24.1457 22.3289C24.1788 22.3506 24.2106 22.3742 24.2411 22.3994C24.5819 22.6907 24.825 23.0797 24.9375 23.5137C25.0499 23.9477 25.0262 24.4058 24.8697 24.8259C24.7131 25.246 24.4312 25.6079 24.0622 25.8625C23.6931 26.1171 23.2548 26.2522 22.8064 26.2494Z" fill="black"/>
<path d="M21.8757 16.2498C20.2687 16.2498 18.6978 15.7733 17.3617 14.8805C16.0255 13.9877 14.9842 12.7188 14.3692 11.2342C13.7542 9.74953 13.5934 8.11589 13.9069 6.53981C14.2204 4.96374 14.9942 3.51602 16.1305 2.37973C17.2667 1.24344 18.7145 0.469622 20.2905 0.156121C21.8666 -0.15738 23.5003 0.0035204 24.9849 0.618475C26.4695 1.23343 27.7385 2.27482 28.6313 3.61095C29.524 4.94708 30.0005 6.51795 30.0005 8.1249C29.9983 10.2791 29.1416 12.3444 27.6184 13.8676C26.0951 15.3909 24.0298 16.2476 21.8757 16.2498ZM21.8757 1.87626C20.6391 1.87544 19.4301 2.24139 18.4016 2.92782C17.3731 3.61425 16.5713 4.59031 16.0976 5.73253C15.6239 6.87475 15.4996 8.1318 15.7405 9.34465C15.9814 10.5575 16.5766 11.6717 17.4508 12.5462C18.325 13.4207 19.439 14.0162 20.6518 14.2575C21.8645 14.4988 23.1216 14.375 24.264 13.9017C25.4064 13.4284 26.3827 12.6269 27.0695 11.5986C27.7563 10.5703 28.1226 9.36144 28.1222 8.1249C28.1228 6.46689 27.4652 4.87645 26.294 3.7029C25.1228 2.52934 23.5337 1.86864 21.8757 1.86589V1.87626Z" fill="black"/>
</svg>
