<svg width="21" height="20" viewBox="0 0 21 20" fill="none" xmlns="http://www.w3.org/2000/svg">
<path d="M16.6574 19.9498H3.71537C2.80769 19.9162 1.94832 19.5322 1.31772 18.8785C0.687108 18.2247 0.334303 17.3521 0.333374 16.4438L0.333374 14.6498C0.333374 14.4548 0.410779 14.2677 0.54859 14.1297C0.6864 13.9917 0.873348 13.9141 1.06837 13.9138H3.56837V0.810799C3.56791 0.668938 3.60852 0.529975 3.68528 0.410679C3.76205 0.291382 3.8717 0.196851 4.001 0.138491C4.1303 0.0801305 4.27373 0.0604362 4.41397 0.081784C4.55422 0.103132 4.68529 0.16461 4.79137 0.258799L6.85037 2.0828L8.91137 0.237799C9.04603 0.117064 9.22052 0.050293 9.40137 0.050293C9.58223 0.050293 9.75672 0.117064 9.89137 0.237799L11.9504 2.0818L14.0104 0.237799C14.145 0.117064 14.3195 0.050293 14.5004 0.050293C14.6812 0.050293 14.8557 0.117064 14.9904 0.237799L17.0524 2.0838L19.1104 0.258799C19.2165 0.16461 19.3475 0.103132 19.4878 0.081784C19.628 0.0604362 19.7714 0.0801305 19.9007 0.138491C20.03 0.196851 20.1397 0.291382 20.2165 0.410679C20.2932 0.529975 20.3338 0.668938 20.3334 0.810799V16.4438C20.3321 17.3722 19.9631 18.2623 19.3072 18.9193C18.6512 19.5764 17.7618 19.9469 16.8334 19.9498C16.7727 19.9498 16.714 19.9498 16.6574 19.9498ZM5.03937 13.9158H14.0594C14.2544 13.9161 14.4413 13.9937 14.5792 14.1317C14.717 14.2697 14.7944 14.4568 14.7944 14.6518V16.4438C14.7944 16.9834 15.0087 17.5009 15.3903 17.8824C15.7718 18.2639 16.2893 18.4783 16.8289 18.4783C17.3685 18.4783 17.8859 18.2639 18.2675 17.8824C18.649 17.5009 18.8634 16.9834 18.8634 16.4438V2.4498L17.5334 3.6198C17.3988 3.7395 17.225 3.80562 17.0449 3.80562C16.8648 3.80562 16.6909 3.7395 16.5564 3.6198L14.5004 1.7738L12.4414 3.6168C12.3067 3.73753 12.1322 3.8043 11.9514 3.8043C11.7705 3.8043 11.596 3.73753 11.4614 3.6168L9.40237 1.7738L7.34337 3.6178C7.20891 3.7377 7.03504 3.80396 6.85487 3.80396C6.67471 3.80396 6.50084 3.7377 6.36637 3.6178L5.03937 2.4498V13.9158ZM13.9764 18.4808C13.5515 17.8866 13.3234 17.1743 13.3244 16.4438V15.3888H1.80437V16.4438C1.80463 16.9826 2.01823 17.4993 2.39846 17.8811C2.77868 18.2628 3.2946 18.4784 3.83337 18.4808H13.9764ZM7.97637 11.5358C7.78104 11.5358 7.59371 11.4582 7.45559 11.3201C7.31747 11.182 7.23987 10.9946 7.23987 10.7993C7.23987 10.604 7.31747 10.4166 7.45559 10.2785C7.59371 10.1404 7.78104 10.0628 7.97637 10.0628H15.9424C16.1377 10.0628 16.325 10.1404 16.4632 10.2785C16.6013 10.4166 16.6789 10.604 16.6789 10.7993C16.6789 10.9946 16.6013 11.182 16.4632 11.3201C16.325 11.4582 16.1377 11.5358 15.9424 11.5358H7.97637ZM7.97637 8.0998C7.78104 8.0998 7.59371 8.0222 7.45559 7.88408C7.31747 7.74596 7.23987 7.55863 7.23987 7.3633C7.23987 7.16797 7.31747 6.98063 7.45559 6.84251C7.59371 6.70439 7.78104 6.6268 7.97637 6.6268H12.5104C12.7057 6.6268 12.893 6.70439 13.0312 6.84251C13.1693 6.98063 13.2469 7.16797 13.2469 7.3633C13.2469 7.55863 13.1693 7.74596 13.0312 7.88408C12.893 8.0222 12.7057 8.0998 12.5104 8.0998H7.97637Z" fill="black"/>
</svg>
