<svg width="30" height="20" viewBox="0 0 30 20" fill="none" xmlns="http://www.w3.org/2000/svg">
<path d="M29.4377 0.7323H0.563477V19.2674H29.4377V0.7323Z" fill="#F2F2F2"/>
<path d="M29.6614 0.486572H22.624V19.7526H29.6614V0.486572Z" fill="#E4E4E4"/>
<path d="M24.4431 3.8866H5.55785C4.619 3.8866 3.85791 4.64769 3.85791 5.58654C3.85791 6.52539 4.619 7.28649 5.55785 7.28649H24.4431C25.3819 7.28649 26.143 6.52539 26.143 5.58654C26.143 4.64769 25.3819 3.8866 24.4431 3.8866Z" fill="#E0E0E0"/>
<path d="M26.4638 4.26697H24.1353V6.51688H26.4638V4.26697Z" fill="#BDBDBD"/>
<path d="M29.437 19.8115H0.562993C0.252033 19.8115 0 19.568 0 19.2676V0.732459C0 0.431999 0.252033 0.188477 0.562993 0.188477H29.437C29.748 0.188477 30 0.431999 30 0.732459V19.2676C30 19.5678 29.748 19.8115 29.437 19.8115ZM1.12599 18.7236H28.874V1.27644H1.12599V18.7236Z" fill="#BDBDBD"/>
<path d="M26.3036 7.28649H4.87028C4.31112 7.28649 3.85791 7.03844 3.85791 6.7324V4.44069C3.85791 4.13464 4.31112 3.8866 4.87028 3.8866H26.3036C26.8627 3.8866 27.3159 4.13464 27.3159 4.44069V6.7324C27.3159 7.03844 26.8627 7.28649 26.3036 7.28649ZM4.71009 6.17831H26.4644V4.99477H4.71009V6.17831Z" fill="#BDBDBD"/>
<rect x="3.85791" y="9.55298" width="23.458" height="1.1333" rx="0.566648" fill="#BDBDBD"/>
<rect x="3.85791" y="12.9528" width="17.5935" height="1.1333" rx="0.566648" fill="#BDBDBD"/>
<rect x="3.85791" y="15.2195" width="12.9019" height="1.1333" rx="0.566648" fill="#BDBDBD"/>
</svg>
