<svg width="20" height="20" viewBox="0 0 20 20" fill="none" xmlns="http://www.w3.org/2000/svg">
<path d="M10 0C8.02219 0 6.08879 0.58649 4.4443 1.6853C2.79981 2.78412 1.51809 4.3459 0.761209 6.17316C0.00433281 8.00043 -0.1937 10.0111 0.192152 11.9509C0.578004 13.8907 1.53041 15.6725 2.92894 17.0711C4.32746 18.4696 6.10929 19.422 8.0491 19.8078C9.98891 20.1937 11.9996 19.9957 13.8268 19.2388C15.6541 18.4819 17.2159 17.2002 18.3147 15.5557C19.4135 13.9112 20 11.9778 20 10C19.997 7.34875 18.9425 4.80694 17.0678 2.93222C15.1931 1.0575 12.6513 0.00297763 10 0ZM14.75 15.1725C14.6727 15.25 14.5808 15.3115 14.4797 15.3535C14.3785 15.3954 14.2701 15.417 14.1606 15.417C14.0511 15.417 13.9427 15.3954 13.8416 15.3535C13.7404 15.3115 13.6486 15.25 13.5713 15.1725L9.41125 11C9.33271 10.9233 9.27017 10.8317 9.22726 10.7307C9.18435 10.6296 9.16191 10.521 9.16125 10.4112V5C9.16125 4.77821 9.24936 4.56551 9.40619 4.40868C9.56301 4.25185 9.77572 4.16375 9.9975 4.16375C10.2193 4.16375 10.432 4.25185 10.5888 4.40868C10.7456 4.56551 10.8338 4.77821 10.8338 5V10.0712L14.75 14C14.8275 14.0773 14.889 14.1692 14.931 14.2703C14.9729 14.3715 14.9945 14.4799 14.9945 14.5894C14.9945 14.6989 14.9729 14.8073 14.931 14.9084C14.889 15.0096 14.8275 15.1014 14.75 15.1787V15.1725Z" fill="black"/>
</svg>
