<svg width="39" height="39" viewBox="0 0 39 39" fill="none" xmlns="http://www.w3.org/2000/svg">
<circle r="17.5" transform="matrix(1 0 0 -1 19.5 19.5)" fill="#2B74E4" stroke="white" stroke-width="3"/>
<path d="M23.0066 14.1246L24.8754 15.9925L23.0066 14.1246ZM24.2083 12.479L19.1551 17.5323C18.894 17.793 18.7159 18.1252 18.6433 18.487L18.1765 20.8235L20.513 20.3558C20.8748 20.2835 21.2065 20.1061 21.4677 19.8449L26.521 14.7916C26.6729 14.6398 26.7933 14.4595 26.8755 14.2611C26.9577 14.0627 27 13.8501 27 13.6353C27 13.4206 26.9577 13.2079 26.8755 13.0095C26.7933 12.8111 26.6729 12.6308 26.521 12.479C26.3692 12.3271 26.1889 12.2067 25.9905 12.1245C25.7921 12.0423 25.5794 12 25.3647 12C25.1499 12 24.9373 12.0423 24.7389 12.1245C24.5405 12.2067 24.3602 12.3271 24.2083 12.479V12.479Z" stroke="white" stroke-width="1.5" stroke-linecap="round" stroke-linejoin="round"/>
<path d="M25.2354 22.5882V25.2353C25.2354 25.7033 25.0495 26.1522 24.7186 26.4831C24.3876 26.8141 23.9387 27 23.4707 27H13.7647C13.2967 27 12.8478 26.8141 12.5169 26.4831C12.1859 26.1522 12 25.7033 12 25.2353V15.5293C12 15.0613 12.1859 14.6124 12.5169 14.2815C12.8478 13.9505 13.2967 13.7646 13.7647 13.7646H16.4118" stroke="white" stroke-width="1.5" stroke-linecap="round" stroke-linejoin="round"/>
</svg>
