<svg width="22" height="20" viewBox="0 0 22 20" fill="none" xmlns="http://www.w3.org/2000/svg">
<path d="M20.778 15.3042L13.2807 1.52189C13.0053 1.05812 12.614 0.673949 12.1453 0.407126C11.6766 0.140303 11.1465 0 10.6071 0C10.0678 0 9.53767 0.140303 9.06894 0.407126C8.6002 0.673949 8.20893 1.05812 7.93357 1.52189L0.436206 15.3042C0.155739 15.7761 0.00528064 16.3139 0.000136485 16.8629C-0.00500767 17.4118 0.135346 17.9524 0.406919 18.4295C0.678493 18.9066 1.07159 19.3032 1.54623 19.5791C2.02087 19.855 2.56011 20.0002 3.1091 20H18.0985C18.6481 20.0014 19.1881 19.857 19.6637 19.5816C20.1393 19.3062 20.5333 18.9097 20.8057 18.4324C21.078 17.9551 21.219 17.4141 21.2141 16.8645C21.2093 16.315 21.0588 15.7766 20.778 15.3042ZM10.6065 17.5075C10.3604 17.5075 10.1198 17.4345 9.91519 17.2978C9.71057 17.1611 9.55109 16.9668 9.45692 16.7394C9.36274 16.512 9.3381 16.2619 9.38611 16.0205C9.43412 15.7791 9.55262 15.5574 9.72664 15.3834C9.90065 15.2094 10.1224 15.0909 10.3637 15.0429C10.6051 14.9949 10.8553 15.0195 11.0826 15.1137C11.31 15.2079 11.5043 15.3674 11.641 15.572C11.7777 15.7766 11.8507 16.0172 11.8507 16.2632C11.8504 16.5931 11.7192 16.9094 11.4859 17.1427C11.2526 17.3759 10.9363 17.5072 10.6065 17.5075ZM11.8507 12.5331C11.8562 12.6999 11.828 12.866 11.768 13.0216C11.7079 13.1773 11.6172 13.3192 11.5012 13.4391C11.3852 13.559 11.2462 13.6543 11.0926 13.7194C10.9391 13.7845 10.7739 13.818 10.6071 13.818C10.4403 13.818 10.2752 13.7845 10.1216 13.7194C9.96801 13.6543 9.82907 13.559 9.71305 13.4391C9.59704 13.3192 9.50631 13.1773 9.44627 13.0216C9.38622 12.866 9.35808 12.6999 9.36353 12.5331V6.31585C9.37407 5.99306 9.50971 5.68701 9.74178 5.4624C9.97385 5.23779 10.2842 5.11221 10.6071 5.11221C10.9301 5.11221 11.2404 5.23779 11.4725 5.4624C11.7045 5.68701 11.8402 5.99306 11.8507 6.31585V12.5331Z" fill="#F53535"/>
</svg>
