<svg width="30" height="24" viewBox="0 0 30 24" fill="none" xmlns="http://www.w3.org/2000/svg">
<path d="M29.4374 3.93457H0.563232V23.1174H29.4374V3.93457Z" fill="white"/>
<path d="M11.404 20.4809H3.53613V17.5055C3.53613 16.4178 4.41797 15.5361 5.50567 15.5361H9.43479C10.5225 15.5361 11.4041 16.418 11.4041 17.5055V20.4809H11.404Z" fill="#56CCF2"/>
<path d="M29.4376 3.93457H26.4641V23.1174H29.4376V3.93457Z" fill="#B7EDFF"/>
<path d="M26.464 9.93848H14.5447V12.267H26.464V9.93848Z" fill="#56CCF2"/>
<path d="M26.4638 9.93848H24.1353V12.267H26.4638V9.93848Z" fill="#7BABF3"/>
<path d="M9.43455 15.5352H7.59619C8.68389 15.5352 9.56554 16.417 9.56554 17.5045V20.4799H11.4037V17.5045C11.4039 16.4168 10.5223 15.5352 9.43455 15.5352Z" fill="#084DB7"/>
<path d="M7.47044 13.9186C6.45517 13.9186 5.63208 13.0955 5.63208 12.0802V11.0999C5.63208 10.0846 6.45517 9.26172 7.47044 9.26172C8.4857 9.26172 9.30861 10.0848 9.30861 11.0999V12.0802C9.3088 13.0957 8.4857 13.9186 7.47044 13.9186Z" fill="white"/>
<path d="M29.437 23.6809H0.562993C0.252033 23.6809 0 23.4289 0 23.1179V3.93506C0 3.6241 0.252033 3.37207 0.562993 3.37207H29.437C29.748 3.37207 30 3.6241 30 3.93506V23.1179C30 23.4287 29.748 23.6809 29.437 23.6809ZM1.12599 22.5549H28.874V4.49806H1.12599V22.5549Z" fill="#2B74E4"/>
<path d="M7.4705 14.4819C6.14653 14.4819 5.06934 13.4047 5.06934 12.0807V11.1004C5.06934 9.77641 6.14653 8.69922 7.4705 8.69922C8.79447 8.69922 9.87166 9.77641 9.87166 11.1004V12.0807C9.87185 13.4047 8.79466 14.4819 7.4705 14.4819ZM7.4705 9.82502C6.76732 9.82502 6.19532 10.397 6.19532 11.1002V12.0806C6.19532 12.7837 6.76732 13.3557 7.4705 13.3557C8.17368 13.3557 8.74568 12.7837 8.74568 12.0806V11.1002C8.74587 10.397 8.17386 9.82502 7.4705 9.82502Z" fill="#2B74E4"/>
<path d="M11.4044 21.0436H3.53663C3.22567 21.0436 2.97363 20.7916 2.97363 20.4806V17.5052C2.97363 16.1088 4.10975 14.9727 5.50616 14.9727H9.43529C10.8317 14.9727 11.9678 16.1088 11.9678 17.5052V20.4806C11.9674 20.7916 11.7154 21.0436 11.4044 21.0436ZM4.09962 19.9176H10.8416V17.5052C10.8416 16.7298 10.2107 16.0986 9.4351 16.0986H5.50597C4.73054 16.0986 4.09943 16.7296 4.09943 17.5052V19.9176H4.09962Z" fill="#2B74E4"/>
<path d="M26.4633 12.8305H14.5439C14.233 12.8305 13.981 12.5785 13.981 12.2675V9.93897C13.981 9.62801 14.233 9.37598 14.5439 9.37598H26.4633C26.7742 9.37598 27.0262 9.62801 27.0262 9.93897V12.2675C27.0262 12.5785 26.7742 12.8305 26.4633 12.8305ZM15.1071 11.7045H25.9004V10.502H15.1071V11.7045Z" fill="#2B74E4"/>
<path d="M26.4633 15.3418H14.5439C14.233 15.3418 13.981 15.0898 13.981 14.7788C13.981 14.4679 14.233 14.2158 14.5439 14.2158H26.4633C26.7742 14.2158 27.0262 14.4679 27.0262 14.7788C27.0262 15.0898 26.7742 15.3418 26.4633 15.3418Z" fill="#2B74E4"/>
<path d="M26.4633 17.8545H14.5439C14.233 17.8545 13.981 17.6025 13.981 17.2915C13.981 16.9805 14.233 16.7285 14.5439 16.7285H26.4633C26.7742 16.7285 27.0262 16.9805 27.0262 17.2915C27.0262 17.6025 26.7742 17.8545 26.4633 17.8545Z" fill="#2B74E4"/>
<path d="M20.5048 20.3672H14.5452C14.2342 20.3672 13.9822 20.1152 13.9822 19.8042C13.9822 19.4932 14.2342 19.2412 14.5452 19.2412H20.5048C20.8158 19.2412 21.0678 19.4932 21.0678 19.8042C21.0678 20.1152 20.8156 20.3672 20.5048 20.3672Z" fill="#2B74E4"/>
<path d="M12.9761 5.56332V0.84375H17.0238V5.56332C17.0238 6.68105 16.1178 7.58728 14.9998 7.58728C13.8823 7.58709 12.9761 6.68105 12.9761 5.56332Z" fill="#56CCF2"/>
<path d="M15.633 0.84375V5.56332C15.633 6.43633 15.0792 7.17798 14.3049 7.46192C14.5222 7.54149 14.7557 7.58728 15.0006 7.58728C16.1183 7.58728 17.0246 6.68123 17.0246 5.56332V0.84375H15.633Z" fill="#084DB7"/>
<path d="M14.9993 8.15057C13.5729 8.15057 12.4124 6.99006 12.4124 5.56362V0.844243C12.4124 0.533283 12.6644 0.28125 12.9753 0.28125H17.0231C17.334 0.28125 17.5861 0.533283 17.5861 0.844243V5.56362C17.5863 6.99025 16.4257 8.15057 14.9993 8.15057ZM13.5383 1.40724V5.56362C13.5383 6.36908 14.1937 7.02459 14.9993 7.02459C15.8049 7.02459 16.4603 6.36927 16.4603 5.56362V1.40724H13.5383Z" fill="#2B74E4"/>
</svg>
