<svg width="24" height="24" viewBox="0 0 24 24" fill="none" xmlns="http://www.w3.org/2000/svg">
    <path fill-rule="evenodd" clip-rule="evenodd" d="M9.65539 1.65539C10.5204 0.790423 11.7617 0 13 0C13.456 0 13.8866 0.0722888 14.2763 0.238597C14.4071 0.276126 14.5269 0.339642 14.6299 0.423203C15.0272 0.672542 15.3164 1.01156 15.5193 1.39085C15.9343 2.16677 16 3.14097 16 4V14H18C18.5523 14 19 14.4477 19 15V23C19 23.5523 18.5523 24 18 24H6C5.44772 24 5 23.5523 5 23V15C5 14.4477 5.44772 14 6 14H8V5.99995V5C8 3.7617 8.79042 2.52036 9.65539 1.65539ZM9 16H7V22H17V16H15H9ZM14 14H10V6.94897C11.2522 6.81608 12.3963 6.41333 13.288 5.62354C13.5574 5.385 13.7946 5.11927 14 4.82765V14ZM11.0696 3.06961C11.7563 2.38292 12.4885 2.02403 12.9535 2.00117C12.8263 3.03059 12.4492 3.69485 11.962 4.12636C11.5022 4.53355 10.8543 4.81406 10.0023 4.93417C10.034 4.46834 10.3924 3.74685 11.0696 3.06961Z" fill="white"/>
    </svg>
    