<svg width="134" height="48" viewBox="0 0 134 48" fill="none" xmlns="http://www.w3.org/2000/svg">
<path d="M6.83206 47.4511C6.35806 47.4511 5.87072 47.4324 5.37006 47.3951C4.04506 47.2951 4.08706 46.4061 4.92406 46.0631C7.3351 45.221 9.47263 43.7408 11.1091 41.7801C6.26686 39.0087 2.65372 34.5065 0.996407 29.1792C-0.660905 23.8518 -0.239434 18.0945 2.17604 13.0653C4.59152 8.03604 8.8218 4.10805 14.016 2.07138C19.2102 0.0347098 24.9829 0.0404605 30.173 2.08747C35.3631 4.13449 39.5855 8.0709 41.991 13.1049C44.3964 18.1389 44.8064 23.8971 43.1385 29.2211C41.4706 34.5452 37.8485 39.0402 33.0008 41.8019C28.1531 44.5636 22.4394 45.3873 17.0091 44.1071C14.0921 46.3128 10.5259 47.4889 6.86906 47.4511H6.83206ZM14.3761 15.7361C12.1871 32.0461 12.1871 32.3281 12.1871 33.1791C12.2003 33.5954 12.3665 33.9923 12.6539 34.2937C12.9414 34.5952 13.3298 34.7801 13.7451 34.8131H29.9711C30.1969 34.8227 30.4222 34.7853 30.6328 34.7033C30.8434 34.6213 31.0347 34.4964 31.1945 34.3366C31.3544 34.1768 31.4792 33.9855 31.5613 33.7749C31.6433 33.5643 31.6807 33.3389 31.6711 33.1131C31.6571 32.9691 31.6431 32.8381 31.6371 32.7081C31.5371 31.6171 31.4311 30.4771 29.3441 15.7391C29.2751 15.3821 28.7051 13.8241 26.3091 13.9681C26.213 12.92 25.7359 11.9435 24.9681 11.2237C24.2003 10.5038 23.1952 10.0905 22.1431 10.0621C21.5939 10.0237 21.0427 10.0946 20.5211 10.2705C19.9995 10.4465 19.518 10.7241 19.1044 11.0874C18.6908 11.4506 18.3532 11.8922 18.1113 12.3866C17.8694 12.8811 17.7279 13.4186 17.6951 13.9681C17.5951 13.9681 17.5031 13.9681 17.4111 13.9681C15.1081 13.9611 14.5791 14.8511 14.3751 15.7361H14.3761ZM115.353 45.6701L116.57 44.6931C118.612 42.9143 120.178 40.6549 121.127 38.1191L121.978 36.0751L114.911 20.0181H120.075L124.505 31.1391L128.617 20.0181H133.932C132.966 21.569 132.181 23.2251 131.59 24.9541L128.822 31.7861C125.119 40.4754 122.216 45.6554 120.114 47.3261L115.353 45.6701ZM77.9711 39.6521C77.4191 39.6091 77.4361 39.2401 77.7851 39.0971C78.7892 38.7462 79.6794 38.1297 80.3611 37.3131C78.3428 36.1581 76.8367 34.2816 76.1459 32.0611C75.4551 29.8407 75.6308 27.441 76.6377 25.3448C77.6445 23.2486 79.4078 21.6115 81.5728 20.7628C83.7379 19.9141 86.144 19.9167 88.3071 20.7702C90.4703 21.6236 92.23 23.2646 93.2323 25.363C94.2345 27.4613 94.405 29.8614 93.7093 32.0803C93.0137 34.2993 91.5035 36.1725 89.4827 37.3231C87.4619 38.4737 85.0803 38.8163 82.8171 38.2821C81.6005 39.2018 80.1131 39.6917 78.5881 39.6751C78.3887 39.6758 78.1831 39.6681 77.9711 39.6521ZM81.7221 26.4641C80.8101 33.2581 80.8101 33.3751 80.8101 33.7301C80.8159 33.9033 80.8852 34.0684 81.0049 34.1938C81.1246 34.3192 81.2863 34.3962 81.4591 34.4101H88.2191C88.313 34.4138 88.4067 34.3979 88.4942 34.3636C88.5818 34.3292 88.6612 34.2771 88.7276 34.2104C88.7939 34.1438 88.8457 34.0641 88.8797 33.9765C88.9137 33.8888 88.9291 33.795 88.9251 33.7011C88.9191 33.6411 88.9141 33.5861 88.9111 33.5321C88.8681 33.0771 88.8251 32.6031 87.9561 26.4631C87.9271 26.3141 87.6901 25.6631 86.6921 25.7251C86.653 25.2879 86.4547 24.8804 86.1348 24.5799C85.8149 24.2794 85.3958 24.1068 84.9571 24.0951C84.7283 24.0791 84.4987 24.1086 84.2814 24.1819C84.0641 24.2552 83.8635 24.3708 83.6912 24.5221C83.5189 24.6734 83.3783 24.8573 83.2775 25.0633C83.1767 25.2693 83.1178 25.4932 83.1041 25.7221H82.9851C82.0321 25.7251 81.8081 26.0951 81.7231 26.4641H81.7221ZM55.5691 37.3461C54.9035 37.0933 54.269 36.7652 53.6781 36.3681V29.9681L53.7551 29.9101C55.3501 32.6451 58.1791 34.0101 61.8191 34.0101C64.4044 34.0101 66.1151 33.3904 66.9511 32.1511C67.2312 31.7383 67.3791 31.25 67.3751 30.7511C67.3918 30.3094 67.3059 29.8699 67.1241 29.4671C66.9367 29.1003 66.6488 28.7944 66.2941 28.5851C65.1291 27.9815 63.8435 27.6473 62.5321 27.6071C61.0539 27.5048 59.5984 27.1885 58.2111 26.6681C57.2128 26.2855 56.3018 25.706 55.5321 24.9641C54.9019 24.2725 54.4167 23.4615 54.1053 22.5792C53.7939 21.6969 53.6626 20.7611 53.7191 19.8271C53.6834 18.7854 53.8815 17.7489 54.2987 16.7937C54.7159 15.8385 55.3416 14.9889 56.1301 14.3071C57.9881 12.7984 60.34 12.0333 62.7301 12.1601C65.2469 12.2169 67.7267 12.779 70.0221 13.8131V18.4341L69.8871 18.4721C68.2147 17.7533 66.4581 17.2493 64.6591 16.9721C63.9731 16.835 63.2756 16.7643 62.5761 16.7611C62.0046 16.7521 61.434 16.8101 60.8761 16.9341C60.4509 17.0325 60.0453 17.2015 59.6761 17.4341C59.3558 17.6135 59.0889 17.8746 58.9025 18.1908C58.7161 18.507 58.6169 18.867 58.6151 19.2341C58.5858 19.6456 58.6544 20.0581 58.8154 20.4379C58.9763 20.8177 59.225 21.154 59.5411 21.4191C60.7 22.1413 62.0179 22.569 63.3801 22.6651C64.8449 22.8212 66.2875 23.1426 67.6801 23.6231C68.6561 23.9705 69.5589 24.4968 70.3421 25.1751C71.0138 25.812 71.538 26.5882 71.878 27.4491C72.218 28.3101 72.3654 29.2351 72.3101 30.1591C72.3691 31.4246 72.1066 32.6845 71.547 33.8211C70.9874 34.9577 70.149 35.9341 69.1101 36.6591C67.0726 38.0244 64.6548 38.7089 62.2041 38.6141C59.9329 38.6066 57.6829 38.1767 55.5691 37.3461ZM99.8491 36.8081C99.0678 36.1736 98.4465 35.3646 98.035 34.4461C97.6236 33.5277 97.4335 32.5254 97.4801 31.5201V12.1601H101.68V21.0111C102.812 20.4255 104.056 20.0904 105.329 20.0288C106.601 19.9672 107.872 20.1805 109.055 20.6541C110.021 21.0616 110.891 21.6677 111.608 22.4331C113.221 24.2199 114.076 26.5643 113.991 28.9701C114.048 30.2482 113.848 31.5249 113.404 32.7245C112.959 33.924 112.278 35.0222 111.401 35.9541C109.882 37.4297 107.892 38.3239 105.78 38.4802C103.668 38.6365 101.568 38.0449 99.8481 36.8091L99.8491 36.8081ZM102.539 24.7771C102.24 24.9439 101.953 25.1324 101.681 25.3411V31.4701C101.681 33.4788 102.932 34.4824 105.435 34.4811C106.041 34.4802 106.638 34.3335 107.175 34.0534C107.712 33.7734 108.174 33.3682 108.522 32.8721C109.396 31.6917 109.843 30.2498 109.791 28.7821C109.841 28.1039 109.749 27.4226 109.519 26.7826C109.289 26.1426 108.927 25.5581 108.456 25.0671C107.566 24.2937 106.41 23.8951 105.232 23.9551C104.279 23.9962 103.352 24.2791 102.539 24.7771ZM83.8641 25.7271C83.8986 25.4685 84.0259 25.2312 84.2223 25.0594C84.4186 24.8875 84.6706 24.7928 84.9316 24.7928C85.1925 24.7928 85.4445 24.8875 85.6409 25.0594C85.8372 25.2312 85.9645 25.4685 85.9991 25.7271H83.8641ZM19.5141 13.9651C19.5982 13.3452 19.9042 12.7768 20.3754 12.3652C20.8466 11.9537 21.451 11.7269 22.0766 11.7269C22.7022 11.7269 23.3065 11.9537 23.7777 12.3652C24.2489 12.7768 24.5549 13.3452 24.6391 13.9651H19.5141Z" fill="white"/>
</svg>
