<svg width="16" height="20" viewBox="0 0 16 20" fill="none" xmlns="http://www.w3.org/2000/svg">
<path d="M15.8475 16.493L14.9545 5.238C14.9259 4.88614 14.7661 4.5579 14.5068 4.31838C14.2474 4.07887 13.9075 3.9456 13.5545 3.945H11.7945V3.866C11.7945 2.84067 11.3872 1.85734 10.6622 1.13233C9.93719 0.40731 8.95386 0 7.92853 0C6.90321 0 5.91987 0.40731 5.19486 1.13233C4.46984 1.85734 4.06253 2.84067 4.06253 3.866V3.945H2.29853C1.94561 3.94534 1.60572 4.0784 1.34636 4.31775C1.08701 4.5571 0.927148 4.88524 0.898532 5.237L0.00953235 16.494C-0.0247679 16.9413 0.0337253 17.391 0.181344 17.8146C0.328963 18.2383 0.562524 18.6269 0.867381 18.9561C1.17224 19.2853 1.54182 19.5479 1.95294 19.7275C2.36407 19.9072 2.80788 19.9999 3.25653 20H12.6015C13.0503 19.9999 13.4942 19.9072 13.9054 19.7275C14.3166 19.5478 14.6862 19.285 14.9911 18.9557C15.2959 18.6265 15.5295 18.2377 15.677 17.8139C15.8246 17.3901 15.883 16.9404 15.8485 16.493H15.8475ZM5.23453 3.866C5.23453 3.15137 5.51842 2.46602 6.02373 1.9607C6.52905 1.45538 7.21441 1.1715 7.92903 1.1715C8.64366 1.1715 9.32902 1.45538 9.83433 1.9607C10.3396 2.46602 10.6235 3.15137 10.6235 3.866V3.945H5.23453V3.866ZM14.1285 18.16C13.9341 18.3718 13.6976 18.5406 13.4341 18.6556C13.1706 18.7706 12.886 18.8293 12.5985 18.828H3.25653C2.96941 18.828 2.68539 18.7687 2.42226 18.6538C2.15912 18.5389 1.92256 18.3709 1.72738 18.1604C1.5322 17.9498 1.38261 17.7012 1.288 17.4301C1.19338 17.159 1.15577 16.8713 1.17753 16.585L2.07053 5.328C2.07528 5.27069 2.10132 5.21725 2.14353 5.17819C2.18573 5.13913 2.24103 5.1173 2.29853 5.117H4.06253V6.56C4.06878 6.7111 4.1332 6.85393 4.24231 6.95863C4.35143 7.06333 4.49681 7.1218 4.64803 7.1218C4.79926 7.1218 4.94463 7.06333 5.05375 6.95863C5.16287 6.85393 5.22729 6.7111 5.23353 6.56V5.117H10.6225V6.56C10.6288 6.7111 10.6932 6.85393 10.8023 6.95863C10.9114 7.06333 11.0568 7.1218 11.208 7.1218C11.3593 7.1218 11.5046 7.06333 11.6138 6.95863C11.7229 6.85393 11.7873 6.7111 11.7935 6.56V5.117H13.5585C13.6164 5.11734 13.6719 5.13945 13.7142 5.17893C13.7564 5.2184 13.7823 5.27234 13.7865 5.33L14.6795 16.584C14.7025 16.8706 14.6654 17.1588 14.5705 17.4302C14.4756 17.7016 14.3251 17.9502 14.1285 18.16Z" fill="black"/>
<path d="M10.5675 9.93299C10.4576 9.82332 10.3088 9.76172 10.1535 9.76172C9.99827 9.76172 9.84938 9.82332 9.73951 9.93299L7.12851 12.548L6.11751 11.543C6.00623 11.4407 5.85973 11.3853 5.7086 11.3885C5.55747 11.3917 5.41341 11.4531 5.30652 11.56C5.19964 11.6669 5.13819 11.8109 5.13502 11.9621C5.13185 12.1132 5.1872 12.2597 5.28951 12.371L6.70951 13.791C6.81938 13.9007 6.96827 13.9623 7.12351 13.9623C7.27875 13.9623 7.42764 13.9007 7.53751 13.791L10.5675 10.761C10.6772 10.6511 10.7388 10.5022 10.7388 10.347C10.7388 10.1918 10.6772 10.0429 10.5675 9.93299Z" fill="black"/>
</svg>
