<svg width="16" height="17" viewBox="0 0 16 17" fill="none" xmlns="http://www.w3.org/2000/svg">
<path d="M8 0.5C3.58172 0.5 0 4.08172 0 8.5C0 12.9183 3.58172 16.5 8 16.5C12.4183 16.5 16 12.9183 16 8.5C16 4.08172 12.4183 0.5 8 0.5ZM5.125 3.67773C5.28983 3.66801 5.43881 3.76653 5.55176 3.9414L6.64551 6.01561C6.76067 6.2614 6.69523 6.52457 6.52344 6.70019L6.02247 7.20116C5.99155 7.24353 5.9712 7.29125 5.97071 7.34373C6.16283 8.0874 6.7456 8.77337 7.25979 9.24511C7.77395 9.71684 8.32657 10.3555 9.04395 10.5068C9.13261 10.5316 9.24124 10.5404 9.30469 10.4815L9.88672 9.88868C10.0876 9.7364 10.3783 9.6626 10.5928 9.78712H10.6025L12.5761 10.9522C12.8659 11.1337 12.8959 11.4847 12.6885 11.6983L11.3291 13.0469C11.1284 13.2527 10.8617 13.322 10.6026 13.3223C9.45659 13.2879 8.37379 12.7255 7.4844 12.1475C6.02453 11.0854 4.68543 9.76819 3.84473 8.17676C3.52231 7.50943 3.14355 6.65796 3.17969 5.91311C3.18292 5.63289 3.25873 5.35837 3.45607 5.17776L4.81544 3.81839C4.92133 3.72828 5.02609 3.68357 5.125 3.67773Z" fill="white"/>
</svg>
