<svg width="21" height="22" viewBox="0 0 21 22" fill="none" xmlns="http://www.w3.org/2000/svg">
<path d="M20.7575 0.742431C20.6393 0.624758 20.4899 0.543286 20.327 0.507594C20.164 0.471902 19.9943 0.483473 19.8377 0.540947L0.565339 7.54908C0.399131 7.61212 0.256035 7.72424 0.155058 7.87054C0.0540804 8.01683 0 8.19039 0 8.36815C0 8.54592 0.0540804 8.71947 0.155058 8.86577C0.256035 9.01207 0.399131 9.12418 0.565339 9.18723L8.09032 12.192L13.6443 6.6205L14.8794 7.85568L9.29922 13.4359L12.3127 20.9609C12.3776 21.1239 12.49 21.2636 12.6353 21.362C12.7805 21.4604 12.952 21.5129 13.1274 21.5128C13.3044 21.5091 13.4762 21.452 13.6201 21.3487C13.764 21.2455 13.8732 21.1011 13.9333 20.9346L20.9415 1.66225C21.0012 1.50726 21.0156 1.3385 20.983 1.17564C20.9504 1.01278 20.8722 0.862542 20.7575 0.742431Z" fill="white"/>
</svg>
