<svg width="25" height="24" viewBox="0 0 25 24" fill="none" xmlns="http://www.w3.org/2000/svg">
  <path fill-rule="evenodd" clip-rule="evenodd" d="M18.5 4C17.3954 4 16.5 4.89543 16.5 6C16.5 6.28543 16.5598 6.55689 16.6675 6.80255C16.6749 6.81549 16.6821 6.82865 16.689 6.84203C16.7042 6.87152 16.7178 6.9014 16.7298 6.9316C17.0648 7.56692 17.7318 8 18.5 8C19.6046 8 20.5 7.10457 20.5 6C20.5 4.89543 19.6046 4 18.5 4ZM14.5 6C14.5 6.27512 14.5278 6.54375 14.5807 6.80324L9.53986 9.40002C8.80622 8.54308 7.71653 8 6.5 8C4.29086 8 2.5 9.79086 2.5 12C2.5 14.2091 4.29086 16 6.5 16C7.71654 16 8.80624 15.4569 9.53987 14.6L14.5807 17.1967C14.5278 17.4562 14.5 17.7249 14.5 18C14.5 20.2091 16.2909 22 18.5 22C20.7091 22 22.5 20.2091 22.5 18C22.5 15.7909 20.7091 14 18.5 14C17.2835 14 16.1938 14.5431 15.4602 15.4L10.4193 12.8032C10.4722 12.5437 10.5 12.2751 10.5 12C10.5 11.7249 10.4722 11.4562 10.4193 11.1967L15.4601 8.59997C16.1938 9.45692 17.2835 10 18.5 10C20.7091 10 22.5 8.20914 22.5 6C22.5 3.79086 20.7091 2 18.5 2C16.2909 2 14.5 3.79086 14.5 6ZM8.33238 12.8027C8.44018 12.557 8.5 12.2855 8.5 12C8.5 11.7145 8.44016 11.4429 8.33234 11.1972C8.32499 11.1843 8.31788 11.1712 8.31104 11.1579C8.2959 11.1286 8.28236 11.0988 8.27038 11.0687C7.9354 10.4332 7.26829 10 6.5 10C5.39543 10 4.5 10.8954 4.5 12C4.5 13.1046 5.39543 14 6.5 14C7.26826 14 7.93534 13.5668 8.27034 12.9314C8.28233 12.9013 8.29588 12.8715 8.31104 12.842C8.3179 12.8287 8.32502 12.8156 8.33238 12.8027ZM16.6676 17.1973C16.675 17.1844 16.6821 17.1713 16.689 17.1579C16.7042 17.1285 16.7177 17.0986 16.7297 17.0685C17.0647 16.4331 17.7318 16 18.5 16C19.6046 16 20.5 16.8954 20.5 18C20.5 19.1046 19.6046 20 18.5 20C17.3954 20 16.5 19.1046 16.5 18C16.5 17.7145 16.5598 17.443 16.6676 17.1973Z" fill="#0D1B1E" />
</svg>
  