<svg width="24" height="25" viewBox="0 0 24 25" fill="none" xmlns="http://www.w3.org/2000/svg">
<rect y="0.144531" width="24" height="24" rx="12" fill="#EE4D30"/>
<path fill-rule="evenodd" clip-rule="evenodd" d="M14.2729 15.6222C14.1915 16.2946 13.7841 16.833 13.153 17.1027C12.8016 17.2529 12.3297 17.334 11.9562 17.3085C11.3736 17.2862 10.8262 17.1445 10.3216 16.8855C10.1414 16.7929 9.87267 16.608 9.66634 16.4349C9.61408 16.3911 9.60787 16.3631 9.64245 16.314C9.66112 16.2859 9.69555 16.2351 9.77164 16.1236C9.88201 15.9619 9.89578 15.9416 9.90819 15.9227C9.9435 15.8685 10.0009 15.8638 10.0575 15.9083C10.0634 15.9129 10.0634 15.9129 10.0679 15.9164C10.0772 15.9236 10.0772 15.9236 10.0991 15.9406C10.1212 15.9579 10.1344 15.9681 10.1397 15.9721C10.6839 16.3983 11.3176 16.6441 11.9574 16.6687C12.8476 16.6565 13.4877 16.2563 13.6024 15.6417C13.7285 14.9653 13.1976 14.381 12.1588 14.0554C11.8339 13.9535 11.0127 13.6248 10.8613 13.536C10.1502 13.1188 9.81775 12.5724 9.865 11.8974C9.9374 10.9618 10.806 10.2639 11.9035 10.2593C12.3942 10.2583 12.884 10.3603 13.3545 10.5585C13.5211 10.6287 13.8186 10.7906 13.9212 10.8673C13.9804 10.9107 13.9921 10.9613 13.9582 11.016C13.9392 11.0476 13.9079 11.0978 13.842 11.2025L13.8412 11.2037C13.7544 11.3415 13.7517 11.3458 13.7318 11.3781C13.6973 11.4305 13.6569 11.4354 13.5948 11.396C13.0913 11.0578 12.5332 10.8876 11.9194 10.8753C11.1552 10.8904 10.5824 11.3453 10.5447 11.9648C10.5347 12.5244 10.9544 12.9329 11.861 13.2444C13.7012 13.8358 14.4055 14.5291 14.2729 15.6222L14.2729 15.6222ZM12.0003 5.96198C13.1984 5.96198 14.1749 7.09896 14.2206 8.52222H9.77993C9.82562 7.09896 10.8022 5.96198 12.0003 5.96198ZM18.2008 8.7898C18.2008 8.64201 18.0818 8.52222 17.935 8.52222H15.0567C14.986 6.64299 13.6447 5.14453 12.0003 5.14453C10.3559 5.14453 9.01453 6.64299 8.94391 8.52222L6.06146 8.52227C5.91693 8.52489 5.80057 8.64369 5.80057 8.7898C5.80057 8.79679 5.80083 8.80372 5.80135 8.81055H5.79932L6.21021 17.8682C6.21026 17.8934 6.2112 17.9188 6.21308 17.9444C6.21349 17.9502 6.21397 17.9559 6.21443 17.9616L6.21532 17.9807L6.21631 17.9817C6.27874 18.612 6.73616 19.1197 7.35813 19.1431L7.35954 19.1444H16.5029C16.5072 19.1445 16.5116 19.1445 16.5159 19.1445C16.5202 19.1445 16.5246 19.1445 16.5289 19.1444H16.5483L16.5488 19.1441C17.1816 19.1268 17.6942 18.6121 17.7483 17.974L17.7487 17.9737L17.7491 17.9651C17.7496 17.9584 17.7501 17.9517 17.7505 17.945C17.7515 17.9289 17.7522 17.9129 17.7525 17.897L18.2008 8.80361H18.2005C18.2007 8.79904 18.2008 8.79442 18.2008 8.7898" fill="white"/>
</svg>
