<svg width="28" height="20" viewBox="0 0 28 20" fill="none" xmlns="http://www.w3.org/2000/svg">
<path d="M23.7485 4.99983H19.9993V3.55971e-07H2.49992C2.17157 -0.000174901 1.84642 0.0643649 1.54303 0.189935C1.23965 0.315506 0.963991 0.499644 0.731818 0.731818C0.499644 0.963991 0.315509 1.23965 0.189938 1.54303C0.0643677 1.84641 -0.000174901 2.17157 3.55956e-07 2.49992V16.2501H2.49992C2.49992 17.2447 2.89499 18.1984 3.59823 18.9017C4.30147 19.6049 5.25526 20 6.24979 20C7.24432 20 8.19811 19.6049 8.90135 18.9017C9.60459 18.1984 9.99966 17.2447 9.99966 16.2501H17.4994C17.4994 17.2447 17.8945 18.1984 18.5977 18.9017C19.301 19.6049 20.2548 20 21.2493 20C22.2438 20 23.1976 19.6049 23.9008 18.9017C24.6041 18.1984 24.9992 17.2447 24.9992 16.2501H27.4991V9.99966L23.7485 4.99983ZM6.25046 18.1247C5.8797 18.1247 5.51726 18.0148 5.20898 17.8088C4.90071 17.6028 4.66043 17.31 4.51855 16.9675C4.37666 16.625 4.33954 16.248 4.41187 15.8844C4.48421 15.5208 4.66274 15.1867 4.92491 14.9246C5.18708 14.6624 5.5211 14.4839 5.88474 14.4115C6.24838 14.3392 6.6253 14.3763 6.96784 14.5182C7.31038 14.6601 7.60315 14.9004 7.80913 15.2086C8.01512 15.5169 8.12506 15.8794 8.12506 16.2501C8.12612 16.4966 8.07835 16.7408 7.98452 16.9688C7.89069 17.1967 7.75265 17.4037 7.57836 17.578C7.40408 17.7523 7.197 17.8904 6.96909 17.9842C6.74117 18.078 6.49693 18.1258 6.25046 18.1247ZM21.25 18.1247C20.8792 18.1247 20.5168 18.0148 20.2085 17.8088C19.9002 17.6028 19.6599 17.31 19.518 16.9675C19.3762 16.625 19.339 16.248 19.4114 15.8844C19.4837 15.5208 19.6622 15.1867 19.9244 14.9246C20.1866 14.6624 20.5206 14.4839 20.8842 14.4115C21.2479 14.3392 21.6248 14.3763 21.9673 14.5182C22.3099 14.6601 22.6026 14.9004 22.8086 15.2086C23.0146 15.5169 23.1246 15.8794 23.1246 16.2501C23.1256 16.4967 23.0778 16.7411 22.9839 16.9691C22.89 17.1971 22.7518 17.4042 22.5774 17.5785C22.403 17.7528 22.1957 17.8908 21.9677 17.9846C21.7396 18.0783 21.4952 18.126 21.2486 18.1247H21.25ZM19.9993 9.99966V6.87443H23.1246L25.5805 9.99966H19.9993Z" fill="black"/>
</svg>
