<svg width="28" height="31" viewBox="0 0 28 31" fill="none" xmlns="http://www.w3.org/2000/svg">
<path fill-rule="evenodd" clip-rule="evenodd" d="M0.628254 30.3635C1.02999 30.7652 1.57471 30.9911 2.14285 30.9917H12.8571V28.8489H2.14285V3.13461H19.2857V7.42032H21.4285V3.13461C21.428 2.56647 21.202 2.02175 20.8003 1.62001C20.3985 1.21827 19.8538 0.992328 19.2857 0.99176H2.14285C1.57471 0.992328 1.02999 1.21827 0.628254 1.62001C0.226514 2.02175 0.000567296 2.56647 0 3.13461V28.8489C0.000567296 29.417 0.226514 29.9617 0.628254 30.3635ZM5.35713 7.42032H16.0714V9.56318H5.35713V7.42032ZM27.0822 15.0619C27.5929 16.0054 27.8593 17.0618 27.8571 18.1346C27.8566 19.0371 27.6655 19.9294 27.2962 20.7529C26.9269 21.5763 26.3878 22.3125 25.7142 22.9132V30.9918L21.4285 28.9636L17.1428 30.9918V22.9132C16.3431 22.1979 15.7352 21.2939 15.3744 20.2835C15.0136 19.2732 14.9114 18.1885 15.0772 17.1285C15.2429 16.0685 15.6713 15.0669 16.3233 14.2149C16.9753 13.3628 17.8302 12.6876 18.81 12.2505C19.7899 11.8135 20.8635 11.6287 21.9331 11.7129C23.0026 11.7971 24.0341 12.1477 24.9335 12.7326C25.8329 13.3176 26.5716 14.1183 27.0822 15.0619ZM21.4285 26.5914L23.5714 27.6061V24.1882C22.1866 24.6883 20.6705 24.6883 19.2857 24.1882V27.6061L21.4285 26.5914ZM19.0475 21.6981C19.7523 22.169 20.5809 22.4203 21.4285 22.4203C22.5647 22.4189 23.654 21.9669 24.4574 21.1635C25.2608 20.3601 25.7128 19.2708 25.7142 18.1346C25.7142 17.287 25.4629 16.4584 24.992 15.7536C24.521 15.0488 23.8517 14.4995 23.0686 14.1752C22.2855 13.8508 21.4238 13.7659 20.5924 13.9313C19.7611 14.0966 18.9974 14.5048 18.3981 15.1042C17.7987 15.7035 17.3905 16.4672 17.2252 17.2985C17.0598 18.1299 17.1447 18.9916 17.469 19.7747C17.7934 20.5578 18.3427 21.2272 19.0475 21.6981ZM12.8571 13.8489H5.35713V15.9917H12.8571V13.8489Z" fill="black"/>
</svg>
