<svg width="41" height="41" viewBox="0 0 41 41" fill="none" xmlns="http://www.w3.org/2000/svg">
<rect x="0.0830078" y="0.981445" width="40" height="40" rx="20" fill="#F1F1F1"/>
<path fill-rule="evenodd" clip-rule="evenodd" d="M15.253 13.9814L17.083 11.9814H23.083L24.913 13.9814H28.083C29.183 13.9814 30.083 14.8814 30.083 15.9814V27.9814C30.083 29.0814 29.183 29.9814 28.083 29.9814H12.083C10.983 29.9814 10.083 29.0814 10.083 27.9814V15.9814C10.083 14.8814 10.983 13.9814 12.083 13.9814H15.253ZM15.083 21.9814C15.083 24.7414 17.323 26.9814 20.083 26.9814C22.843 26.9814 25.083 24.7414 25.083 21.9814C25.083 19.2214 22.843 16.9814 20.083 16.9814C17.323 16.9814 15.083 19.2214 15.083 21.9814ZM23.283 21.9812C23.283 23.7486 21.8503 25.1812 20.083 25.1812C18.3157 25.1812 16.883 23.7486 16.883 21.9812C16.883 20.2139 18.3157 18.7812 20.083 18.7812C21.8503 18.7812 23.283 20.2139 23.283 21.9812Z" fill="#080808"/>
</svg>
