<svg width="70" height="70" viewBox="0 0 70 70" fill="none" xmlns="http://www.w3.org/2000/svg">
<rect width="70" height="70" rx="8" fill="#F53535"/>
<path d="M49.3831 42.5009L38.7808 23.0107C38.3914 22.3549 37.8381 21.8116 37.1752 21.4343C36.5123 21.057 35.7627 20.8586 35 20.8586C34.2373 20.8586 33.4876 21.057 32.8248 21.4343C32.1619 21.8116 31.6086 22.3549 31.2192 23.0107L20.6169 42.5009C20.2202 43.1683 20.0075 43.9288 20.0002 44.7051C19.9929 45.4814 20.1914 46.2458 20.5754 46.9205C20.9595 47.5952 21.5154 48.1561 22.1866 48.5462C22.8578 48.9363 23.6204 49.1417 24.3967 49.1414H45.5939C46.371 49.1434 47.1348 48.9392 47.8073 48.5498C48.4798 48.1603 49.0371 47.5996 49.4222 46.9246C49.8074 46.2496 50.0067 45.4846 49.9998 44.7074C49.993 43.9303 49.7802 43.1689 49.3831 42.5009ZM34.9991 45.6167C34.6511 45.6167 34.3109 45.5135 34.0215 45.3201C33.7321 45.1268 33.5066 44.852 33.3734 44.5305C33.2403 44.209 33.2054 43.8552 33.2733 43.5139C33.3412 43.1725 33.5088 42.859 33.7549 42.6129C34.0009 42.3669 34.3145 42.1993 34.6558 42.1314C34.9971 42.0635 35.3509 42.0983 35.6724 42.2315C35.9939 42.3647 36.2687 42.5902 36.4621 42.8796C36.6554 43.1689 36.7586 43.5091 36.7586 43.8571C36.7581 44.3236 36.5726 44.7709 36.2427 45.1008C35.9128 45.4306 35.4656 45.6162 34.9991 45.6167ZM36.7586 38.5822C36.7663 38.818 36.7265 39.0529 36.6416 39.273C36.5567 39.4931 36.4284 39.6939 36.2643 39.8634C36.1003 40.0329 35.9038 40.1677 35.6866 40.2597C35.4694 40.3518 35.2359 40.3992 35 40.3992C34.7641 40.3992 34.5306 40.3518 34.3134 40.2597C34.0962 40.1677 33.8997 40.0329 33.7357 39.8634C33.5716 39.6939 33.4433 39.4931 33.3584 39.273C33.2735 39.0529 33.2337 38.818 33.2414 38.5822V29.7901C33.2563 29.3336 33.4481 28.9008 33.7763 28.5832C34.1045 28.2655 34.5433 28.088 35 28.088C35.4567 28.088 35.8955 28.2655 36.2237 28.5832C36.5519 28.9008 36.7437 29.3336 36.7586 29.7901V38.5822Z" fill="white"/>
</svg>
