<svg width="24" height="24" viewBox="0 0 24 24" fill="none" xmlns="http://www.w3.org/2000/svg">
  <path fill-rule="evenodd" clip-rule="evenodd" d="M9 3C8.46957 3 7.96086 3.21071 7.58579 3.58579C7.21071 3.96086 7 4.46957 7 5C7 5.26522 6.89464 5.51957 6.70711 5.70711C6.51957 5.89464 6.26522 6 6 6H5C4.20435 6 3.44129 6.31607 2.87868 6.87868C2.31607 7.44129 2 8.20435 2 9V18C2 18.7956 2.31607 19.5587 2.87868 20.1213C3.44129 20.6839 4.20435 21 5 21H19C19.7957 21 20.5587 20.6839 21.1213 20.1213C21.6839 19.5587 22 18.7957 22 18V9C22 8.20435 21.6839 7.44129 21.1213 6.87868C20.5587 6.31607 19.7957 6 19 6H18C17.7348 6 17.4804 5.89464 17.2929 5.70711C17.1054 5.51957 17 5.26522 17 5C17 4.46957 16.7893 3.96086 16.4142 3.58579C16.0391 3.21071 15.5304 3 15 3H9ZM4.29289 8.29289C4.48043 8.10536 4.73478 8 5 8H6C6.79565 8 7.55871 7.68393 8.12132 7.12132C8.68393 6.55871 9 5.79565 9 5L15 5C15 5.79565 15.3161 6.55871 15.8787 7.12132C16.4413 7.68393 17.2044 8 18 8H19C19.2652 8 19.5196 8.10536 19.7071 8.29289C19.8946 8.48043 20 8.73478 20 9V18C20 18.2652 19.8946 18.5196 19.7071 18.7071C19.5196 18.8946 19.2652 19 19 19H5C4.73478 19 4.48043 18.8946 4.29289 18.7071C4.10536 18.5196 4 18.2652 4 18V9C4 8.73478 4.10536 8.48043 4.29289 8.29289ZM10 13C10 11.8954 10.8954 11 12 11C13.1046 11 14 11.8954 14 13C14 14.1046 13.1046 15 12 15C10.8954 15 10 14.1046 10 13ZM12 9C9.79086 9 8 10.7909 8 13C8 15.2091 9.79086 17 12 17C14.2091 17 16 15.2091 16 13C16 10.7909 14.2091 9 12 9Z" fill="white"/>
  </svg>
  