<svg width="30" height="30" viewBox="0 0 30 30" fill="none" xmlns="http://www.w3.org/2000/svg">
<path d="M26.0776 20.2227L27.1875 16.0605V13.5938C26.7108 8.08635 22.0352 3.75 16.4062 3.75H14.5312V13.5938H7.74363L6.69809 8.97844C6.60595 8.56051 6.37427 8.1864 6.04119 7.91769C5.70811 7.64897 5.29347 7.50166 4.86551 7.5H0.9375V9.375H4.86551L7.23709 19.8439C6.39081 20.0681 5.62423 20.5249 5.02419 21.1624C4.42414 21.7999 4.01462 22.5926 3.84201 23.4509C3.6694 24.3092 3.7406 25.1987 4.04755 26.0186C4.35449 26.8385 4.88492 27.5561 5.57873 28.09C6.27254 28.6239 7.10202 28.9529 7.97318 29.0396C8.84435 29.1263 9.72239 28.9673 10.5078 28.5806C11.2933 28.194 11.9548 27.5951 12.4173 26.8518C12.8799 26.1085 13.125 25.2505 13.125 24.375C13.125 24.2168 13.1172 24.0605 13.1016 23.9062H19.2422C19.2268 24.0605 19.2189 24.2167 19.2188 24.375C19.2184 25.2063 19.4391 26.0227 19.8582 26.7405C20.2774 27.4584 20.8799 28.0518 21.6039 28.4601C22.328 28.8684 23.1476 29.0768 23.9788 29.0639C24.81 29.0511 25.6227 28.8174 26.3338 28.3869C27.0449 27.9564 27.6288 27.3446 28.0255 26.6141C28.4222 25.8836 28.6175 25.0608 28.5914 24.2299C28.5654 23.3991 28.3188 22.5901 27.8771 21.8859C27.4353 21.1818 26.8143 20.6077 26.0776 20.2227ZM16.4062 5.625C21.0006 5.625 24.7937 9.12176 25.2635 13.5938H16.4062V5.625ZM8.4375 27.1875C7.88124 27.1875 7.33747 27.0226 6.87496 26.7135C6.41245 26.4045 6.05196 25.9652 5.83909 25.4513C5.62622 24.9374 5.57052 24.3719 5.67904 23.8263C5.78756 23.2807 6.05543 22.7796 6.44876 22.3863C6.8421 21.9929 7.34324 21.7251 7.88881 21.6165C8.43438 21.508 8.99988 21.5637 9.5138 21.7766C10.0277 21.9895 10.467 22.3499 10.776 22.8125C11.085 23.275 11.25 23.8187 11.25 24.375C11.2491 25.1207 10.9526 25.8355 10.4253 26.3628C9.89803 26.8901 9.18316 27.1866 8.4375 27.1875ZM19.8494 22.0312H12.4944C12.142 21.4221 11.6572 20.9 11.0759 20.5033C10.4947 20.1067 9.83168 19.8458 9.136 19.7398L8.16844 15.4688H25.3125V15.8145L24.2754 19.7032C24.1526 19.6931 24.0295 19.6878 23.9062 19.6873C23.0839 19.688 22.2761 19.9049 21.5641 20.3163C20.852 20.7277 20.2607 21.3191 19.8494 22.0312ZM23.9062 27.1875C23.35 27.1875 22.8062 27.0226 22.3437 26.7135C21.8812 26.4045 21.5207 25.9652 21.3078 25.4513C21.095 24.9374 21.0393 24.3719 21.1478 23.8263C21.2563 23.2807 21.5242 22.7796 21.9175 22.3863C22.3108 21.9929 22.812 21.7251 23.3576 21.6165C23.9031 21.508 24.4686 21.5637 24.9825 21.7766C25.4965 21.9895 25.9357 22.3499 26.2448 22.8125C26.5538 23.275 26.7188 23.8187 26.7188 24.375C26.7179 25.1207 26.4213 25.8355 25.894 26.3628C25.3668 26.8901 24.6519 27.1866 23.9062 27.1875Z" fill="black"/>
</svg>
