<svg width="30" height="30" viewBox="0 0 30 30" fill="none" xmlns="http://www.w3.org/2000/svg">
  <path d="M12.5 14.1667H15V15.8333H12.5V14.1667Z" fill="black" />
  <path d="M22.0417 11.8085C20.5637 9.39 18.5475 7.34527 16.15 5.8335C15.0424 5.13153 13.7798 4.71137 12.4725 4.60969C11.1652 4.508 9.8528 4.7279 8.65 5.25017C7.59792 5.74642 6.68245 6.49131 5.98265 7.42051C5.28284 8.34971 4.81974 9.43529 4.63333 10.5835C4.56667 10.9752 4.51667 11.3502 4.46667 11.7168C3.68645 11.8433 2.97656 12.2429 2.46369 12.8443C1.95082 13.4457 1.66834 14.2098 1.66667 15.0002V20.1085C1.66667 20.5505 1.84226 20.9744 2.15482 21.287C2.46738 21.5996 2.89131 21.7752 3.33333 21.7752V15.0002C3.33333 14.5581 3.50893 14.1342 3.82149 13.8217C4.13405 13.5091 4.55797 13.3335 5 13.3335H20.6083C22.2144 13.3357 23.7541 13.9747 24.8898 15.1104C26.0255 16.2461 26.6645 17.7857 26.6667 19.3918V20.0002H25C24.648 19.1419 23.9924 18.4433 23.1582 18.0376C22.324 17.632 21.3697 17.5476 20.4773 17.8007C19.5849 18.0538 18.8169 18.6266 18.3199 19.4098C17.8229 20.193 17.6316 21.1318 17.7826 22.0471C17.9337 22.9623 18.4164 23.7899 19.1386 24.3719C19.8609 24.9539 20.7722 25.2496 21.6986 25.2026C22.625 25.1556 23.5017 24.7692 24.1613 24.117C24.821 23.4648 25.2174 22.5926 25.275 21.6668H26.6667C27.1087 21.6668 27.5326 21.4912 27.8452 21.1787C28.1577 20.8661 28.3333 20.4422 28.3333 20.0002V19.3918C28.33 17.5934 27.6999 15.8524 26.5516 14.4684C25.4033 13.0843 23.8085 12.1438 22.0417 11.8085ZM9.16667 11.6668H5.775C5.775 11.4085 5.85 11.1418 5.9 10.8335C6.04398 9.91805 6.41971 9.05464 6.99147 8.32535C7.56323 7.59605 8.31203 7.02512 9.16667 6.66683V11.6668ZM10.8333 11.6668V6.31683C12.3891 6.1148 13.967 6.45627 15.3 7.2835C17.1198 8.41698 18.6904 9.90823 19.9167 11.6668H10.8333ZM21.5 23.6502C21.088 23.6502 20.6852 23.528 20.3426 23.2991C20 23.0701 19.7329 22.7448 19.5753 22.3641C19.4176 21.9834 19.3763 21.5645 19.4567 21.1604C19.5371 20.7563 19.7355 20.3851 20.0269 20.0937C20.3182 19.8023 20.6894 19.6039 21.0936 19.5235C21.4977 19.4431 21.9166 19.4844 22.2973 19.6421C22.6779 19.7998 23.0033 20.0668 23.2322 20.4094C23.4611 20.752 23.5833 21.1548 23.5833 21.5668C23.5833 22.1194 23.3638 22.6493 22.9731 23.04C22.5824 23.4307 22.0525 23.6502 21.5 23.6502Z" fill="black" />
  <path d="M11.8083 20.0001C11.4564 19.1419 10.8008 18.4433 9.96657 18.0376C9.13238 17.6319 8.17803 17.5476 7.28562 17.8007C6.39321 18.0538 5.62523 18.6266 5.12822 19.4098C4.63121 20.193 4.43996 21.1318 4.59097 22.047C4.74199 22.9622 5.22468 23.7898 5.94696 24.3719C6.66924 24.9539 7.58053 25.2496 8.50694 25.2026C9.43335 25.1556 10.31 24.7691 10.9697 24.117C11.6293 23.4648 12.0257 22.5926 12.0833 21.6668H16.5V21.4585C16.4835 20.9668 16.5397 20.4754 16.6667 20.0001H11.8083ZM8.33333 23.6501C7.92129 23.6501 7.51849 23.5279 7.17589 23.299C6.83329 23.0701 6.56626 22.7447 6.40858 22.364C6.2509 21.9834 6.20964 21.5645 6.29003 21.1604C6.37041 20.7562 6.56883 20.385 6.86019 20.0937C7.15155 19.8023 7.52276 19.6039 7.92689 19.5235C8.33102 19.4431 8.74991 19.4844 9.13059 19.642C9.51127 19.7997 9.83664 20.0667 10.0656 20.4094C10.2945 20.752 10.4167 21.1547 10.4167 21.5668C10.4167 22.1193 10.1972 22.6492 9.80647 23.0399C9.41577 23.4306 8.88586 23.6501 8.33333 23.6501Z" fill="black" />
</svg>