<svg width="31" height="20" viewBox="0 0 31 20" fill="none" xmlns="http://www.w3.org/2000/svg">
<path d="M20.7331 0.00418523C23.0072 0.00418523 25.2813 -0.00621625 27.5554 0.00938597C29.5382 0.0197874 30.6165 1.10154 30.6318 3.13503C30.6523 6.57792 30.6523 10.026 30.6318 13.4689C30.6216 15.2788 29.7682 16.3293 28 16.4541C25.9405 16.5945 23.8658 16.5685 21.8012 16.5373C20.8762 16.5217 20.1659 16.7818 19.5475 17.4943C18.8627 18.2796 18.1064 19.0025 17.3501 19.7202C17.1712 19.8918 16.8033 20.0582 16.6295 19.9802C16.4404 19.897 16.2871 19.533 16.2616 19.2781C16.2003 18.68 16.2207 18.0715 16.2207 17.4683C16.2207 16.8442 15.9243 16.5633 15.3162 16.5581C14.6723 16.5529 14.0181 16.5529 13.3845 16.4645C11.6572 16.2305 10.8242 15.2944 10.8088 13.5053C10.7833 10.4317 10.7986 7.35283 10.7986 4.27399C10.7986 3.80072 10.7884 3.32746 10.8037 2.85419C10.86 1.12754 11.8974 0.0405904 13.594 0.0197874C15.9754 -0.0166177 18.3568 0.00938597 20.7331 0.00418523C20.7331 0.00938597 20.7331 0.00938597 20.7331 0.00418523ZM19.7979 5.17372C19.7979 6.58832 19.7928 8.00292 19.7979 9.41752C19.7979 9.9532 20.0586 10.2444 20.6054 10.2496C21.1113 10.2548 21.5917 10.1768 21.6172 9.54754C21.699 7.8469 21.745 6.14106 21.7858 4.44041C21.7961 3.94114 21.5099 3.69151 21.0193 3.6343C19.9001 3.50428 19.6242 3.80072 19.7979 5.17372ZM20.7587 12.7772C21.3412 12.7876 21.7961 12.642 21.7858 11.9191C21.7705 11.1702 21.285 11.035 20.6769 11.0402C20.0892 11.0454 19.6497 11.2014 19.6548 11.9139C19.6599 12.6888 20.1608 12.798 20.7587 12.7772Z" fill="black"/>
<path d="M4.54863 2.06861C5.40206 2.06861 6.25548 2.053 7.10891 2.07381C7.78858 2.08941 8.24851 2.41185 8.32006 3.14516C8.38138 3.76404 7.8959 4.34132 7.1549 4.36213C5.37139 4.41414 3.58789 4.40893 1.80949 4.36733C1.13492 4.34653 0.700546 3.90966 0.664774 3.19716C0.634112 2.58348 1.09404 2.12581 1.83504 2.08941C2.73957 2.0478 3.6441 2.07901 4.54863 2.07901C4.54863 2.07381 4.54863 2.07381 4.54863 2.06861Z" fill="black"/>
<path d="M5.13631 9.4226C4.51796 9.4226 3.89961 9.46421 3.28637 9.4122C2.55048 9.34979 2.00879 8.76211 2.03945 8.15883C2.07011 7.55034 2.5607 7.12908 3.3528 7.11868C4.55884 7.09788 5.76999 7.09268 6.98114 7.11868C7.82946 7.13428 8.23829 7.49313 8.26895 8.15883C8.29961 8.85052 7.87034 9.33939 7.06291 9.4122C6.42412 9.46421 5.78021 9.4174 5.13631 9.4226Z" fill="black"/>
<path d="M5.92836 11.9556C6.48028 12.0076 6.92488 12.0128 7.34903 12.1012C7.91628 12.2156 8.24334 12.6057 8.26378 13.2089C8.28423 13.781 7.99805 14.2595 7.46657 14.3063C6.45473 14.3895 5.42244 14.4051 4.42081 14.2699C4.13974 14.2335 3.73603 13.5938 3.74114 13.2349C3.74625 12.8709 4.10908 12.356 4.45147 12.1948C4.91651 11.9712 5.5042 12.0128 5.92836 11.9556Z" fill="black"/>
</svg>
