<svg width="17" height="18" viewBox="0 0 17 18" fill="none" xmlns="http://www.w3.org/2000/svg">
<path d="M12.0066 3.62457L13.8754 5.49254L12.0066 3.62457ZM13.2083 1.97897L8.15505 7.03226C7.89395 7.29299 7.71588 7.62519 7.64328 7.98697L7.17651 10.3235L9.51301 9.85582C9.87478 9.78346 10.2065 9.60611 10.4677 9.34493L15.521 4.29164C15.6729 4.13979 15.7933 3.95951 15.8755 3.76111C15.9577 3.5627 16 3.35006 16 3.13531C16 2.92055 15.9577 2.70791 15.8755 2.5095C15.7933 2.3111 15.6729 2.13082 15.521 1.97897C15.3692 1.82712 15.1889 1.70666 14.9905 1.62448C14.7921 1.5423 14.5794 1.5 14.3647 1.5C14.1499 1.5 13.9373 1.5423 13.7389 1.62448C13.5405 1.70666 13.3602 1.82712 13.2083 1.97897V1.97897Z" stroke="black" stroke-width="1.5" stroke-linecap="round" stroke-linejoin="round"/>
<path d="M14.2354 12.0882V14.7353C14.2354 15.2033 14.0495 15.6522 13.7186 15.9831C13.3876 16.3141 12.9387 16.5 12.4707 16.5H2.76472C2.29669 16.5 1.84783 16.3141 1.51688 15.9831C1.18593 15.6522 1 15.2033 1 14.7353V5.02931C1 4.56128 1.18593 4.11241 1.51688 3.78146C1.84783 3.45051 2.29669 3.26459 2.76472 3.26459H5.41181" stroke="black" stroke-width="1.5" stroke-linecap="round" stroke-linejoin="round"/>
</svg>
