<svg width="24" height="25" viewBox="0 0 24 25" fill="none" xmlns="http://www.w3.org/2000/svg">
<path fill-rule="evenodd" clip-rule="evenodd" d="M24 12.9814C24 19.6089 18.6274 24.9814 12 24.9814C5.37258 24.9814 0 19.6089 0 12.9814C0 6.35403 5.37258 0.981445 12 0.981445C18.6274 0.981445 24 6.35403 24 12.9814ZM6.66667 8.92589C6.54394 8.92589 6.44444 9.02538 6.44444 9.14811V17.1481C6.44444 17.2708 6.54394 17.3703 6.66667 17.3703H17.3333C17.4561 17.3703 17.5556 17.2708 17.5556 17.1481V9.14811C17.5556 9.02538 17.4561 8.92589 17.3333 8.92589H6.66667ZM5.55556 9.14811C5.55556 8.53446 6.05302 8.037 6.66667 8.037H17.3333C17.947 8.037 18.4444 8.53446 18.4444 9.14811V17.1481C18.4444 17.7618 17.947 18.2592 17.3333 18.2592H6.66667C6.05302 18.2592 5.55556 17.7618 5.55556 17.1481V9.14811ZM7.74653 9.61164C7.5423 9.47549 7.26636 9.53068 7.1302 9.73491C6.99404 9.93915 7.04923 10.2151 7.25347 10.3512L11.7535 13.3512L12 13.5156L12.2465 13.3512L16.7465 10.3512C16.9508 10.2151 17.006 9.93915 16.8698 9.73491C16.7336 9.53068 16.4577 9.47549 16.2535 9.61164L12 12.4473L7.74653 9.61164Z" fill="black"/>
</svg>
