<svg width="24" height="24" viewBox="0 0 24 24" fill="none" xmlns="http://www.w3.org/2000/svg">
    <path d="M7.51598 13.656L4.87898 16.293C3.90798 15.65 2.58798 15.756 1.73298 16.611C0.756977 17.587 0.756977 19.17 1.73298 20.147C2.13298 20.547 2.63498 20.774 3.15498 20.846C3.22698 21.366 3.45398 21.868 3.85398 22.268C4.82998 23.244 6.41298 23.244 7.38998 22.268C8.24498 21.413 8.35098 20.092 7.70798 19.122L10.345 16.485" stroke="white" stroke-width="2" stroke-linecap="round" stroke-linejoin="round"/>
    <path d="M22.668 9.00898L18.425 13.252C16.304 15.373 12.739 14.695 10.647 16.787C9.93996 16.08 7.11096 13.251 7.11096 13.251C7.11096 13.251 7.99496 14.135 7.11096 13.251C9.20296 11.159 8.52496 7.59398 10.646 5.47298L14.889 1.22998" stroke="white" stroke-width="2" stroke-linecap="round" stroke-linejoin="round"/>
    <path d="M17.7219 6.891C20.0669 9.236 21.8869 9.789 22.6679 9.008C23.4489 8.227 22.8959 6.408 20.5509 4.062C18.2059 1.716 15.6709 0.448 14.8899 1.23C14.1089 2.012 15.3769 4.546 17.7219 6.891Z" stroke="white" stroke-width="2" stroke-linecap="round" stroke-linejoin="round"/>
    </svg>
    