<svg width="30" height="32" viewBox="0 0 30 32" fill="none" xmlns="http://www.w3.org/2000/svg">
<path d="M20.8189 0.99176L20.0601 1.82336C18.3611 3.69359 16.9604 4.52981 15.7946 5.07689C14.6287 5.6228 13.6491 5.78589 12.6868 6.52264C11.6609 7.30913 10.17 8.81734 9.54198 11.5099C8.1957 11.8037 7.21027 12.3195 6.43303 12.9915C5.66505 13.6554 5.08675 14.4107 4.37428 15.233C4.36849 15.2423 4.37775 15.2596 4.37428 15.2689C3.35184 16.444 2.45778 17.7093 0.722878 18.3778L0 18.667V31.0276H22.0483C23.3125 30.9594 24.1892 30.0838 24.7224 29.2198C25.2545 28.357 25.5494 27.4225 25.6986 26.6545C26.0826 24.6975 26.7823 19.0637 26.7823 19.0637L26.8193 18.9561V18.8474C26.7823 18.0655 26.4608 17.4017 26.0594 16.7863L27.3606 12.9198L29.4217 9.81087L30 8.97927L29.2401 8.2934L21.6505 1.71464L20.8189 0.99176ZM20.8917 4.17242L26.9269 9.41415L25.3366 11.7621L25.229 11.8719L25.192 12.0524L24.1441 15.1602C23.597 14.9346 23.0338 14.7762 22.4092 14.7993H22.3363L15.0359 14.8352H13.8792V19.317C13.7173 20.5777 13.0164 21.0658 12.1443 21.4139C11.8552 21.5307 11.8193 21.4671 11.566 21.5215V14.8005C11.3764 10.5129 12.9031 9.27883 14.0967 8.36627C14.4263 8.11297 15.3921 7.82035 16.7708 7.17381C17.9227 6.63136 19.3546 5.65981 20.8917 4.17358V4.17242ZM9.3257 14.1123C9.32107 14.3748 9.23895 14.5599 9.25283 14.8352V24.088H10.4094C10.4094 24.088 11.647 24.0741 12.9759 23.5455C14.3037 23.017 15.9079 21.7794 16.1925 19.6061V17.1484L22.4092 17.1125H22.4451C22.9528 17.0847 23.4508 17.2592 23.8302 17.5978C24.2095 17.9364 24.4393 18.4115 24.4691 18.9191C24.4645 18.9376 24.4113 19.3667 24.3974 19.4616H19.6623V21.7748H24.1083C23.9857 22.6688 23.8735 23.2298 23.7462 24.088H19.6623V26.4012H23.3854C23.2487 26.9608 23.0292 27.4968 22.7342 27.9915C22.4185 28.5062 22.1467 28.7005 21.9038 28.7144H2.31321V20.0757C4.18806 19.081 5.35392 17.6503 6.10803 16.7875C6.88989 15.8923 7.42656 15.2145 7.95165 14.7634C8.29517 14.4697 8.83299 14.302 9.3257 14.1123Z" fill="black"/>
</svg>
