<svg width="55" height="24" viewBox="0 0 55 24" fill="none" xmlns="http://www.w3.org/2000/svg">
<rect width="55" height="24" rx="12" fill="#73CF11"/>
<path d="M22 11.5665C22 15.4537 18.8644 18.5969 15 18.5969C14.4458 18.5969 13.9143 18.5361 13.398 18.4071C12.5933 19.0144 11.3937 19.5687 9.72343 19.4472C9.30586 19.4168 9.32104 19.1359 9.57918 19.0296C10.7256 18.5665 11.295 17.9895 11.538 17.6782C9.41974 16.4635 8 14.1858 8 11.5665C8 7.68689 11.1356 4.53613 15 4.53613C18.8644 4.53613 22 7.68689 22 11.5665Z" fill="white"/>
<path d="M13.6984 13.4951L11.8763 11.673L11.2559 12.2891L13.6984 14.7317L18.9419 9.48818L18.3258 8.87207L13.6984 13.4951Z" fill="#73CF11"/>
<path d="M33.1641 9.69238C33.1641 10.1755 33.0433 10.6038 32.8018 10.9775C32.5602 11.3512 32.2275 11.6497 31.8037 11.873C32.2868 12.1055 32.6696 12.4268 32.9521 12.8369C33.2347 13.2425 33.376 13.721 33.376 14.2725C33.376 15.1566 33.0752 15.8561 32.4736 16.3711C31.8721 16.8815 31.054 17.1367 30.0195 17.1367C28.985 17.1367 28.1647 16.8792 27.5586 16.3643C26.9525 15.8493 26.6494 15.152 26.6494 14.2725C26.6494 13.721 26.7907 13.2402 27.0732 12.8301C27.3558 12.4199 27.7363 12.1009 28.2148 11.873C27.791 11.6497 27.4583 11.3512 27.2168 10.9775C26.9798 10.6038 26.8613 10.1755 26.8613 9.69238C26.8613 8.84473 27.1439 8.17025 27.709 7.66895C28.2741 7.16309 29.042 6.91016 30.0127 6.91016C30.9788 6.91016 31.7445 7.16081 32.3096 7.66211C32.8792 8.15885 33.1641 8.83561 33.1641 9.69238ZM31.3936 14.1289C31.3936 13.696 31.2682 13.3496 31.0176 13.0898C30.7669 12.8301 30.4297 12.7002 30.0059 12.7002C29.5866 12.7002 29.2516 12.8301 29.001 13.0898C28.7503 13.3451 28.625 13.6914 28.625 14.1289C28.625 14.5527 28.748 14.8945 28.9941 15.1543C29.2402 15.4141 29.582 15.5439 30.0195 15.5439C30.4479 15.5439 30.7829 15.4186 31.0244 15.168C31.2705 14.9173 31.3936 14.571 31.3936 14.1289ZM31.1885 9.78809C31.1885 9.40072 31.0859 9.09082 30.8809 8.8584C30.6758 8.62142 30.3864 8.50293 30.0127 8.50293C29.6436 8.50293 29.3564 8.61686 29.1514 8.84473C28.9463 9.07259 28.8438 9.38704 28.8438 9.78809C28.8438 10.1846 28.9463 10.5036 29.1514 10.7451C29.3564 10.9867 29.6458 11.1074 30.0195 11.1074C30.3932 11.1074 30.6803 10.9867 30.8809 10.7451C31.0859 10.5036 31.1885 10.1846 31.1885 9.78809ZM34.9004 16.0293C34.9004 15.7148 35.0052 15.4596 35.2148 15.2637C35.429 15.0677 35.6956 14.9697 36.0146 14.9697C36.3382 14.9697 36.6048 15.0677 36.8145 15.2637C37.0286 15.4596 37.1357 15.7148 37.1357 16.0293C37.1357 16.3392 37.0309 16.5921 36.8213 16.7881C36.6117 16.9795 36.3428 17.0752 36.0146 17.0752C35.6911 17.0752 35.4245 16.9795 35.2148 16.7881C35.0052 16.5921 34.9004 16.3392 34.9004 16.0293ZM39.084 12.1055L39.6582 7.04688H45.2363V8.69434H41.2783L41.0322 10.834C41.5016 10.5833 42.0007 10.458 42.5293 10.458C43.4772 10.458 44.2201 10.752 44.7578 11.3398C45.2956 11.9277 45.5645 12.7503 45.5645 13.8076C45.5645 14.4502 45.4277 15.0267 45.1543 15.5371C44.8854 16.043 44.498 16.4372 43.9922 16.7197C43.4863 16.9977 42.8893 17.1367 42.2012 17.1367C41.5996 17.1367 41.0413 17.016 40.5264 16.7744C40.0114 16.5283 39.6035 16.1842 39.3027 15.7422C39.0065 15.3001 38.8493 14.7965 38.8311 14.2314H40.7861C40.8271 14.6462 40.9707 14.9697 41.2168 15.2021C41.4674 15.43 41.7933 15.5439 42.1943 15.5439C42.641 15.5439 42.985 15.3844 43.2266 15.0654C43.4681 14.7419 43.5889 14.2861 43.5889 13.6982C43.5889 13.1331 43.4499 12.7002 43.1719 12.3994C42.8939 12.0986 42.4997 11.9482 41.9893 11.9482C41.5199 11.9482 41.1393 12.0713 40.8477 12.3174L40.6562 12.4951L39.084 12.1055Z" fill="white"/>
</svg>
