<svg width="24" height="17" viewBox="0 0 24 17" fill="none" xmlns="http://www.w3.org/2000/svg">
<path d="M23.3746 0.587891H0.626465V15.7008H23.3746V0.587891Z" fill="white"/>
<path d="M23.5511 0.387695H18.0068V16.0966H23.5511V0.387695Z" fill="#B7EDFF"/>
<path d="M19.3931 3.16016H4.60825C3.84274 3.16016 3.22217 3.78072 3.22217 4.54623C3.22217 5.31174 3.84274 5.93231 4.60825 5.93231H19.3931C20.1586 5.93231 20.7792 5.31174 20.7792 4.54623C20.7792 3.78072 20.1586 3.16016 19.3931 3.16016Z" fill="#56CCF2"/>
<path d="M21.0318 3.46973H19.1973V5.30423H21.0318V3.46973Z" fill="#7BABF3"/>
<path d="M23.3741 16.1445H0.626162C0.381178 16.1445 0.182617 15.946 0.182617 15.701V0.588076C0.182617 0.343092 0.381178 0.144531 0.626162 0.144531H23.3741C23.6191 0.144531 23.8177 0.343092 23.8177 0.588076V15.701C23.8177 15.9458 23.6191 16.1445 23.3741 16.1445ZM1.06971 15.2574H22.9306V1.03162H1.06971V15.2574Z" fill="#2B74E4"/>
<path d="M20.9056 5.93231H4.01975C3.57922 5.93231 3.22217 5.73006 3.22217 5.48053V3.61194C3.22217 3.36241 3.57922 3.16016 4.01975 3.16016H20.9056C21.3462 3.16016 21.7032 3.36241 21.7032 3.61194V5.48053C21.7032 5.73006 21.3462 5.93231 20.9056 5.93231ZM3.89355 5.02874H21.0324V4.06373H3.89355V5.02874Z" fill="#2B74E4"/>
<rect x="3.22217" y="7.78027" width="18.481" height="0.924052" rx="0.462026" fill="#2B74E4"/>
<rect x="3.22217" y="10.5518" width="13.8608" height="0.924052" rx="0.462026" fill="#2B74E4"/>
<rect x="3.22217" y="12.4004" width="10.1646" height="0.924052" rx="0.462026" fill="#2B74E4"/>
</svg>
