<svg width="24" height="17" viewBox="0 0 24 17" fill="none" xmlns="http://www.w3.org/2000/svg">
<path d="M23.3736 0.587891H0.625488V15.7008H23.3736V0.587891Z" fill="white"/>
<path d="M9.16729 13.6242H2.96875V11.28C2.96875 10.4231 3.66349 9.72852 4.52042 9.72852H7.61592C8.47285 9.72852 9.16744 10.4233 9.16744 11.28V13.6242H9.16729Z" fill="#56CCF2"/>
<path d="M23.3754 0.587891H21.0327V15.7008H23.3754V0.587891Z" fill="#B7EDFF"/>
<path d="M21.032 5.31836H11.6416V7.15286H21.032V5.31836Z" fill="#56CCF2"/>
<path d="M21.0318 5.31836H19.1973V7.15286H21.0318V5.31836Z" fill="#7BABF3"/>
<path d="M7.61531 9.72754H6.16699C7.02392 9.72754 7.71851 10.4223 7.71851 11.2791V13.6232H9.16669V11.2791C9.16683 10.4221 8.47224 9.72754 7.61531 9.72754Z" fill="#084DB7"/>
<path d="M6.06795 8.45304C5.26809 8.45304 4.61963 7.80457 4.61963 7.00471V6.23235C4.61963 5.43249 5.26809 4.78418 6.06795 4.78418C6.86781 4.78418 7.51612 5.43264 7.51612 6.23235V7.00471C7.51627 7.80472 6.86781 8.45304 6.06795 8.45304Z" fill="white"/>
<path d="M23.3741 16.1445H0.626162C0.381178 16.1445 0.182617 15.946 0.182617 15.701V0.588076C0.182617 0.343092 0.381178 0.144531 0.626162 0.144531H23.3741C23.6191 0.144531 23.8177 0.343092 23.8177 0.588076V15.701C23.8177 15.9458 23.6191 16.1445 23.3741 16.1445ZM1.06971 15.2574H22.9306V1.03162H1.06971V15.2574Z" fill="#2B74E4"/>
<path d="M6.06799 8.8976C5.02492 8.8976 4.17627 8.04895 4.17627 7.00588V6.23352C4.17627 5.19045 5.02492 4.3418 6.06799 4.3418C7.11106 4.3418 7.95971 5.19045 7.95971 6.23352V7.00588C7.95986 8.04895 7.11121 8.8976 6.06799 8.8976ZM6.06799 5.22874C5.514 5.22874 5.06336 5.67938 5.06336 6.23337V7.00573C5.06336 7.55972 5.514 8.01036 6.06799 8.01036C6.62198 8.01036 7.07262 7.55972 7.07262 7.00573V6.23337C7.07277 5.67938 6.62212 5.22874 6.06799 5.22874Z" fill="#2B74E4"/>
<path d="M9.16748 14.0671H2.96894C2.72395 14.0671 2.52539 13.8685 2.52539 13.6235V11.2794C2.52539 10.1793 3.42046 9.28418 4.5206 9.28418H7.61611C8.71624 9.28418 9.61132 10.1793 9.61132 11.2794V13.6235C9.61102 13.8685 9.41246 14.0671 9.16748 14.0671ZM3.41248 13.18H8.72408V11.2794C8.72408 10.6685 8.22701 10.1713 7.61596 10.1713H4.52046C3.90955 10.1713 3.41233 10.6683 3.41233 11.2794V13.18H3.41248Z" fill="#2B74E4"/>
<path d="M21.0313 7.59659H11.6408C11.3958 7.59659 11.1973 7.39803 11.1973 7.15305V5.31855C11.1973 5.07356 11.3958 4.875 11.6408 4.875H21.0313C21.2762 4.875 21.4748 5.07356 21.4748 5.31855V7.15305C21.4748 7.39803 21.2762 7.59659 21.0313 7.59659ZM12.0845 6.7095H20.5879V5.76209H12.0845V6.7095Z" fill="#2B74E4"/>
<path d="M21.0313 9.57459H11.6408C11.3958 9.57459 11.1973 9.37603 11.1973 9.13104C11.1973 8.88606 11.3958 8.6875 11.6408 8.6875H21.0313C21.2762 8.6875 21.4748 8.88606 21.4748 9.13104C21.4748 9.37603 21.2762 9.57459 21.0313 9.57459Z" fill="#2B74E4"/>
<path d="M21.0313 11.5541H11.6408C11.3958 11.5541 11.1973 11.3555 11.1973 11.1105C11.1973 10.8656 11.3958 10.667 11.6408 10.667H21.0313C21.2762 10.667 21.4748 10.8656 21.4748 11.1105C21.4748 11.3555 21.2762 11.5541 21.0313 11.5541Z" fill="#2B74E4"/>
<path d="M16.337 13.5346H11.6418C11.3968 13.5346 11.1982 13.336 11.1982 13.091C11.1982 12.846 11.3968 12.6475 11.6418 12.6475H16.337C16.582 12.6475 16.7806 12.846 16.7806 13.091C16.7806 13.336 16.5818 13.5346 16.337 13.5346Z" fill="#2B74E4"/>
</svg>
