<svg width="30" height="30" viewBox="0 0 30 30" fill="none" xmlns="http://www.w3.org/2000/svg">
<path d="M20.7327 10.3664C21.8777 10.3664 22.806 9.43812 22.806 8.29309C22.806 7.14805 21.8777 6.21982 20.7327 6.21982C19.5877 6.21982 18.6594 7.14805 18.6594 8.29309C18.6594 9.43812 19.5877 10.3664 20.7327 10.3664Z" fill="black"/>
<path d="M29.6768 9.71939C28.8539 7.55464 27.5998 5.57964 25.9905 3.91424C24.3392 2.33096 22.3803 1.10379 20.2351 0.30882C19.3886 -0.0137566 18.467 -0.0853838 17.5808 0.102523C16.6946 0.290429 15.8813 0.729898 15.2385 1.36826L10.6359 5.94812C9.9688 6.61548 9.51855 7.46855 9.34396 8.39585C9.16938 9.32315 9.27858 10.2815 9.65729 11.1458C9.89779 11.689 10.1611 12.2198 10.4431 12.7339L0.344163 22.8349C0.235076 22.9437 0.148525 23.073 0.0894684 23.2153C0.0304114 23.3576 8.18082e-06 23.5101 0 23.6642L0 28.8204C0 29.1311 0.123415 29.4291 0.343094 29.6487C0.562774 29.8684 0.860724 29.9918 1.1714 29.9918H6.32762C6.6383 29.9918 6.93624 29.8684 7.15592 29.6487C7.3756 29.4291 7.49902 29.1311 7.49902 28.8204V26.7098H9.60961C9.92028 26.7098 10.2182 26.5864 10.4379 26.3668C10.6576 26.1471 10.781 25.8491 10.781 25.5384V23.4299H12.8895C13.2002 23.4299 13.4981 23.3065 13.7178 23.0868C13.9375 22.8672 14.0609 22.5692 14.0609 22.2585C14.0609 21.9479 13.9375 21.6499 13.7178 21.4302C13.4981 21.2106 13.2002 21.0871 12.8895 21.0871H9.60961C9.29893 21.0871 9.00098 21.2106 8.7813 21.4302C8.56162 21.6499 8.43821 21.9479 8.43821 22.2585V24.367H6.32762C6.01695 24.367 5.719 24.4905 5.49932 24.7101C5.27964 24.9298 5.15622 25.2278 5.15622 25.5384V27.6428H2.3428V24.1494L12.7361 13.7519C12.9219 13.5665 13.04 13.3242 13.0716 13.0636C13.1032 12.8031 13.0464 12.5395 12.9103 12.3151C12.4961 11.6309 12.1256 10.9211 11.8011 10.19C11.613 9.7599 11.559 9.28303 11.6463 8.82176C11.7336 8.36049 11.9581 7.9363 12.2903 7.60466L16.893 3.0248C17.2158 2.70434 17.6241 2.4838 18.0691 2.38966C18.5141 2.29551 18.9768 2.33176 19.4017 2.49405C21.2403 3.17574 22.9196 4.2271 24.336 5.58322C25.7146 7.0173 26.7887 8.71553 27.4936 10.5757C27.6597 10.9981 27.6985 11.46 27.6053 11.9043C27.5121 12.3486 27.291 12.7559 26.9691 13.076L22.3125 17.7119C21.9808 18.0418 21.5585 18.2656 21.0993 18.355C20.64 18.4443 20.1646 18.3951 19.7334 18.2136C19.003 17.9103 18.2973 17.5506 17.6228 17.1376C17.3582 16.9802 17.0423 16.9334 16.7434 17.0071C16.4446 17.0809 16.1868 17.2693 16.0257 17.5317C15.8647 17.7941 15.8135 18.1093 15.883 18.4091C15.9526 18.709 16.1374 18.9694 16.3975 19.1341C17.176 19.6115 17.9905 20.0274 18.8336 20.3781C19.6925 20.7385 20.6392 20.8353 21.5533 20.6563C22.4674 20.4772 23.3075 20.0304 23.967 19.3725L28.6236 14.7367C29.2694 14.0943 29.7133 13.277 29.9004 12.3855C30.0875 11.494 30.0098 10.5673 29.6768 9.71939Z" fill="black"/>
</svg>
