<svg width="32" height="34" viewBox="0 0 32 34" fill="none" xmlns="http://www.w3.org/2000/svg">
<path d="M4.95211 33.997C4.60854 33.997 4.2553 33.9834 3.89241 33.9564C2.932 33.8839 2.96244 33.2395 3.56913 32.9909C5.31673 32.3805 6.86609 31.3076 8.05226 29.8864C4.54244 27.8776 1.92351 24.6143 0.72223 20.7529C-0.479047 16.8914 -0.17355 12.7183 1.57727 9.07295C3.32809 5.42757 6.39435 2.58042 10.1593 1.10417C13.9242 -0.372075 18.1085 -0.367907 21.8704 1.11584C25.6324 2.59959 28.6929 5.45283 30.4365 9.10165C32.18 12.7505 32.4772 16.9242 31.2683 20.7832C30.0593 24.6423 27.4339 27.9005 23.9201 29.9022C20.4063 31.904 16.2649 32.5011 12.3288 31.5731C10.2144 33.1719 7.62954 34.0244 4.97893 33.997H4.95211ZM10.4203 11.0088C8.83363 22.8309 8.83363 23.0353 8.83363 23.6521C8.8432 23.9539 8.96367 24.2416 9.17199 24.46C9.38037 24.6786 9.6619 24.8126 9.96292 24.8365H21.7241C21.8878 24.8435 22.0511 24.8164 22.2037 24.7569C22.3564 24.6975 22.495 24.607 22.6109 24.4911C22.7268 24.3753 22.8172 24.2366 22.8767 24.084C22.9362 23.9313 22.9633 23.768 22.9563 23.6043C22.9462 23.4999 22.936 23.405 22.9317 23.3107C22.8592 22.5199 22.7824 21.6936 21.2696 11.011C21.2196 10.7522 20.8065 9.62295 19.0697 9.72733C19.0001 8.96763 18.6543 8.25983 18.0977 7.73809C17.5412 7.21628 16.8127 6.91671 16.0501 6.89613C15.652 6.86829 15.2525 6.91968 14.8744 7.04718C14.4963 7.17475 14.1473 7.37597 13.8475 7.6393C13.5477 7.90256 13.303 8.22264 13.1277 8.581C12.9524 8.93943 12.8498 9.32903 12.826 9.72733C12.7535 9.72733 12.6869 9.72733 12.6202 9.72733C10.9509 9.72226 10.5682 10.3674 10.4203 11.0088ZM14.1445 9.72515C14.2055 9.27583 14.4273 8.86383 14.7688 8.56549C15.1103 8.26722 15.5484 8.10283 16.0019 8.10283C16.4553 8.10283 16.8934 8.26722 17.2349 8.56549C17.5764 8.86383 17.7982 9.27583 17.8593 9.72515H14.1445Z" fill="white"/>
</svg>
