<svg width="24" height="25" viewBox="0 0 24 25" fill="none" xmlns="http://www.w3.org/2000/svg">
<rect y="0.144531" width="24" height="24" rx="12" fill="#FFC000"/>
<path d="M15.052 13.5445C15.108 13.0825 15.15 12.6205 15.15 12.1445C15.15 11.6685 15.108 11.2065 15.052 10.7445H17.418C17.53 11.1925 17.6 11.6615 17.6 12.1445C17.6 12.6275 17.53 13.0965 17.418 13.5445H15.052ZM13.813 17.4365C14.233 16.6595 14.555 15.8195 14.779 14.9445H16.844C16.1658 16.1123 15.0899 16.9969 13.813 17.4365ZM13.638 13.5445H10.362C10.292 13.0825 10.25 12.6205 10.25 12.1445C10.25 11.6685 10.292 11.1995 10.362 10.7445H13.638C13.701 11.1995 13.75 11.6685 13.75 12.1445C13.75 12.6205 13.701 13.0825 13.638 13.5445ZM12 17.7165C11.419 16.8765 10.95 15.9455 10.663 14.9445H13.337C13.05 15.9455 12.581 16.8765 12 17.7165ZM9.2 9.34453H7.156C7.8272 8.17358 8.90236 7.28757 10.18 6.85253C9.76 7.62953 9.445 8.46953 9.2 9.34453ZM7.156 14.9445H9.2C9.445 15.8195 9.76 16.6595 10.18 17.4365C8.90504 16.9967 7.83139 16.1119 7.156 14.9445ZM6.582 13.5445C6.47 13.0965 6.4 12.6275 6.4 12.1445C6.4 11.6615 6.47 11.1925 6.582 10.7445H8.948C8.892 11.2065 8.85 11.6685 8.85 12.1445C8.85 12.6205 8.892 13.0825 8.948 13.5445H6.582ZM12 6.56553C12.581 7.40553 13.05 8.34353 13.337 9.34453H10.663C10.95 8.34353 11.419 7.40553 12 6.56553ZM16.844 9.34453H14.779C14.5599 8.47755 14.2355 7.64066 13.813 6.85253C15.101 7.29353 16.172 8.18253 16.844 9.34453ZM12 5.14453C8.129 5.14453 5 8.29453 5 12.1445C5 14.001 5.7375 15.7815 7.05025 17.0943C7.70026 17.7443 8.47194 18.2599 9.32122 18.6117C10.1705 18.9635 11.0807 19.1445 12 19.1445C13.8565 19.1445 15.637 18.407 16.9497 17.0943C18.2625 15.7815 19 14.001 19 12.1445C19 11.2253 18.8189 10.315 18.4672 9.46575C18.1154 8.61647 17.5998 7.84479 16.9497 7.19478C16.2997 6.54477 15.5281 6.02916 14.6788 5.67737C13.8295 5.32559 12.9193 5.14453 12 5.14453Z" fill="white"/>
</svg>
