<svg width="22" height="16" viewBox="0 0 22 16" fill="none" xmlns="http://www.w3.org/2000/svg">
<path d="M11 0.490723C6 0.490723 1.73 3.60072 0 7.99072C1.73 12.3807 6 15.4907 11 15.4907C16 15.4907 20.27 12.3807 22 7.99072C20.27 3.60072 16 0.490723 11 0.490723ZM11 12.9907C8.24 12.9907 6 10.7507 6 7.99072C6 5.23072 8.24 2.99072 11 2.99072C13.76 2.99072 16 5.23072 16 7.99072C16 10.7507 13.76 12.9907 11 12.9907ZM11 4.99072C9.34 4.99072 8 6.33072 8 7.99072C8 9.65072 9.34 10.9907 11 10.9907C12.66 10.9907 14 9.65072 14 7.99072C14 6.33072 12.66 4.99072 11 4.99072Z" fill="#E4E4E4"/>
</svg>
