<svg width="24" height="25" viewBox="0 0 24 25" fill="none" xmlns="http://www.w3.org/2000/svg">
<path d="M12 0.981445C5.37258 0.981445 0 6.35403 0 12.9814C0 19.6089 5.37258 24.9814 12 24.9814C18.6274 24.9814 24 19.6089 24 12.9814C24 6.35403 18.6274 0.981445 12 0.981445ZM7.6875 5.74805C7.93474 5.73347 8.15822 5.88125 8.32764 6.14355L9.96826 9.25487C10.141 9.62355 10.0428 10.0183 9.78516 10.2817L9.0337 11.0332C8.98732 11.0967 8.9568 11.1683 8.95606 11.247C9.24424 12.3625 10.1184 13.3915 10.8897 14.0991C11.6609 14.8067 12.4899 15.7647 13.5659 15.9917C13.6989 16.0288 13.8619 16.0421 13.957 15.9536L14.8301 15.0645C15.1314 14.836 15.5674 14.7253 15.8892 14.9121H15.9038L18.8642 16.6597C19.2988 16.9321 19.3438 17.4586 19.0327 17.7788L16.9937 19.8018C16.6925 20.1106 16.2925 20.2144 15.9038 20.2148C14.1849 20.1633 12.5607 19.3197 11.2266 18.4526C9.0368 16.8596 7.02814 14.8837 5.7671 12.4966C5.28346 11.4956 4.71532 10.2184 4.76954 9.1011C4.77438 8.68079 4.8881 8.26901 5.1841 7.99809L7.22316 5.95903C7.382 5.82387 7.53914 5.75681 7.6875 5.74805Z" fill="black"/>
</svg>
