<svg width="44" height="44" viewBox="0 0 44 44" fill="none" xmlns="http://www.w3.org/2000/svg">
<rect width="44" height="44" rx="22" fill="#E4E4E4"/>
<path d="M28 26.12C27.24 26.12 26.56 26.42 26.04 26.89L18.91 22.74C18.96 22.51 19 22.28 19 22.04C19 21.8 18.96 21.57 18.91 21.34L25.96 17.23C26.5 17.73 27.21 18.04 28 18.04C29.66 18.04 31 16.7 31 15.04C31 13.38 29.66 12.04 28 12.04C26.34 12.04 25 13.38 25 15.04C25 15.28 25.04 15.51 25.09 15.74L18.04 19.85C17.5 19.35 16.79 19.04 16 19.04C14.34 19.04 13 20.38 13 22.04C13 23.7 14.34 25.04 16 25.04C16.79 25.04 17.5 24.73 18.04 24.23L25.16 28.39C25.11 28.6 25.08 28.82 25.08 29.04C25.08 30.65 26.39 31.96 28 31.96C29.61 31.96 30.92 30.65 30.92 29.04C30.92 27.43 29.61 26.12 28 26.12ZM28 14.04C28.55 14.04 29 14.49 29 15.04C29 15.59 28.55 16.04 28 16.04C27.45 16.04 27 15.59 27 15.04C27 14.49 27.45 14.04 28 14.04ZM16 23.04C15.45 23.04 15 22.59 15 22.04C15 21.49 15.45 21.04 16 21.04C16.55 21.04 17 21.49 17 22.04C17 22.59 16.55 23.04 16 23.04ZM28 30.06C27.45 30.06 27 29.61 27 29.06C27 28.51 27.45 28.06 28 28.06C28.55 28.06 29 28.51 29 29.06C29 29.61 28.55 30.06 28 30.06Z" fill="black"/>
</svg>
