<svg width="18" height="19" viewBox="0 0 18 19" fill="none" xmlns="http://www.w3.org/2000/svg">
<path d="M12.5 11.5195H11.71L11.43 11.2495C12.41 10.1095 13 8.62953 13 7.01953C13 3.42953 10.09 0.519531 6.5 0.519531C2.91 0.519531 0 3.42953 0 7.01953C0 10.6095 2.91 13.5195 6.5 13.5195C8.11 13.5195 9.59 12.9295 10.73 11.9495L11 12.2295V13.0195L16 18.0095L17.49 16.5195L12.5 11.5195ZM6.5 11.5195C4.01 11.5195 2 9.50953 2 7.01953C2 4.52953 4.01 2.51953 6.5 2.51953C8.99 2.51953 11 4.52953 11 7.01953C11 9.50953 8.99 11.5195 6.5 11.5195Z" fill="white"/>
</svg>
