<svg width="52" height="52" viewBox="0 0 52 52" fill="none" xmlns="http://www.w3.org/2000/svg">
<g filter="url(#filter0_d)">
<rect x="4" width="44" height="44" rx="22" fill="white"/>
<path d="M32 26.12C31.24 26.12 30.56 26.42 30.04 26.89L22.91 22.74C22.96 22.51 23 22.28 23 22.04C23 21.8 22.96 21.57 22.91 21.34L29.96 17.23C30.5 17.73 31.21 18.04 32 18.04C33.66 18.04 35 16.7 35 15.04C35 13.38 33.66 12.04 32 12.04C30.34 12.04 29 13.38 29 15.04C29 15.28 29.04 15.51 29.09 15.74L22.04 19.85C21.5 19.35 20.79 19.04 20 19.04C18.34 19.04 17 20.38 17 22.04C17 23.7 18.34 25.04 20 25.04C20.79 25.04 21.5 24.73 22.04 24.23L29.16 28.39C29.11 28.6 29.08 28.82 29.08 29.04C29.08 30.65 30.39 31.96 32 31.96C33.61 31.96 34.92 30.65 34.92 29.04C34.92 27.43 33.61 26.12 32 26.12ZM32 14.04C32.55 14.04 33 14.49 33 15.04C33 15.59 32.55 16.04 32 16.04C31.45 16.04 31 15.59 31 15.04C31 14.49 31.45 14.04 32 14.04ZM20 23.04C19.45 23.04 19 22.59 19 22.04C19 21.49 19.45 21.04 20 21.04C20.55 21.04 21 21.49 21 22.04C21 22.59 20.55 23.04 20 23.04ZM32 30.06C31.45 30.06 31 29.61 31 29.06C31 28.51 31.45 28.06 32 28.06C32.55 28.06 33 28.51 33 29.06C33 29.61 32.55 30.06 32 30.06Z" fill="black"/>
</g>
<defs>
<filter id="filter0_d" x="0" y="0" width="52" height="52" filterUnits="userSpaceOnUse" color-interpolation-filters="sRGB">
<feFlood flood-opacity="0" result="BackgroundImageFix"/>
<feColorMatrix in="SourceAlpha" type="matrix" values="0 0 0 0 0 0 0 0 0 0 0 0 0 0 0 0 0 0 127 0"/>
<feOffset dy="4"/>
<feGaussianBlur stdDeviation="2"/>
<feColorMatrix type="matrix" values="0 0 0 0 0 0 0 0 0 0 0 0 0 0 0 0 0 0 0.25 0"/>
<feBlend mode="normal" in2="BackgroundImageFix" result="effect1_dropShadow"/>
<feBlend mode="normal" in="SourceGraphic" in2="effect1_dropShadow" result="shape"/>
</filter>
</defs>
</svg>
