<svg width="30" height="31" viewBox="0 0 30 31" fill="none" xmlns="http://www.w3.org/2000/svg">
<path d="M15 30.1667C6.7155 30.1667 0 23.4512 0 15.1667C0 6.88216 6.7155 0.166656 15 0.166656C23.2845 0.166656 30 6.88216 30 15.1667C30 23.4512 23.2845 30.1667 15 30.1667ZM24.5325 21.0947V20.9372C24.5325 19.5542 24.5325 18.9227 23.5545 18.3632C23.2402 18.1849 22.9173 18.0223 22.587 17.8757C22.0365 17.6252 21.672 17.4617 21.18 16.7417C21.1213 16.6562 21.0633 16.5702 21.006 16.4837C20.4885 15.6962 20.115 15.1292 18.693 15.3542C15.8955 15.7982 15.6885 16.2902 15.5655 17.1212L15.546 17.2577C15.3645 18.4727 15.3315 18.8807 15.8385 19.4132C17.736 21.4037 18.873 22.8392 19.218 23.6792C19.386 24.0887 19.818 25.3292 19.521 26.5562C21.3417 25.8309 22.9624 24.6804 24.2475 23.2007C24.4125 22.6397 24.5325 21.9407 24.5325 21.0947ZM15 2.91616C11.5245 2.91616 8.385 4.36516 6.156 6.69016C6.4215 6.87466 6.6525 7.13416 6.8115 7.49116C7.1175 8.17666 7.1175 8.88316 7.1175 9.50866C7.1175 10.0007 7.1175 10.4687 7.275 10.8062C7.491 11.2682 8.424 11.4662 9.2475 11.6372C9.543 11.7002 9.846 11.7632 10.122 11.8397C10.881 12.0497 11.469 12.7322 11.9385 13.2797C12.1335 13.5062 12.423 13.8407 12.5685 13.9247C12.6435 13.8707 12.885 13.6082 13.0035 13.1777C13.0965 12.8477 13.0695 12.5567 12.936 12.3977C12.096 11.4077 12.1425 9.50266 12.402 8.79916C12.81 7.69066 14.085 7.77316 15.018 7.83316C15.366 7.85566 15.693 7.87816 15.939 7.84666C16.872 7.72966 17.16 6.30916 17.3625 6.03166C17.8005 5.43166 19.1415 4.52716 19.9725 3.96916C18.4072 3.27315 16.713 2.91437 15 2.91616Z" fill="black"/>
</svg>
