<svg width="20" height="22" viewBox="0 0 20 22" fill="none" xmlns="http://www.w3.org/2000/svg">
<path d="M9.97615 0.352051C7.7698 0.363577 5.62884 1.1024 3.88496 2.45404C2.14107 3.80569 0.891611 5.69471 0.330147 7.82845C-0.231317 9.96219 -0.0734413 12.2215 0.779316 14.2564C1.63207 16.2914 3.13211 17.9883 5.04703 19.0842C4.31002 19.9728 3.34435 20.6432 2.25423 21.023C1.87618 21.1712 1.86 21.5816 2.45177 21.6148C4.32195 21.7891 6.19015 21.262 7.69337 20.1358C8.44261 20.3071 9.20844 20.3953 9.977 20.3989C12.6354 20.3988 15.1848 19.3426 17.0645 17.4628C18.9442 15.583 20.0001 13.0334 20 10.3751C19.9999 7.71667 18.9437 5.16722 17.0639 3.28754C15.1841 1.40787 12.6345 0.351938 9.97615 0.352051ZM15.1701 8.71512L9.30434 14.5809C9.13555 14.7467 8.90836 14.8397 8.67171 14.8397C8.43505 14.8397 8.20786 14.7467 8.03907 14.5809L5.09641 11.6399C4.97037 11.5131 4.88468 11.3518 4.85013 11.1763C4.81559 11.0009 4.83374 10.8191 4.90229 10.654C4.97085 10.4888 5.08674 10.3476 5.23538 10.2482C5.38402 10.1488 5.55875 10.0956 5.73756 10.0953C5.97706 10.0978 6.2065 10.192 6.37872 10.3584L8.66234 12.6574L13.8869 7.43282L13.9363 7.38344C14.0229 7.30095 14.1251 7.23667 14.2369 7.1944C14.3488 7.15212 14.468 7.13271 14.5875 7.13732C14.7069 7.14192 14.8243 7.17045 14.9326 7.2212C15.0408 7.27196 15.1378 7.34392 15.2178 7.43282C15.3775 7.61122 15.4616 7.8447 15.4524 8.08396C15.4432 8.32322 15.3413 8.54954 15.1684 8.71512H15.1701Z" fill="black"/>
</svg>
