<svg width="24" height="24" viewBox="0 0 24 24" fill="none" xmlns="http://www.w3.org/2000/svg">
<path d="M12 24C5.3724 24 0 18.6276 0 12C0 5.3724 5.3724 0 12 0C18.6276 0 24 5.3724 24 12C24 18.6276 18.6276 24 12 24ZM19.626 16.7424V16.6164C19.626 15.51 19.626 15.0048 18.8436 14.5572C18.5921 14.4146 18.3338 14.2845 18.0696 14.1672C17.6292 13.9668 17.3376 13.836 16.944 13.26C16.897 13.1916 16.8506 13.1228 16.8048 13.0536C16.3908 12.4236 16.092 11.97 14.9544 12.15C12.7164 12.5052 12.5508 12.8988 12.4524 13.5636L12.4368 13.6728C12.2916 14.6448 12.2652 14.9712 12.6708 15.3972C14.1888 16.9896 15.0984 18.138 15.3744 18.81C15.5088 19.1376 15.8544 20.13 15.6168 21.1116C17.0734 20.5314 18.3699 19.611 19.398 18.4272C19.53 17.9784 19.626 17.4192 19.626 16.7424ZM12 2.1996C9.2196 2.1996 6.708 3.3588 4.9248 5.2188C5.1372 5.3664 5.322 5.574 5.4492 5.8596C5.694 6.408 5.694 6.9732 5.694 7.4736C5.694 7.8672 5.694 8.2416 5.82 8.5116C5.9928 8.8812 6.7392 9.0396 7.398 9.1764C7.6344 9.2268 7.8768 9.2772 8.0976 9.3384C8.7048 9.5064 9.1752 10.0524 9.5508 10.4904C9.7068 10.6716 9.9384 10.9392 10.0548 11.0064C10.1148 10.9632 10.308 10.7532 10.4028 10.4088C10.4772 10.1448 10.4556 9.912 10.3488 9.7848C9.6768 8.9928 9.714 7.4688 9.9216 6.906C10.248 6.0192 11.268 6.0852 12.0144 6.1332C12.2928 6.1512 12.5544 6.1692 12.7512 6.144C13.4976 6.0504 13.728 4.914 13.89 4.692C14.2404 4.212 15.3132 3.4884 15.978 3.042C14.7258 2.48519 13.3704 2.19817 12 2.1996Z" fill="black"/>
</svg>
