<svg width="24" height="21" viewBox="0 0 24 21" fill="none" xmlns="http://www.w3.org/2000/svg">
<path d="M7.88001 13.867H20.068C20.214 13.867 20.356 13.8195 20.4725 13.7316C20.5891 13.6437 20.6738 13.5203 20.714 13.38L23.402 3.97101C23.4307 3.87098 23.4357 3.76567 23.4167 3.66338C23.3977 3.56108 23.3552 3.46459 23.2926 3.38151C23.23 3.29842 23.1489 3.23102 23.0558 3.1846C22.9627 3.13818 22.8601 3.11401 22.756 3.11401H6.33001L5.84901 0.952007C5.81566 0.80212 5.73197 0.668178 5.61189 0.572475C5.4918 0.476772 5.34257 0.425082 5.18901 0.426007H1.16101C1.07277 0.426007 0.985381 0.443389 0.90385 0.47716C0.82232 0.510931 0.748239 0.56043 0.685838 0.622831C0.623437 0.685232 0.573938 0.759313 0.540167 0.840844C0.506395 0.922375 0.489014 1.00976 0.489014 1.09801C0.489014 1.18626 0.506395 1.27364 0.540167 1.35517C0.573938 1.4367 0.623437 1.51078 0.685838 1.57318C0.748239 1.63558 0.82232 1.68508 0.90385 1.71885C0.985381 1.75263 1.07277 1.77001 1.16101 1.77001H4.65401L7.08001 12.689C6.65462 12.8732 6.30571 13.1984 6.09204 13.6098C5.87837 14.0211 5.813 14.4936 5.90693 14.9475C6.00087 15.4015 6.24837 15.8092 6.60776 16.102C6.96715 16.3948 7.41645 16.5548 7.88001 16.555H20.068C20.2462 16.555 20.4172 16.4842 20.5432 16.3582C20.6692 16.2322 20.74 16.0612 20.74 15.883C20.74 15.7048 20.6692 15.5339 20.5432 15.4078C20.4172 15.2818 20.2462 15.211 20.068 15.211H7.88101C7.70279 15.211 7.53186 15.1402 7.40584 15.0142C7.27981 14.8882 7.20901 14.7172 7.20901 14.539C7.20901 14.3608 7.27981 14.1899 7.40584 14.0638C7.53186 13.9378 7.70279 13.867 7.88101 13.867H7.88001ZM21.865 4.45801L19.565 12.522H8.42001L6.62801 4.45801H21.865Z" fill="black"/>
<path d="M7.20898 18.571C7.20898 18.9697 7.32722 19.3595 7.54874 19.691C7.77026 20.0225 8.08512 20.2809 8.45349 20.4335C8.82187 20.5861 9.22722 20.626 9.61829 20.5482C10.0094 20.4705 10.3686 20.2785 10.6505 19.9965C10.9325 19.7146 11.1245 19.3554 11.2022 18.9643C11.28 18.5732 11.2401 18.1679 11.0875 17.7995C10.9349 17.4311 10.6765 17.1163 10.345 16.8947C10.0135 16.6732 9.62372 16.555 9.22499 16.555C8.69048 16.5555 8.17801 16.7681 7.80005 17.1461C7.42209 17.524 7.20951 18.0365 7.20898 18.571ZM9.22499 17.899C9.3579 17.899 9.48782 17.9384 9.59833 18.0122C9.70884 18.0861 9.79496 18.1911 9.84583 18.3138C9.89669 18.4366 9.91001 18.5717 9.88408 18.7021C9.85815 18.8324 9.79415 18.9522 9.70017 19.0462C9.60618 19.1402 9.48643 19.2041 9.35608 19.2301C9.22572 19.256 9.09061 19.2427 8.96782 19.1918C8.84503 19.141 8.74007 19.0548 8.66623 18.9443C8.59239 18.8338 8.55298 18.7039 8.55298 18.571C8.55324 18.3928 8.62414 18.2221 8.75011 18.0961C8.87607 17.9701 9.04685 17.8993 9.22499 17.899Z" fill="black"/>
<path d="M16.708 18.571C16.708 18.9697 16.8262 19.3595 17.0478 19.691C17.2693 20.0225 17.5841 20.2809 17.9525 20.4335C18.3209 20.5861 18.7262 20.626 19.1173 20.5482C19.5084 20.4705 19.8676 20.2785 20.1495 19.9965C20.4315 19.7146 20.6235 19.3554 20.7013 18.9643C20.7791 18.5732 20.7391 18.1679 20.5865 17.7995C20.434 17.4311 20.1756 17.1163 19.844 16.8947C19.5125 16.6732 19.1227 16.555 18.724 16.555C18.1895 16.5555 17.677 16.7681 17.2991 17.1461C16.9211 17.524 16.7085 18.0365 16.708 18.571ZM18.724 17.899C18.8569 17.899 18.9868 17.9384 19.0974 18.0122C19.2079 18.0861 19.294 18.1911 19.3448 18.3138C19.3957 18.4366 19.409 18.5717 19.3831 18.7021C19.3572 18.8324 19.2932 18.9522 19.1992 19.0462C19.1052 19.1402 18.9855 19.2041 18.8551 19.2301C18.7247 19.256 18.5896 19.2427 18.4669 19.1918C18.3441 19.141 18.2391 19.0548 18.1653 18.9443C18.0914 18.8338 18.052 18.7039 18.052 18.571C18.0523 18.3928 18.1231 18.2221 18.2491 18.0961C18.3751 17.9701 18.5459 17.8993 18.724 17.899Z" fill="black"/>
</svg>
