<svg width="25" height="26" viewBox="0 0 25 26" fill="none" xmlns="http://www.w3.org/2000/svg">
<path d="M12.5 0.5C5.59644 0.5 0 6.09644 0 13C0 19.9036 5.59644 25.5 12.5 25.5C19.4036 25.5 25 19.9036 25 13C25 6.09644 19.4036 0.5 12.5 0.5ZM8.00781 5.46521C8.26535 5.45002 8.49815 5.60396 8.67463 5.87719L10.3836 9.11815C10.5635 9.50219 10.4613 9.9134 10.1929 10.1878L9.4101 10.9706C9.36179 11.0368 9.33 11.1113 9.32923 11.1933C9.62942 12.3553 10.54 13.4271 11.3434 14.1642C12.1468 14.9013 13.0103 15.8993 14.1312 16.1357C14.2697 16.1743 14.4394 16.1882 14.5386 16.096L15.448 15.1698C15.7619 14.9319 16.216 14.8166 16.5512 15.0111H16.5665L19.6502 16.8315C20.1029 17.1152 20.1498 17.6637 19.8257 17.9973L17.7017 20.1045C17.3881 20.4262 16.9714 20.5343 16.5665 20.5348C14.7759 20.4811 13.084 19.6023 11.6944 18.6992C9.41333 17.0397 7.32098 14.9815 6.0074 12.4949C5.5036 11.4522 4.91179 10.1218 4.96827 8.95798C4.97331 8.52015 5.09177 8.09121 5.4001 7.809L7.52413 5.68498C7.68958 5.54419 7.85327 5.47433 8.00781 5.46521Z" fill="black"/>
</svg>
