<svg width="70" height="70" viewBox="0 0 70 70" fill="none" xmlns="http://www.w3.org/2000/svg">
<rect width="70" height="70" rx="8" fill="#2B74E4"/>
<path d="M34.9664 20C31.8582 20.0162 28.8421 21.0571 26.3854 22.9612C23.9287 24.8653 22.1685 27.5265 21.3776 30.5324C20.5866 33.5383 20.809 36.7212 22.0103 39.5879C23.2117 42.4546 25.3248 44.8451 28.0225 46.389C26.9842 47.6408 25.6238 48.5851 24.0881 49.1203C23.5555 49.329 23.5328 49.9072 24.3664 49.9539C27.001 50.1995 29.6329 49.4569 31.7505 47.8704C32.806 48.1117 33.8849 48.236 34.9676 48.2411C38.7126 48.2409 42.3041 46.7531 44.9521 44.1048C47.6001 41.4566 49.0877 37.8649 49.0875 34.1199C49.0874 30.3749 47.5995 26.7834 44.9513 24.1354C42.3031 21.4874 38.7114 19.9998 34.9664 20ZM42.2834 31.7815L34.02 40.0449C33.7822 40.2786 33.4622 40.4095 33.1288 40.4095C32.7954 40.4095 32.4753 40.2786 32.2375 40.0449L28.0921 35.9018C27.9145 35.7231 27.7938 35.4959 27.7451 35.2487C27.6964 35.0016 27.722 34.7455 27.8186 34.5129C27.9152 34.2802 28.0784 34.0813 28.2878 33.9413C28.4972 33.8012 28.7434 33.7263 28.9953 33.7259C29.3327 33.7294 29.6559 33.8621 29.8985 34.0965L33.1156 37.3352L40.4757 29.9751L40.5453 29.9055C40.6672 29.7893 40.8112 29.6987 40.9688 29.6392C41.1264 29.5796 41.2943 29.5523 41.4626 29.5588C41.6309 29.5653 41.7962 29.6054 41.9488 29.6769C42.1013 29.7484 42.2379 29.8498 42.3505 29.9751C42.5755 30.2264 42.694 30.5553 42.681 30.8923C42.6681 31.2294 42.5246 31.5482 42.281 31.7815H42.2834Z" fill="white"/>
</svg>
