<svg width="120" height="40" viewBox="0 0 120 40" fill="none" xmlns="http://www.w3.org/2000/svg">
<path fill-rule="evenodd" clip-rule="evenodd" d="M112.598 0H7.32887C1.04595 0 0 2.16482 0 7.31318V32.7328C0 37.8772 2.15196 40 7.32177 40H112.599C117.773 40 120 37.8742 120 32.7261V7.31318C120 2.16482 117.771 0 112.598 0Z" fill="black"/>
<path fill-rule="evenodd" clip-rule="evenodd" d="M10.2412 7.94641C9.97324 8.04029 9.76465 8.29076 9.76465 8.61441V31.9431C9.76465 32.2642 9.96983 32.5131 10.2345 32.6088L22.6275 20.2743L10.2412 7.94641Z" fill="#00D6FF"/>
<path fill-rule="evenodd" clip-rule="evenodd" d="M26.1189 16.7994L10.8259 8.00065C10.6344 7.89054 10.4242 7.88242 10.2412 7.94642L22.6274 20.2743L26.1189 16.7994Z" fill="#00F076"/>
<path fill-rule="evenodd" clip-rule="evenodd" d="M10.8258 32.5571L26.1245 23.755L22.6273 20.2744L10.2344 32.6089C10.4188 32.6756 10.6319 32.6687 10.8258 32.5571Z" fill="#FF3A44"/>
<path fill-rule="evenodd" clip-rule="evenodd" d="M26.1251 23.755L31.1 20.8927C31.5733 20.6204 31.5733 19.9374 31.1 19.6651L26.1193 16.7994L22.6279 20.2744L26.1251 23.755Z" fill="#FFD000"/>
<path fill-rule="evenodd" clip-rule="evenodd" d="M94.4399 30.4147H96.1739V19.0069H94.4399V30.4147ZM109.772 23.1137L107.855 28.0418H107.764L105.756 23.1137H103.931L106.943 30.0496L105.209 33.8826H106.943L111.597 23.1137H109.772ZM100.189 29.137C99.6419 29.137 98.8205 28.8631 98.8205 28.1331C98.8205 27.2204 99.8244 26.9467 100.646 26.9467C101.376 26.9467 101.741 27.1293 102.197 27.3117C102.015 28.4069 101.102 29.137 100.189 29.137ZM100.372 22.84C99.0942 22.84 97.8166 23.3875 97.3604 24.5738L98.9118 25.2127C99.2768 24.5738 99.8244 24.3914 100.463 24.3914C101.376 24.3914 102.197 24.9389 102.288 25.8516V25.9428C102.015 25.7603 101.285 25.4866 100.554 25.4866C98.9118 25.4866 97.2691 26.3991 97.2691 28.0418C97.2691 29.5933 98.638 30.5971 100.098 30.5971C101.285 30.5971 101.832 30.0496 102.288 29.5021H102.38V30.4147H104.022V26.0341C103.84 24.0263 102.288 22.84 100.372 22.84H100.372ZM89.8768 24.4827H87.4127V20.5583H89.8768C91.1545 20.5583 91.8846 21.6535 91.8846 22.4749C91.7933 23.4788 91.0633 24.4827 89.8768 24.4827ZM89.7855 19.0069H85.6788V30.4147H87.4127V26.1254H89.7855C91.7021 26.1254 93.5273 24.7564 93.5273 22.5661C93.5273 20.3758 91.7021 19.0069 89.7855 19.0069ZM67.5176 29.137C66.3313 29.137 65.3274 28.1331 65.3274 26.7642C65.3274 25.3953 66.3313 24.3914 67.5176 24.3914C68.7041 24.3914 69.6167 25.3953 69.6167 26.7642C69.6167 28.1331 68.7041 29.137 67.5176 29.137ZM69.5254 23.7526C69.0692 23.2962 68.3391 22.84 67.4265 22.84C65.5099 22.84 63.6847 24.5738 63.6847 26.7642C63.6847 28.9544 65.4187 30.5971 67.4265 30.5971C68.3391 30.5971 69.0692 30.1409 69.4341 29.6846H69.5254V30.2321C69.5254 31.6923 68.7041 32.5136 67.4264 32.5136C66.4225 32.5136 65.6925 31.7836 65.5099 31.1448L64.0498 31.7836C64.506 32.7875 65.6012 34.0651 67.5176 34.0651C69.5254 34.0651 71.1681 32.8787 71.1681 30.0496V23.1137H69.5254V23.7526ZM72.2633 30.4147H73.9973V19.0069H72.2633V30.4147ZM76.5526 26.6729C76.5526 25.2127 77.7391 24.3914 78.5604 24.3914C79.1992 24.3914 79.838 24.7564 80.0206 25.2127L76.5526 26.6729ZM81.8458 25.3953C81.4807 24.4827 80.5681 22.9311 78.5604 22.9311C76.5526 22.9311 74.9099 24.4827 74.9099 26.8554C74.9099 29.0457 76.5526 30.7797 78.7429 30.7797C80.4768 30.7797 81.572 29.6846 81.9371 29.0457L80.6594 28.1331C80.2031 28.772 79.6555 29.2282 78.7429 29.2282C77.8302 29.2282 77.2827 28.8631 76.8264 28.0418L82.0284 25.8516L81.8458 25.3953ZM40.4129 24.1176V25.7603H44.3372C44.2459 26.6729 43.8808 27.403 43.4246 27.8593C42.8769 28.4069 41.9644 29.0457 40.4129 29.0457C37.9488 29.0457 36.1236 27.1293 36.1236 24.6651C36.1236 22.201 38.0401 20.2846 40.4129 20.2846C41.6906 20.2846 42.6945 20.8322 43.4246 21.471L44.6109 20.2846C43.6071 19.372 42.3294 18.6418 40.5041 18.6418C37.2187 18.6418 34.3896 21.3797 34.3896 24.6651C34.3896 27.9506 37.2187 30.6884 40.5041 30.6884C42.3294 30.6884 43.6071 30.1409 44.7022 28.9544C45.7974 27.8593 46.1624 26.3078 46.1624 25.1215C46.1624 24.7564 46.1624 24.3914 46.0712 24.1176H40.4129ZM50.5429 29.137C49.3566 29.137 48.3527 28.1331 48.3527 26.7642C48.3527 25.3953 49.3566 24.3914 50.5429 24.3914C51.7294 24.3914 52.7333 25.304 52.7333 26.7642C52.7333 28.1331 51.7294 29.137 50.5429 29.137ZM50.5429 22.9311C48.3527 22.9311 46.6187 24.5738 46.6187 26.8554C46.6187 29.0457 48.3527 30.7797 50.5429 30.7797C52.7333 30.7797 54.4672 29.137 54.4672 26.8554C54.4672 24.4827 52.7333 22.9311 50.5429 22.9311ZM59.0304 29.137C57.8439 29.137 56.84 28.1331 56.84 26.7642C56.84 25.3953 57.8439 24.3914 59.0304 24.3914C60.2167 24.3914 61.2206 25.304 61.2206 26.7642C61.2206 28.1331 60.2167 29.137 59.0304 29.137ZM59.0304 22.9311C56.84 22.9311 55.1061 24.5738 55.1061 26.8554C55.1061 29.0457 56.84 30.7797 59.0304 30.7797C61.2206 30.7797 62.9546 29.137 62.9546 26.8554C62.9546 24.4827 61.2206 22.9311 59.0304 22.9311Z" fill="white"/>
<path fill-rule="evenodd" clip-rule="evenodd" d="M37.8727 13.1113L37.3578 11.6709L37.1485 10.9707H37.0841L36.875 11.6709L36.3599 13.1113H37.8727ZM36.4967 9.72339H37.736L39.9007 15.4853H38.7017L38.2269 14.1092H36.0058L35.5311 15.4853H34.332L36.4967 9.72339Z" fill="white"/>
<path fill-rule="evenodd" clip-rule="evenodd" d="M40.5762 9.72339H41.8397L44.1572 13.5861H44.2217L44.1572 12.4756V9.72339H45.2356V15.4853H44.0929L41.6465 11.4053H41.5822L41.6465 12.5159V15.4853H40.5762V9.72339Z" fill="white"/>
<path fill-rule="evenodd" clip-rule="evenodd" d="M48.2937 14.4553C48.6102 14.4553 48.8891 14.4109 49.1305 14.3224C49.3719 14.234 49.5732 14.1092 49.7341 13.9482C49.895 13.7873 50.0157 13.5929 50.0962 13.3648C50.1767 13.1369 50.2169 12.8834 50.2169 12.6043C50.2169 12.3255 50.1767 12.072 50.0962 11.8439C50.0157 11.6159 49.895 11.4214 49.7341 11.2604C49.5732 11.0995 49.3719 10.9748 49.1305 10.8862C48.8891 10.7977 48.6102 10.7535 48.2937 10.7535H47.4809V14.4553H48.2937ZM46.3945 9.72339H48.3419C48.7978 9.72339 49.2083 9.79327 49.5732 9.93268C49.9379 10.0722 50.2491 10.2694 50.5066 10.5242C50.7642 10.779 50.9612 11.0834 51.0981 11.4375C51.2349 11.7916 51.3034 12.1807 51.3034 12.6043C51.3034 13.0336 51.2349 13.4252 51.0981 13.7793C50.9612 14.1333 50.7642 14.4364 50.5066 14.6886C50.2491 14.9408 49.9379 15.1366 49.5732 15.2761C49.2083 15.4156 48.7978 15.4853 48.3419 15.4853H46.3945V9.72339Z" fill="white"/>
<path fill-rule="evenodd" clip-rule="evenodd" d="M54.273 12.3227C54.5197 12.3227 54.7223 12.2476 54.8805 12.0974C55.0388 11.9473 55.118 11.7568 55.118 11.526C55.118 11.4241 55.1005 11.3248 55.0656 11.2282C55.0307 11.1317 54.9783 11.046 54.9088 10.9707C54.8389 10.8957 54.7518 10.8354 54.6473 10.7896C54.5425 10.7442 54.4231 10.7213 54.2891 10.7213H53.2671V12.3227H54.273ZM52.1807 9.72339H54.281C54.5708 9.72339 54.8335 9.76904 55.0696 9.86021C55.3057 9.95151 55.5082 10.0775 55.6773 10.2384C55.8462 10.3994 55.9762 10.5913 56.0675 10.8139C56.1587 11.0366 56.2043 11.2794 56.2043 11.5421C56.2043 11.7353 56.1721 11.9163 56.1078 12.0853C56.0434 12.2543 55.9549 12.4072 55.8422 12.544C55.7295 12.6808 55.5981 12.8015 55.4478 12.9061C55.2976 13.0107 55.1394 13.0926 54.9731 13.1516L54.965 13.2079L56.5101 15.4209V15.4853H55.2628L53.7741 13.3206H53.2671V15.4853H52.1807V9.72339Z" fill="white"/>
<path fill-rule="evenodd" clip-rule="evenodd" d="M59.8973 14.584C60.1656 14.584 60.4164 14.5358 60.6498 14.4392C60.8831 14.3426 61.087 14.2085 61.2613 14.0368C61.4357 13.8652 61.5725 13.6573 61.6718 13.4132C61.771 13.1691 61.8206 12.8996 61.8206 12.6044C61.8206 12.3094 61.771 12.0398 61.6718 11.7957C61.5725 11.5515 61.4357 11.3437 61.2613 11.172C61.087 11.0004 60.8831 10.8661 60.6498 10.7697C60.4164 10.6731 60.1656 10.6248 59.8973 10.6248C59.6291 10.6248 59.3783 10.6731 59.145 10.7697C58.9116 10.8661 58.7077 11.0004 58.5333 11.172C58.359 11.3437 58.2222 11.5515 58.123 11.7957C58.0236 12.0398 57.974 12.3094 57.974 12.6044C57.974 12.8996 58.0236 13.1691 58.123 13.4132C58.2222 13.6573 58.359 13.8652 58.5333 14.0368C58.7077 14.2085 58.9116 14.3426 59.145 14.4392C59.3783 14.5358 59.6291 14.584 59.8973 14.584ZM59.8973 15.614C59.468 15.614 59.0698 15.5363 58.7024 15.3807C58.3349 15.2252 58.0169 15.0119 57.7488 14.741C57.4804 14.4701 57.2699 14.1508 57.1171 13.7833C56.9642 13.4159 56.8877 13.0228 56.8877 12.6044C56.8877 12.1859 56.9642 11.793 57.1171 11.4254C57.2699 11.058 57.4804 10.7388 57.7488 10.4679C58.0169 10.197 58.3349 9.98379 58.7024 9.82814C59.0698 9.67249 59.468 9.59473 59.8973 9.59473C60.3265 9.59473 60.7249 9.67249 61.0924 9.82814C61.4598 9.98379 61.7777 10.197 62.046 10.4679C62.3142 10.7388 62.5248 11.058 62.6777 11.4254C62.8305 11.793 62.907 12.1859 62.907 12.6044C62.907 13.0228 62.8305 13.4159 62.6777 13.7833C62.5248 14.1508 62.3142 14.4701 62.046 14.741C61.7777 15.0119 61.4598 15.2252 61.0924 15.3807C60.7249 15.5363 60.3265 15.614 59.8973 15.614Z" fill="white"/>
<path fill-rule="evenodd" clip-rule="evenodd" d="M63.7842 15.4853H64.8707V9.72339H63.7842V15.4853Z" fill="white"/>
<path fill-rule="evenodd" clip-rule="evenodd" d="M67.9285 14.4553C68.2449 14.4553 68.524 14.4109 68.7654 14.3224C69.0068 14.234 69.208 14.1092 69.3689 13.9482C69.5299 13.7873 69.6506 13.5929 69.7311 13.3648C69.8115 13.1369 69.8518 12.8834 69.8518 12.6043C69.8518 12.3255 69.8115 12.072 69.7311 11.8439C69.6506 11.6159 69.5299 11.4214 69.3689 11.2604C69.208 11.0995 69.0068 10.9748 68.7654 10.8862C68.524 10.7977 68.2449 10.7535 67.9285 10.7535H67.1156V14.4553H67.9285ZM66.0293 9.72339H67.9767C68.4327 9.72339 68.8431 9.79327 69.208 9.93268C69.5727 10.0722 69.884 10.2694 70.1415 10.5242C70.3989 10.779 70.5961 11.0834 70.7329 11.4375C70.8698 11.7916 70.9381 12.1807 70.9381 12.6043C70.9381 13.0336 70.8698 13.4252 70.7329 13.7793C70.5961 14.1333 70.3989 14.4364 70.1415 14.6886C69.884 14.9408 69.5727 15.1366 69.208 15.2761C68.8431 15.4156 68.4327 15.4853 67.9767 15.4853H66.0293V9.72339Z" fill="white"/>
<path fill-rule="evenodd" clip-rule="evenodd" d="M76.402 13.1113L75.8871 11.6709L75.6778 10.9707H75.6134L75.4042 11.6709L74.8892 13.1113H76.402ZM75.026 9.72339H76.2653L78.43 15.4853H77.231L76.7561 14.1092H74.5351L74.0604 15.4853H72.8613L75.026 9.72339Z" fill="white"/>
<path fill-rule="evenodd" clip-rule="evenodd" d="M81.1504 12.3388C81.4348 12.3388 81.6495 12.2583 81.7943 12.0974C81.939 11.9364 82.0116 11.7514 82.0116 11.5421C82.0116 11.4403 81.9941 11.3409 81.9592 11.2443C81.9243 11.1477 81.8707 11.0633 81.7983 10.9909C81.7259 10.9184 81.636 10.8608 81.5287 10.8179C81.4214 10.7749 81.2954 10.7535 81.1504 10.7535H80.1929V12.3388H81.1504ZM79.1064 15.4853V9.72339H81.1344C81.4081 9.72339 81.6642 9.76762 81.9029 9.85621C82.1415 9.94468 82.3496 10.0695 82.5267 10.2303C82.7037 10.3914 82.843 10.5833 82.945 10.8059C83.0469 11.0284 83.098 11.274 83.098 11.5421C83.098 11.8157 83.0469 12.0639 82.945 12.2866C82.843 12.5092 82.7037 12.7009 82.5267 12.8619C82.3496 13.0228 82.1415 13.1475 81.9029 13.2361C81.6642 13.3246 81.4081 13.3688 81.1344 13.3688H80.1929V15.4853H79.1064Z" fill="white"/>
<path fill-rule="evenodd" clip-rule="evenodd" d="M85.9142 12.3388C86.1986 12.3388 86.4132 12.2583 86.558 12.0974C86.7028 11.9364 86.7753 11.7514 86.7753 11.5421C86.7753 11.4403 86.7578 11.3409 86.7229 11.2443C86.688 11.1477 86.6345 11.0633 86.562 10.9909C86.4895 10.9184 86.3996 10.8608 86.2924 10.8179C86.1851 10.7749 86.0591 10.7535 85.9142 10.7535H84.9566V12.3388H85.9142ZM83.8701 15.4853V9.72339H85.8981C86.1718 9.72339 86.4279 9.76762 86.6666 9.85621C86.9052 9.94468 87.1133 10.0695 87.2904 10.2303C87.4674 10.3914 87.6067 10.5833 87.7087 10.8059C87.8106 11.0284 87.8616 11.274 87.8616 11.5421C87.8616 11.8157 87.8106 12.0639 87.7087 12.2866C87.6067 12.5092 87.4674 12.7009 87.2904 12.8619C87.1133 13.0228 86.9052 13.1475 86.6666 13.2361C86.4279 13.3246 86.1718 13.3688 85.8981 13.3688H84.9566V15.4853H83.8701Z" fill="white"/>
<path fill-rule="evenodd" clip-rule="evenodd" d="M92.9716 14.584C93.2397 14.584 93.4906 14.5358 93.7239 14.4392C93.9573 14.3426 94.1611 14.2085 94.3356 14.0368C94.5098 13.8652 94.6466 13.6573 94.7459 13.4132C94.8452 13.1691 94.8947 12.8996 94.8947 12.6044C94.8947 12.3094 94.8452 12.0398 94.7459 11.7957C94.6466 11.5515 94.5098 11.3437 94.3356 11.172C94.1611 11.0004 93.9573 10.8661 93.7239 10.7697C93.4906 10.6731 93.2397 10.6248 92.9716 10.6248C92.7032 10.6248 92.4525 10.6731 92.2191 10.7697C91.9858 10.8661 91.7818 11.0004 91.6074 11.172C91.4332 11.3437 91.2964 11.5515 91.1971 11.7957C91.0978 12.0398 91.0481 12.3094 91.0481 12.6044C91.0481 12.8996 91.0978 13.1691 91.1971 13.4132C91.2964 13.6573 91.4332 13.8652 91.6074 14.0368C91.7818 14.2085 91.9858 14.3426 92.2191 14.4392C92.4525 14.5358 92.7032 14.584 92.9716 14.584ZM92.9716 15.614C92.5421 15.614 92.1439 15.5363 91.7765 15.3807C91.409 15.2252 91.0911 15.0119 90.8229 14.741C90.5546 14.4701 90.3441 14.1508 90.1912 13.7833C90.0383 13.4159 89.9619 13.0228 89.9619 12.6044C89.9619 12.1859 90.0383 11.793 90.1912 11.4254C90.3441 11.058 90.5546 10.7388 90.8229 10.4679C91.0911 10.197 91.409 9.98379 91.7765 9.82814C92.1439 9.67249 92.5421 9.59473 92.9716 9.59473C93.4006 9.59473 93.799 9.67249 94.1665 9.82814C94.5339 9.98379 94.8518 10.197 95.1201 10.4679C95.3884 10.7388 95.599 11.058 95.7519 11.4254C95.9047 11.793 95.9812 12.1859 95.9812 12.6044C95.9812 13.0228 95.9047 13.4159 95.7519 13.7833C95.599 14.1508 95.3884 14.4701 95.1201 14.741C94.8518 15.0119 94.5339 15.2252 94.1665 15.3807C93.799 15.5363 93.4006 15.614 92.9716 15.614Z" fill="white"/>
<path fill-rule="evenodd" clip-rule="evenodd" d="M96.8584 9.72339H98.1218L100.439 13.5861H100.504L100.439 12.4756V9.72339H101.518V15.4853H100.375L97.9287 11.4053H97.8644L97.9287 12.5159V15.4853H96.8584V9.72339Z" fill="white"/>
</svg>
