<svg width="24" height="24" viewBox="0 0 24 24" fill="current" xmlns="http://www.w3.org/2000/svg">
  <path fill-rule="evenodd" clip-rule="evenodd" d="M4.11219 6.53954C4.27877 6.21897 4.61387 6 5.00011 6H19.0001C19.3863 6 19.7214 6.21897 19.888 6.53954L12.0001 11.7981L4.11219 6.53954ZM2.00017 6.98083C1.99997 6.99179 1.99995 7.00273 2.00011 7.01367V17C2.00011 18.6569 3.34325 20 5.00011 20H19.0001C20.657 20 22.0001 18.6569 22.0001 17V7.01368C22.0003 7.00274 22.0002 6.99178 22 6.98083C21.9897 5.3328 20.6506 4 19.0001 4H5.00011C3.34965 4 2.01048 5.3328 2.00017 6.98083ZM20.0001 8.86852V17C20.0001 17.5523 19.5524 18 19.0001 18H5.00011C4.44782 18 4.00011 17.5523 4.00011 17V8.86852L11.4454 13.8321C11.7813 14.056 12.2189 14.056 12.5548 13.8321L20.0001 8.86852Z" fill="current" />
</svg>
  