<svg width="40" height="32" viewBox="0 0 40 32" fill="none" xmlns="http://www.w3.org/2000/svg">
<path d="M34.8078 7.74707H5.19238V27.4224H34.8078V7.74707Z" fill="white"/>
<path d="M16.3115 24.7181H8.2417V21.6663C8.2417 20.5506 9.14617 19.6464 10.2618 19.6464H14.2918C15.4074 19.6464 16.3117 20.5508 16.3117 21.6663V24.7181H16.3115Z" fill="#56CCF2"/>
<path d="M34.8082 7.74707H31.7583V27.4224H34.8082V7.74707Z" fill="#B7EDFF"/>
<path d="M31.758 13.9054H19.5327V16.2937H31.758V13.9054Z" fill="#56CCF2"/>
<path d="M31.7579 13.9054H29.3696V16.2937H31.7579V13.9054Z" fill="#7BABF3"/>
<path d="M14.2913 19.646H12.4058C13.5214 19.646 14.4257 20.5505 14.4257 21.6659V24.7177H16.311V21.6659C16.3112 20.5503 15.4069 19.646 14.2913 19.646Z" fill="#084DB7"/>
<path d="M12.2772 17.9877C11.2358 17.9877 10.3916 17.1435 10.3916 16.1022V15.0967C10.3916 14.0553 11.2358 13.2113 12.2772 13.2113C13.3185 13.2113 14.1625 14.0555 14.1625 15.0967V16.1022C14.1627 17.1437 13.3185 17.9877 12.2772 17.9877Z" fill="white"/>
<path d="M34.8075 28H5.19219C4.87325 28 4.61475 27.7415 4.61475 27.4226V7.74725C4.61475 7.4283 4.87325 7.1698 5.19219 7.1698H34.8075C35.1264 7.1698 35.3849 7.4283 35.3849 7.74725V27.4226C35.3849 27.7413 35.1264 28 34.8075 28ZM5.76964 26.8451H34.23V8.32469H5.76964V26.8451Z" fill="#2B74E4"/>
<path d="M12.2773 18.565C10.9193 18.565 9.81445 17.4602 9.81445 16.1022V15.0967C9.81445 13.7388 10.9193 12.6339 12.2773 12.6339C13.6352 12.6339 14.7401 13.7388 14.7401 15.0967V16.1022C14.7403 17.4602 13.6354 18.565 12.2773 18.565ZM12.2773 13.7886C11.556 13.7886 10.9693 14.3753 10.9693 15.0965V16.102C10.9693 16.8233 11.556 17.41 12.2773 17.41C12.9985 17.41 13.5852 16.8233 13.5852 16.102V15.0965C13.5854 14.3753 12.9987 13.7886 12.2773 13.7886Z" fill="#2B74E4"/>
<path d="M16.3118 25.2953H8.242C7.92305 25.2953 7.66455 25.0368 7.66455 24.7178V21.666C7.66455 20.2338 8.82984 19.0685 10.2621 19.0685H14.2921C15.7243 19.0685 16.8896 20.2338 16.8896 21.666V24.7178C16.8892 25.0368 16.6307 25.2953 16.3118 25.2953ZM8.81944 24.1404H15.7345V21.666C15.7345 20.8707 15.0874 20.2234 14.2919 20.2234H10.2619C9.46657 20.2234 8.81925 20.8705 8.81925 21.666V24.1404H8.81944Z" fill="#2B74E4"/>
<path d="M31.7573 16.8711H19.532C19.2131 16.8711 18.9546 16.6126 18.9546 16.2936V13.9053C18.9546 13.5864 19.2131 13.3279 19.532 13.3279H31.7573C32.0763 13.3279 32.3348 13.5864 32.3348 13.9053V16.2936C32.3348 16.6126 32.0763 16.8711 31.7573 16.8711ZM20.1097 15.7162H31.1801V14.4828H20.1097V15.7162Z" fill="#2B74E4"/>
<path d="M31.7573 19.4477H19.532C19.2131 19.4477 18.9546 19.1892 18.9546 18.8703C18.9546 18.5513 19.2131 18.2928 19.532 18.2928H31.7573C32.0763 18.2928 32.3348 18.5513 32.3348 18.8703C32.3348 19.1892 32.0763 19.4477 31.7573 19.4477Z" fill="#2B74E4"/>
<path d="M31.7573 22.0243H19.532C19.2131 22.0243 18.9546 21.7658 18.9546 21.4468C18.9546 21.1279 19.2131 20.8694 19.532 20.8694H31.7573C32.0763 20.8694 32.3348 21.1279 32.3348 21.4468C32.3348 21.7658 32.0763 22.0243 31.7573 22.0243Z" fill="#2B74E4"/>
<path d="M25.6457 24.6012H19.533C19.2141 24.6012 18.9556 24.3427 18.9556 24.0237C18.9556 23.7048 19.2141 23.4463 19.533 23.4463H25.6457C25.9646 23.4463 26.2231 23.7048 26.2231 24.0237C26.2231 24.3427 25.9644 24.6012 25.6457 24.6012Z" fill="#2B74E4"/>
<path d="M17.9238 9.41812V4.57739H22.0755V9.41812C22.0755 10.5645 21.1462 11.494 19.9996 11.494C18.8533 11.4938 17.9238 10.5645 17.9238 9.41812Z" fill="#56CCF2"/>
<path d="M20.6488 4.57739V9.41812C20.6488 10.3135 20.0808 11.0742 19.2866 11.3655C19.5095 11.4471 19.749 11.494 20.0002 11.494C21.1466 11.494 22.0761 10.5647 22.0761 9.41812V4.57739H20.6488Z" fill="#084DB7"/>
<path d="M19.9991 12.0713C18.536 12.0713 17.3457 10.881 17.3457 9.41798V4.57745C17.3457 4.2585 17.6042 4 17.9231 4H22.0748C22.3937 4 22.6522 4.2585 22.6522 4.57745V9.41798C22.6524 10.8812 21.4621 12.0713 19.9991 12.0713ZM18.5006 5.15489V9.41798C18.5006 10.2441 19.1727 10.9165 19.9991 10.9165C20.8254 10.9165 21.4975 10.2443 21.4975 9.41798V5.15489H18.5006Z" fill="#2B74E4"/>
</svg>
