<svg width="480" height="200" viewBox="0 0 480 200" fill="none" xmlns="http://www.w3.org/2000/svg">
<rect width="480" height="197" fill="#1939B7"/>
<path d="M192.444 78.935H283.734C285.092 78.931 286.438 79.1949 287.693 79.7116C288.949 80.2284 290.09 80.9877 291.051 81.946C292.012 82.9043 292.774 84.0427 293.293 85.2958C293.812 86.5488 294.077 87.8919 294.075 89.2478V187.106C294.077 188.461 293.812 189.804 293.293 191.057C292.775 192.309 292.013 193.447 291.053 194.406C290.093 195.364 288.952 196.123 287.697 196.64C286.442 197.157 285.097 197.422 283.739 197.419H192.449C191.091 197.422 189.746 197.157 188.491 196.64C187.236 196.123 186.095 195.364 185.135 194.406C184.175 193.447 183.413 192.309 182.895 191.057C182.376 189.804 182.111 188.461 182.113 187.106V89.2478C182.11 87.8926 182.375 86.55 182.893 85.2973C183.411 84.0446 184.172 82.9064 185.132 81.9481C186.092 80.9898 187.232 80.2303 188.487 79.7132C189.742 79.1961 191.087 78.9316 192.444 78.935Z" fill="#BCD0FF"/>
<path d="M178.649 188.867C177.968 188.865 177.293 188.998 176.663 189.257C176.033 189.516 175.46 189.897 174.978 190.378C174.496 190.859 174.114 191.43 173.853 192.059C173.593 192.687 173.46 193.361 173.461 194.042V197.413H301.885V194.042C301.886 193.361 301.752 192.688 301.491 192.06C301.231 191.431 300.848 190.86 300.367 190.38C299.885 189.899 299.312 189.518 298.683 189.258C298.053 188.999 297.378 188.866 296.697 188.867H178.649Z" fill="#95A9EE"/>
<path d="M192.125 78.9349H204.556V98.0772H178.614C180.131 89.1111 180.43 78.9349 192.125 78.9349Z" fill="#A9BDFF"/>
<path d="M204.556 78.9349H227.637V98.0772H204.556V78.9349Z" fill="#BCD0FF"/>
<path d="M178.639 98.0773C178.824 100.499 179.921 102.761 181.708 104.409C183.496 106.057 185.842 106.969 188.275 106.962H194.964C197.391 106.968 199.73 106.054 201.507 104.405C203.285 102.755 204.369 100.494 204.54 98.0773H178.639Z" fill="#95A9EE"/>
<path d="M204.556 98.0773C204.727 100.494 205.81 102.756 207.588 104.405C209.365 106.054 211.704 106.968 214.131 106.962H218.051C220.478 106.968 222.817 106.054 224.594 104.405C226.372 102.756 227.456 100.494 227.627 98.0773H204.556Z" fill="#CDE2FF"/>
<path d="M283.475 78.9349H271.034V98.0772H296.976C295.464 89.1111 295.14 78.9349 283.475 78.9349Z" fill="#A9BDFF"/>
<path d="M296.955 98.0773C296.77 100.499 295.673 102.761 293.886 104.409C292.098 106.057 289.752 106.969 287.319 106.962H280.609C278.183 106.968 275.844 106.054 274.066 104.405C272.289 102.755 271.205 100.494 271.034 98.0773H296.955Z" fill="#95A9EE"/>
<path d="M247.974 78.9349H271.055V98.0772H247.974V78.9349Z" fill="#BCD0FF"/>
<path d="M247.974 98.0773C248.145 100.495 249.229 102.757 251.008 104.407C252.786 106.056 255.126 106.97 257.554 106.962H261.464C263.891 106.968 266.229 106.054 268.005 104.405C269.782 102.755 270.865 100.493 271.034 98.0773H247.974Z" fill="#CDE2FF"/>
<path d="M224.903 78.9349H247.973V98.0772H224.897L224.903 78.9349Z" fill="#CDE2FF"/>
<path d="M224.902 98.0773C225.072 100.493 226.155 102.755 227.931 104.405C229.708 106.054 232.046 106.968 234.473 106.962H238.383C240.812 106.972 243.155 106.06 244.935 104.41C246.716 102.76 247.802 100.496 247.973 98.0773H224.902Z" fill="#A9BDFF"/>
<path d="M250.752 113.276C249.669 113.274 248.596 113.485 247.594 113.898C246.593 114.311 245.683 114.917 244.917 115.682C244.151 116.447 243.543 117.355 243.13 118.355C242.716 119.355 242.504 120.426 242.506 121.508V197.413H280.716V121.508C280.718 120.426 280.506 119.355 280.092 118.355C279.678 117.355 279.071 116.447 278.305 115.682C277.539 114.917 276.629 114.311 275.627 113.898C274.626 113.485 273.553 113.274 272.469 113.276H250.752Z" fill="#CDE2FF"/>
<path d="M198.18 113.458H225.019C225.797 113.457 226.567 113.609 227.285 113.905C228.003 114.202 228.656 114.637 229.206 115.186C229.755 115.735 230.19 116.387 230.487 117.104C230.783 117.821 230.935 118.59 230.933 119.366V165.675C230.935 166.451 230.783 167.22 230.487 167.937C230.19 168.655 229.755 169.307 229.206 169.856C228.656 170.404 228.003 170.84 227.285 171.136C226.567 171.433 225.797 171.585 225.019 171.583H198.18C197.403 171.585 196.633 171.433 195.914 171.136C195.196 170.84 194.543 170.404 193.994 169.856C193.444 169.307 193.009 168.655 192.713 167.937C192.416 167.22 192.265 166.451 192.267 165.675V119.366C192.265 118.59 192.416 117.821 192.713 117.104C193.009 116.387 193.444 115.735 193.994 115.186C194.543 114.637 195.196 114.202 195.914 113.905C196.633 113.609 197.403 113.457 198.18 113.458Z" fill="#EBF4FF"/>
<path d="M241.593 180.317C238.722 180.317 236.273 182.63 236.41 185.496V188.868H286.822V185.496C286.824 184.815 286.691 184.141 286.431 183.511C286.171 182.882 285.789 182.31 285.307 181.829C284.825 181.348 284.252 180.966 283.621 180.707C282.991 180.447 282.315 180.315 281.634 180.317H241.593Z" fill="#95A9EE"/>
<path d="M236.344 188.867C235.663 188.866 234.989 188.999 234.359 189.259C233.73 189.518 233.158 189.899 232.676 190.38C232.195 190.861 231.813 191.432 231.553 192.06C231.293 192.688 231.16 193.362 231.161 194.042V197.413H292.066V194.042C292.067 193.361 291.933 192.688 291.673 192.06C291.412 191.431 291.03 190.86 290.548 190.38C290.066 189.899 289.494 189.518 288.864 189.258C288.234 188.999 287.559 188.866 286.878 188.867H236.344Z" fill="#A9BDFF"/>
<path d="M209.353 113.458V171.583H213.846V113.458H209.353Z" fill="#CDE2FF"/>
<path d="M192.267 140.275V144.766H230.933V140.275H192.267Z" fill="#CDE2FF"/>
<path d="M250.509 129.866C250.939 129.866 251.365 129.95 251.762 130.113C252.159 130.277 252.52 130.518 252.824 130.821C253.128 131.125 253.369 131.485 253.533 131.881C253.697 132.278 253.781 132.703 253.781 133.132V140.974C253.781 141.84 253.436 142.671 252.823 143.283C252.209 143.895 251.377 144.239 250.509 144.239C249.642 144.239 248.81 143.895 248.196 143.283C247.583 142.671 247.238 141.84 247.238 140.974V133.132C247.238 132.703 247.322 132.278 247.486 131.881C247.65 131.485 247.891 131.125 248.195 130.821C248.499 130.518 248.86 130.277 249.257 130.113C249.654 129.95 250.08 129.866 250.509 129.866Z" fill="#A9BDFF"/>
<path d="M250.565 135.673H257.285C257.696 135.673 258.089 135.836 258.379 136.125C258.669 136.415 258.832 136.808 258.832 137.217C258.832 137.627 258.669 138.02 258.379 138.309C258.089 138.599 257.696 138.761 257.285 138.761H250.565C250.155 138.761 249.762 138.599 249.472 138.309C249.182 138.02 249.019 137.627 249.019 137.217C249.019 136.808 249.182 136.415 249.472 136.125C249.762 135.836 250.155 135.673 250.565 135.673Z" fill="#95A9EE"/>
<path d="M327.38 103.621C326.335 103.621 325.732 104.466 325.859 105.499L327.715 121.042C327.735 121.534 327.939 122 328.288 122.348C328.637 122.696 329.104 122.9 329.596 122.92H339.349C339.842 122.899 340.309 122.695 340.658 122.347C341.007 121.999 341.213 121.534 341.236 121.042L343.087 105.499C343.142 105.272 343.145 105.035 343.093 104.807C343.042 104.579 342.939 104.366 342.792 104.184C342.645 104.002 342.457 103.857 342.245 103.759C342.032 103.662 341.799 103.614 341.565 103.621H327.38Z" fill="#A9BDFF"/>
<path d="M334.47 91.1665C334.969 91.1665 335.448 91.3644 335.801 91.7166C336.154 92.0689 336.352 92.5466 336.352 93.0448V96.8064C336.352 97.3046 336.154 97.7823 335.801 98.1346C335.448 98.4868 334.969 98.6847 334.47 98.6847C333.971 98.6847 333.493 98.4868 333.14 98.1346C332.787 97.7823 332.589 97.3046 332.589 96.8064V93.0448C332.588 92.7979 332.636 92.5534 332.731 92.3252C332.825 92.097 332.964 91.8897 333.138 91.7152C333.313 91.5406 333.521 91.4023 333.75 91.3081C333.978 91.214 334.223 91.1658 334.47 91.1665Z" fill="#BCD0FF"/>
<path d="M334.47 94.422C333.429 94.4194 332.397 94.622 331.434 95.0185C330.472 95.4149 329.597 95.9972 328.861 96.732C328.124 97.4668 327.54 98.3396 327.142 99.3002C326.745 100.261 326.541 101.291 326.543 102.33V103.287H342.392V102.33C342.394 101.291 342.19 100.262 341.793 99.3014C341.396 98.3411 340.812 97.4685 340.076 96.7338C339.34 95.999 338.466 95.4166 337.504 95.0199C336.542 94.6232 335.511 94.42 334.47 94.422Z" fill="#A9BDFF"/>
<path d="M325.788 101.768H343.153C343.746 101.796 344.305 102.05 344.714 102.479C345.124 102.907 345.353 103.477 345.353 104.069C345.353 104.661 345.124 105.231 344.714 105.659C344.305 106.088 343.746 106.342 343.153 106.37H325.788C325.476 106.385 325.164 106.336 324.872 106.227C324.58 106.118 324.312 105.951 324.087 105.736C323.861 105.521 323.681 105.262 323.558 104.975C323.435 104.689 323.372 104.381 323.372 104.069C323.372 103.757 323.435 103.449 323.558 103.163C323.681 102.876 323.861 102.618 324.087 102.402C324.312 102.187 324.58 102.02 324.872 101.911C325.164 101.802 325.476 101.753 325.788 101.768Z" fill="#95A9EE"/>
<path d="M329.287 108.466H332.188C332.343 108.465 332.496 108.495 332.64 108.554C332.783 108.613 332.913 108.699 333.023 108.808C333.133 108.917 333.22 109.047 333.28 109.19C333.339 109.333 333.37 109.486 333.37 109.641V116.541C333.37 116.854 333.245 117.154 333.024 117.375C332.802 117.596 332.501 117.721 332.188 117.721H330.666C330.359 117.702 330.07 117.571 329.852 117.354C329.635 117.137 329.504 116.848 329.485 116.541L328.333 109.646C328.298 109.503 328.296 109.354 328.328 109.211C328.36 109.068 328.425 108.934 328.517 108.82C328.609 108.705 328.727 108.614 328.86 108.553C328.994 108.491 329.14 108.462 329.287 108.466Z" fill="#CDE2FF"/>
<path d="M339.861 108.466H336.96C336.805 108.465 336.652 108.495 336.508 108.554C336.365 108.613 336.235 108.699 336.125 108.808C336.015 108.917 335.928 109.047 335.868 109.19C335.809 109.333 335.778 109.486 335.778 109.641V116.541C335.778 116.854 335.903 117.154 336.124 117.375C336.346 117.596 336.647 117.721 336.96 117.721H338.481C338.789 117.702 339.078 117.571 339.296 117.354C339.513 117.137 339.644 116.848 339.663 116.541L340.814 109.646C340.85 109.503 340.851 109.354 340.82 109.211C340.788 109.068 340.723 108.934 340.631 108.82C340.539 108.705 340.421 108.614 340.287 108.553C340.154 108.491 340.008 108.462 339.861 108.466Z" fill="#CDE2FF"/>
<path d="M334.105 121.685C333.858 121.684 333.613 121.732 333.384 121.826C333.156 121.921 332.948 122.059 332.773 122.233C332.598 122.408 332.46 122.615 332.366 122.844C332.271 123.072 332.223 123.316 332.224 123.563V197.307H337.168V123.563C337.168 123.316 337.12 123.071 337.025 122.843C336.93 122.615 336.791 122.408 336.616 122.233C336.44 122.059 336.232 121.92 336.003 121.826C335.775 121.732 335.529 121.684 335.282 121.685H334.105Z" fill="#A9BDFF"/>
<path d="M326.629 120.227H342.757C343.35 120.255 343.909 120.509 344.318 120.938C344.728 121.366 344.956 121.936 344.956 122.528C344.956 123.12 344.728 123.69 344.318 124.118C343.909 124.547 343.35 124.801 342.757 124.829H326.629C326.036 124.801 325.477 124.547 325.068 124.118C324.658 123.69 324.43 123.12 324.43 122.528C324.43 121.936 324.658 121.366 325.068 120.938C325.477 120.509 326.036 120.255 326.629 120.227Z" fill="#BCD0FF"/>
<path d="M240.579 188.807L268.25 188.868C271.77 188.868 274.072 186.022 273.631 182.534L271.197 163.498C270.75 160.01 268.377 157.144 264.857 157.139L244.632 157.099C241.112 157.099 238.708 159.944 238.262 163.427L235.827 182.453C235.386 185.941 237.06 188.802 240.579 188.807Z" fill="#A9BDFF"/>
<path d="M250.54 146.163C248.824 146.167 247.178 146.848 245.961 148.056C244.745 149.265 244.055 150.905 244.043 152.618L244.008 165.017C244.008 165.579 244.232 166.119 244.63 166.517C245.029 166.915 245.569 167.138 246.133 167.138C246.696 167.138 247.237 166.915 247.635 166.517C248.034 166.119 248.258 165.579 248.258 165.017L248.288 152.618C248.282 152.323 248.336 152.03 248.446 151.756C248.557 151.482 248.722 151.234 248.932 151.025C249.141 150.817 249.391 150.654 249.666 150.544C249.94 150.435 250.234 150.383 250.53 150.391H257.823C258.119 150.384 258.412 150.438 258.687 150.548C258.961 150.659 259.21 150.824 259.418 151.033C259.627 151.242 259.791 151.491 259.9 151.765C260.01 152.04 260.062 152.333 260.054 152.628L260.024 165.027C260.01 165.314 260.054 165.601 260.155 165.87C260.255 166.139 260.409 166.385 260.608 166.594C260.806 166.802 261.045 166.967 261.309 167.08C261.574 167.194 261.859 167.252 262.147 167.252C262.434 167.252 262.719 167.194 262.984 167.08C263.248 166.967 263.487 166.802 263.685 166.594C263.884 166.385 264.038 166.139 264.138 165.87C264.239 165.601 264.283 165.314 264.269 165.027L264.305 152.679C264.299 150.965 263.617 149.322 262.405 148.108C261.193 146.894 259.55 146.206 257.833 146.194L250.54 146.163Z" fill="#95A9EE"/>
<path d="M251.296 166.121C251.296 166.89 251.067 167.641 250.639 168.281C250.211 168.92 249.603 169.419 248.891 169.713C248.18 170.007 247.397 170.084 246.641 169.934C245.885 169.784 245.191 169.414 244.647 168.87C244.102 168.326 243.731 167.633 243.581 166.879C243.43 166.125 243.508 165.343 243.802 164.633C244.097 163.922 244.596 163.315 245.237 162.888C245.877 162.46 246.631 162.232 247.401 162.232C248.434 162.232 249.425 162.642 250.155 163.371C250.886 164.1 251.296 165.089 251.296 166.121Z" fill="#95A9EE"/>
<path d="M244.073 166.121C244.073 166.89 243.845 167.641 243.417 168.281C242.989 168.92 242.38 169.419 241.669 169.713C240.957 170.007 240.174 170.084 239.418 169.934C238.663 169.784 237.969 169.414 237.424 168.87C236.879 168.326 236.508 167.633 236.358 166.879C236.208 166.125 236.285 165.343 236.58 164.633C236.875 163.922 237.374 163.315 238.014 162.888C238.655 162.46 239.408 162.232 240.178 162.232C241.211 162.232 242.202 162.642 242.932 163.371C243.663 164.1 244.073 165.089 244.073 166.121Z" fill="#95A9EE"/>
<path d="M234.149 165.463H254.435C254.691 165.462 254.945 165.512 255.181 165.609C255.418 165.707 255.633 165.85 255.814 166.03C255.995 166.211 256.138 166.426 256.236 166.662C256.333 166.898 256.383 167.151 256.383 167.407V186.924C256.383 187.179 256.333 187.432 256.236 187.668C256.138 187.904 255.995 188.119 255.814 188.3C255.633 188.48 255.418 188.624 255.181 188.721C254.945 188.818 254.691 188.868 254.435 188.868H234.149C233.893 188.868 233.639 188.818 233.403 188.721C233.166 188.624 232.951 188.48 232.77 188.3C232.589 188.119 232.446 187.904 232.348 187.668C232.25 187.432 232.201 187.179 232.201 186.924V167.407C232.201 167.151 232.25 166.898 232.348 166.662C232.446 166.426 232.589 166.211 232.77 166.03C232.951 165.85 233.166 165.707 233.403 165.609C233.639 165.512 233.893 165.462 234.149 165.463Z" fill="#CDE2FF"/>
<path d="M232.201 175.117V179.755H256.362V175.117H232.201Z" fill="#95A9EE"/>
<path d="M241.685 165.463V188.868H246.208V165.463H241.685Z" fill="#A9BDFF"/>
<path d="M160.612 140.725C160.611 143.254 159.859 145.725 158.451 147.826C157.043 149.928 155.043 151.565 152.703 152.532C150.363 153.499 147.788 153.751 145.304 153.258C142.821 152.764 140.539 151.546 138.749 149.758C136.959 147.97 135.739 145.692 135.246 143.212C134.752 140.733 135.006 138.163 135.975 135.827C136.945 133.492 138.586 131.495 140.692 130.091C142.798 128.686 145.273 127.937 147.806 127.937C149.488 127.936 151.154 128.267 152.708 128.909C154.263 129.552 155.675 130.494 156.864 131.681C158.054 132.869 158.997 134.279 159.64 135.831C160.283 137.383 160.613 139.046 160.612 140.725Z" fill="#95A9EE"/>
<path d="M153.613 128.782C154.5 128.782 155.22 130.585 155.22 132.833V193.641C155.22 195.879 154.5 197.691 153.613 197.691C152.725 197.691 152.005 195.889 152.005 193.641V132.827C152.005 130.585 152.725 128.782 153.613 128.782Z" fill="#95A9EE"/>
<path d="M167.398 119.239C167.449 121.166 167.113 123.084 166.409 124.879C165.706 126.674 164.65 128.311 163.302 129.692C161.955 131.073 160.344 132.17 158.565 132.92C156.786 133.669 154.875 134.055 152.944 134.055C151.013 134.055 149.101 133.669 147.322 132.92C145.543 132.17 143.932 131.073 142.585 129.692C141.238 128.311 140.181 126.674 139.478 124.879C138.774 123.084 138.438 121.166 138.489 119.239C138.495 115.417 140.019 111.753 142.728 109.051C145.437 106.35 149.109 104.832 152.939 104.83C156.769 104.829 160.444 106.346 163.155 109.048C165.866 111.749 167.392 115.415 167.398 119.239Z" fill="#CDE2FF"/>
<path d="M171.561 134.468C171.562 136.998 170.812 139.471 169.404 141.575C167.997 143.678 165.996 145.318 163.655 146.287C161.314 147.255 158.738 147.509 156.252 147.016C153.767 146.523 151.484 145.304 149.692 143.516C147.9 141.727 146.68 139.448 146.185 136.967C145.691 134.485 145.945 131.914 146.916 129.577C147.886 127.24 149.529 125.242 151.636 123.837C153.744 122.433 156.221 121.683 158.755 121.684C162.151 121.686 165.408 123.033 167.809 125.43C170.21 127.827 171.56 131.078 171.561 134.468Z" fill="#A9BDFF"/>
<path d="M145.519 188.872L146.827 197.56C147.01 198.896 147.917 200 149.277 200H160.221C161.575 200 162.458 198.896 162.666 197.56L163.924 188.872H145.519Z" fill="#BCD0FF"/>
<path d="M145.519 188.872L145.889 191.403H163.563L163.918 188.872H145.519Z" fill="#A9BDFF"/>
<path d="M163.001 170.327C163.787 170.742 163.584 172.671 162.544 174.656L157.32 184.609C156.306 186.589 154.785 187.854 154.019 187.444C153.253 187.034 153.436 185.105 154.475 183.121L159.699 173.178C160.739 171.183 162.209 169.917 163.001 170.327Z" fill="#95A9EE"/>
<path d="M144.991 184.66H164.577C164.908 184.645 165.238 184.697 165.548 184.813C165.858 184.929 166.142 185.106 166.381 185.335C166.62 185.563 166.811 185.837 166.941 186.141C167.071 186.445 167.138 186.772 167.138 187.103C167.138 187.433 167.071 187.76 166.941 188.064C166.811 188.368 166.62 188.642 166.381 188.871C166.142 189.099 165.858 189.276 165.548 189.392C165.238 189.508 164.908 189.56 164.577 189.545H144.991C144.361 189.517 143.766 189.247 143.331 188.792C142.895 188.337 142.652 187.732 142.652 187.103C142.652 186.473 142.895 185.868 143.331 185.413C143.766 184.958 144.361 184.689 144.991 184.66Z" fill="#BCD0FF"/>
<path d="M169.705 171.876C169.705 172.501 169.583 173.12 169.344 173.697C169.105 174.275 168.754 174.799 168.312 175.241C167.869 175.683 167.344 176.034 166.766 176.273C166.188 176.512 165.568 176.635 164.942 176.635C163.999 176.636 163.077 176.358 162.292 175.836C161.508 175.314 160.896 174.571 160.534 173.701C160.173 172.832 160.078 171.875 160.261 170.951C160.444 170.028 160.898 169.179 161.564 168.513C162.231 167.847 163.08 167.393 164.005 167.209C164.93 167.025 165.889 167.119 166.76 167.479C167.632 167.839 168.377 168.449 168.901 169.232C169.425 170.015 169.705 170.935 169.705 171.876Z" fill="#95A9EE"/>
<path d="M169.441 162.763C169.441 164.753 168.649 166.662 167.239 168.069C165.83 169.476 163.918 170.266 161.925 170.266C160.437 170.267 158.982 169.828 157.744 169.003C156.507 168.179 155.542 167.006 154.972 165.634C154.402 164.262 154.253 162.752 154.543 161.295C154.833 159.838 155.549 158.5 156.601 157.449C157.654 156.399 158.994 155.684 160.454 155.394C161.913 155.105 163.426 155.254 164.8 155.823C166.175 156.392 167.349 157.355 168.175 158.59C169.002 159.826 169.442 161.278 169.441 162.763Z" fill="#CDE2FF"/>
<path d="M162.955 170.191C162.959 171.507 162.572 172.795 161.842 173.892C161.112 174.989 160.073 175.844 158.855 176.351C157.638 176.858 156.297 176.992 155.003 176.738C153.709 176.484 152.52 175.852 151.586 174.922C150.652 173.992 150.015 172.807 149.756 171.516C149.498 170.225 149.628 168.886 150.132 167.67C150.636 166.453 151.49 165.413 152.587 164.681C153.683 163.949 154.972 163.558 156.291 163.558C158.055 163.557 159.748 164.255 160.998 165.498C162.247 166.742 162.951 168.429 162.955 170.191Z" fill="#A9BDFF"/>
<path d="M200.031 73.9128C201.81 74.8442 203.784 75.3437 205.792 75.3708C208.014 75.3708 209.216 74.5152 209.216 73.1584C209.216 71.9636 208.201 71.2244 205.503 70.4347C201.857 69.3867 199.219 67.6147 199.219 64.2277C199.219 60.6484 202.42 58.0056 207.446 58.0056C209.484 57.948 211.511 58.335 213.384 59.1397L212.223 62.9671C210.697 62.2693 209.038 61.9051 207.359 61.8989C205.224 61.8989 204.205 62.8051 204.205 63.843C204.205 65.1745 205.523 65.7314 208.348 66.6325C212.304 67.8982 214.226 69.7259 214.226 72.885C214.226 76.2062 211.64 79.3198 205.412 79.3198C203.182 79.3335 200.979 78.8437 198.966 77.887L200.031 73.9128Z" fill="#BCD0FF"/>
<path d="M222.564 58.3701V66.1769H231.419V58.3701H236.308V78.9502H231.435V70.3435H222.564V78.9502H217.69V58.3701H222.564Z" fill="#BCD0FF"/>
<path d="M261.591 68.5058C261.591 74.9253 257.067 79.3198 250.332 79.3198C243.739 79.3198 239.555 74.8089 239.555 68.8652C239.555 62.5621 244.094 58.0056 250.667 58.0056C257.447 58.0056 261.591 62.4861 261.591 68.5058ZM244.733 68.7336C244.733 72.5509 246.985 75.543 250.586 75.543C254.186 75.543 256.413 72.6015 256.413 68.6374C256.413 64.9011 254.252 61.7622 250.58 61.7622C246.909 61.7622 244.733 64.8656 244.733 68.7336Z" fill="#BCD0FF"/>
<path d="M264.852 58.6341C267.168 58.306 269.506 58.1571 271.845 58.1886C274.853 58.1886 276.998 58.8113 278.403 59.8795C279.144 60.4479 279.74 61.182 280.144 62.0227C280.549 62.8634 280.75 63.7871 280.731 64.7195C280.771 65.6172 280.62 66.5133 280.288 67.3484C279.956 68.1836 279.45 68.9389 278.804 69.5646C277.105 71.0834 274.63 71.8175 271.546 71.8175C270.921 71.8241 270.297 71.7766 269.68 71.6757V78.9509H264.852V58.6341ZM269.68 67.9597C270.286 68.0798 270.903 68.1308 271.521 68.1116C274.148 68.1116 275.887 66.9218 275.887 64.7803C275.887 62.8564 274.401 61.8236 271.886 61.8236C271.147 61.8081 270.409 61.8607 269.68 61.9806V67.9597Z" fill="#BCD0FF"/>
<path d="M302.006 140.27L288.546 167.361L288.673 181.871H294.18L297.021 169.057L308.746 156.066L316.551 181.886L321.912 182.549L318.311 141.425L302.006 140.27Z" fill="#FF825C"/>
<path d="M308.757 156.086L307.398 150.841H305.79L305.212 160.015L308.757 156.086Z" fill="#E0523C"/>
<path d="M302.301 139.086L301.986 140.27L318.312 141.409L318.033 139.086H302.301Z" fill="white"/>
<path d="M319.483 194.821L319.026 191.956H322.937L323.444 196.006L319.483 194.821Z" fill="#F6C6C0"/>
<path d="M323.135 193.227L319.255 193.272L319.503 194.821C319.503 194.821 323.464 194.563 323.469 194.518C323.474 194.472 323.135 193.227 323.135 193.227Z" fill="white"/>
<path d="M326.076 198.497H319.341L319.503 194.821L320.837 194.457C321.75 193.581 323.134 193.227 323.88 194.518C324.889 197.079 326.238 196.016 326.076 198.497Z" fill="#3D3D3D"/>
<path d="M316.836 105.636C316.836 105.636 314.498 105.803 311.764 106.244L307.017 108.486L304.446 116.911L302.59 139.096H318.028L321.046 131.623L327.131 131.593C329.667 131.593 331.767 128.778 331.909 126.079C332.071 122.029 332.365 119.609 332.305 116.966C332.218 113.372 330.783 111.858 327.74 109.782C326.175 108.756 324.675 107.635 323.247 106.426L316.836 105.636ZM325.164 120.11L325.255 124.758L323.125 124.925L325.164 120.11Z" fill="white"/>
<path d="M316.359 95.7737L315.066 98.3051C311.45 97.5558 313.935 89.4504 316.359 95.7737Z" fill="#F69CB3"/>
<path d="M315.335 89.7542C314.539 89.8844 313.825 90.3205 313.347 90.9692C312.591 92.0375 314.361 95.9054 314.361 95.9054L315.335 89.7542Z" fill="#3D3D3D"/>
<path d="M325.503 89.9819C325.503 89.9819 327.197 90.0477 327.45 92.1994C327.704 94.351 325.457 98.1886 325.457 98.1886C325.503 101.084 324.321 103.282 322.069 100.381C321.055 98.9733 321.055 91.7437 321.055 91.7437C321.055 91.7437 316.44 92.0171 314.695 90.4122C312.951 88.8073 311.353 84.3369 314.031 83.78C316.709 83.2231 317.119 85.1166 322.739 85.4102C325.675 85.5621 326.654 88.0682 325.488 89.9667L325.503 89.9819Z" fill="#3D3D3D"/>
<path d="M324.479 99.2063C324.479 99.2063 323.298 102.598 322.958 104.122C322.618 105.646 322.369 106.461 322.369 106.461L317.775 108.826L316.329 106.517L318.408 102.907L324.479 99.2063Z" fill="#F6C6C0"/>
<path d="M324.478 99.2063L318.393 102.907L316.82 105.636C317.168 105.851 317.563 105.976 317.971 106.001C318.379 106.026 318.787 105.949 319.158 105.778C320.979 104.765 322.364 101.373 322.364 101.373L324.478 99.2063Z" fill="#F69CB3"/>
<path d="M316.329 106.517L317.597 104.32C316.161 104.284 313.976 104.861 313.95 106.188C313.95 106.583 314.457 111.002 314.457 111.002L317.795 108.825L316.329 106.517Z" fill="white"/>
<path d="M324.479 99.2063C328.166 99.1607 327.288 90.7262 323.692 96.4825C323.013 95.0548 321.512 92.9386 322.678 90.4072C319.873 91.0299 317.551 91.4957 314.705 90.4072C312.317 102.983 317.946 111.311 324.473 99.2012L324.479 99.2063Z" fill="#F6C6C0"/>
<path d="M324.479 97.495C324.632 96.9029 324.934 96.3594 325.356 95.9155C325.954 95.318 326.33 96.1382 326.33 96.1382C326.19 96.0859 326.038 96.0804 325.895 96.1224C325.752 96.1644 325.627 96.2517 325.539 96.3711C325.219 96.8014 326.091 97.4545 325.178 97.9254C324.266 98.3962 324.479 97.495 324.479 97.495Z" fill="#F69CB3"/>
<path d="M317.774 108.825L322.456 106.127L322.775 104.861C323.825 106.112 324.018 107.018 323.612 107.722L319.555 112.501L317.774 108.825Z" fill="white"/>
<path d="M294.186 181.891H288.678L288.865 191.956H292.771L294.186 181.891Z" fill="#FF825C"/>
<path d="M321.846 181.891H316.557L319.047 191.956H322.957L321.846 181.891Z" fill="#FF825C"/>
<path d="M294.825 116.551C294.201 117.017 284.089 125.052 283.779 127.072C283.47 129.092 287.142 128.55 287.142 128.55C287.142 128.55 291.706 128.864 292.117 126.14C292.528 123.416 294.825 116.551 294.825 116.551Z" fill="#6584F7"/>
<path d="M288.547 128.55L289.515 124.393L283.12 124.672L283.947 127.836L288.547 128.55Z" fill="white"/>
<path d="M292.781 194.821V191.956H288.876L288.81 196.006L292.781 194.821Z" fill="#F6C6C0"/>
<path d="M288.815 193.029V195.996L292.797 194.821L292.766 193.085L288.815 193.029Z" fill="white"/>
<path d="M281.953 198.497H293.288L292.781 194.821L291.442 194.457C291.191 194.215 290.893 194.026 290.567 193.904C290.24 193.782 289.891 193.729 289.543 193.747C289.194 193.766 288.853 193.856 288.541 194.012C288.229 194.168 287.953 194.387 287.73 194.654C287.73 194.654 285.65 196.173 284.636 196.173C282.577 196.173 281.806 196.563 281.963 198.492L281.953 198.497Z" fill="#3D3D3D"/>
<path d="M313.904 131.476L314.949 125.401L316.846 125.538L315.74 131.659L313.904 131.476Z" fill="white"/>
<path d="M318.24 125.143L323.124 124.925L325.153 120.11L318.24 125.143Z" fill="#E7E8E9"/>
<path d="M321.05 131.613H317.262L318.033 139.086L321.05 131.613Z" fill="#E7E8E9"/>
<path d="M301.616 127.775C301.612 128.452 301.407 129.113 301.027 129.674C300.648 130.235 300.11 130.671 299.482 130.927C298.855 131.184 298.165 131.249 297.5 131.114C296.836 130.98 296.226 130.652 295.748 130.172C295.269 129.691 294.944 129.081 294.814 128.416C294.683 127.752 294.752 127.064 295.012 126.439C295.273 125.814 295.713 125.28 296.277 124.904C296.841 124.528 297.504 124.328 298.182 124.328C298.635 124.328 299.083 124.417 299.501 124.59C299.919 124.764 300.298 125.018 300.618 125.339C300.937 125.659 301.189 126.039 301.36 126.458C301.532 126.876 301.619 127.324 301.616 127.775Z" fill="#B7BBFF"/>
<path d="M283.754 139.71C298.942 139.71 311.254 127.442 311.254 112.309C311.254 97.176 298.942 84.9082 283.754 84.9082C268.566 84.9082 256.254 97.176 256.254 112.309C256.254 127.442 268.566 139.71 283.754 139.71Z" fill="#28BD4B"/>
<path d="M302.488 125.284C301.91 125.887 302.519 126.631 303.954 127.522C305.389 128.413 308.838 131.142 309.644 131.162C310.451 131.183 314.569 130.367 314.569 130.367H314.696L314.848 126.413C314.317 126.062 313.809 125.679 313.326 125.264C313.245 125.203 310.998 123.239 309.883 123.011C308.767 122.783 308.696 124.925 308.696 124.925C308.696 124.925 303.208 124.626 302.534 125.239C302.513 125.255 302.494 125.274 302.478 125.295L302.488 125.284Z" fill="#F6CDC1"/>
<path d="M314.848 126.403L314.721 126.327L312.581 130.742C313.641 130.55 314.569 130.367 314.569 130.367H314.696L314.848 126.403Z" fill="#F69CB3"/>
<path d="M288.645 89.3414L286.896 88.4108C286.896 88.4108 284.85 91.4856 283.187 91.3634C281.524 91.2413 280.385 85.1849 281.336 83.5621C282.287 81.9393 286.681 81.5268 288.965 83.3977C290.31 84.3795 291.311 90.7636 288.636 89.3385L288.645 89.3414Z" fill="#F6CDC1"/>
<path d="M280.721 122.343C280.588 122.477 280.43 122.583 280.257 122.656C280.083 122.728 279.897 122.765 279.709 122.765C279.522 122.765 279.336 122.728 279.162 122.656C278.989 122.583 278.831 122.477 278.698 122.343L270.632 114.203C270.432 114.003 270.273 113.765 270.164 113.502C270.056 113.24 270 112.958 270 112.674C270 112.389 270.056 112.108 270.164 111.845C270.273 111.583 270.432 111.344 270.632 111.144L271.638 110.124C272.04 109.719 272.586 109.492 273.154 109.492C273.723 109.492 274.269 109.719 274.671 110.124L279.709 115.211L293.328 101.478C293.731 101.072 294.276 100.845 294.845 100.845C295.413 100.845 295.959 101.072 296.361 101.478L297.372 102.497C297.774 102.903 298 103.453 298 104.027C298 104.6 297.774 105.15 297.372 105.556L280.721 122.343Z" fill="white"/>
</svg>
