<svg width="24" height="25" viewBox="0 0 24 25" fill="none" xmlns="http://www.w3.org/2000/svg">
<rect y="0.144531" width="24" height="24" rx="12" fill="url(#paint0_radial)"/>
<path fill-rule="evenodd" clip-rule="evenodd" d="M12.0007 5.10547C10.0996 5.10547 9.86097 5.11383 9.11429 5.148C8.36908 5.18231 7.8604 5.30096 7.41532 5.47503C6.95492 5.65483 6.56437 5.89534 6.17528 6.28676C5.7859 6.67802 5.54673 7.07076 5.36736 7.5336C5.19381 7.98133 5.07569 8.493 5.04215 9.2421C5.00875 9.99296 5 10.233 5 12.1448C5 14.0566 5.00846 14.2957 5.04229 15.0466C5.07656 15.796 5.19454 16.3075 5.3675 16.7551C5.54644 17.2181 5.78561 17.6108 6.17485 18.0021C6.56379 18.3937 6.95433 18.6348 7.41444 18.8146C7.85982 18.9886 8.36864 19.1073 9.11371 19.1416C9.86038 19.1758 10.0988 19.1841 11.9998 19.1841C13.901 19.1841 14.1389 19.1758 14.8856 19.1416C15.6308 19.1073 16.14 18.9886 16.5854 18.8146C17.0457 18.6348 17.4356 18.3937 17.8246 18.0021C18.214 17.6108 18.4531 17.2181 18.6325 16.7553C18.8046 16.3075 18.9227 15.7959 18.9577 15.0468C18.9912 14.2959 19 14.0566 19 12.1448C19 10.233 18.9912 9.99311 18.9577 9.24225C18.9227 8.49285 18.8046 7.98133 18.6325 7.53374C18.4531 7.07076 18.214 6.67802 17.8246 6.28676C17.4352 5.89519 17.0458 5.65468 16.585 5.47503C16.1387 5.30096 15.6298 5.18231 14.8845 5.148C14.1379 5.11383 13.9002 5.10547 11.9985 5.10547H12.0007ZM11.7671 6.37386H11.7672L12.0005 6.37393C13.8695 6.37393 14.0911 6.38067 14.8291 6.4144C15.5116 6.44579 15.8821 6.56047 16.1288 6.65682C16.4555 6.78441 16.6884 6.93693 16.9332 7.1833C17.1782 7.42968 17.3299 7.66432 17.4571 7.99283C17.5529 8.24067 17.6671 8.61317 17.6981 9.2995C17.7317 10.0416 17.739 10.2645 17.739 12.1431C17.739 14.0217 17.7317 14.2446 17.6981 14.9867C17.6669 15.673 17.5529 16.0455 17.4571 16.2934C17.3302 16.6219 17.1782 16.8558 16.9332 17.102C16.6882 17.3484 16.4556 17.5009 16.1288 17.6285C15.8823 17.7253 15.5116 17.8397 14.8291 17.8711C14.0912 17.9048 13.8695 17.9121 12.0005 17.9121C10.1314 17.9121 9.90983 17.9048 9.1719 17.8711C8.4894 17.8394 8.11898 17.7247 7.87208 17.6283C7.54541 17.5008 7.31207 17.3482 7.06707 17.1019C6.82207 16.8555 6.6704 16.6214 6.54323 16.2928C6.44742 16.0449 6.33323 15.6724 6.30216 14.9861C6.26862 14.244 6.26191 14.0211 6.26191 12.1413C6.26191 10.2615 6.26862 10.0398 6.30216 9.29774C6.33337 8.61141 6.44742 8.23891 6.54323 7.99077C6.67011 7.66227 6.82207 7.42763 7.06707 7.18125C7.31207 6.93487 7.54541 6.78236 7.87208 6.65447C8.11883 6.55768 8.4894 6.44329 9.1719 6.41176C9.81766 6.38243 10.0679 6.37363 11.3726 6.37217V6.37393C11.4944 6.37374 11.6255 6.3738 11.767 6.37386H11.7671H11.7671ZM14.8974 8.3872C14.8974 7.9207 15.2737 7.54277 15.7374 7.54277V7.54248C16.2012 7.54248 16.5774 7.92084 16.5774 8.3872C16.5774 8.85355 16.2012 9.23192 15.7374 9.23192C15.2737 9.23192 14.8974 8.85355 14.8974 8.3872ZM12.0003 8.52959C10.0152 8.52967 8.40566 10.1482 8.40566 12.1446C8.40566 14.141 10.0152 15.7588 12.0005 15.7588C13.9857 15.7588 15.5947 14.141 15.5947 12.1446C15.5947 10.1482 13.9856 8.52959 12.0003 8.52959ZM14.334 12.1448C14.334 10.8488 13.2892 9.79834 12.0006 9.79834C10.7119 9.79834 9.66724 10.8488 9.66724 12.1448C9.66724 13.4406 10.7119 14.4912 12.0006 14.4912C13.2892 14.4912 14.334 13.4406 14.334 12.1448Z" fill="white"/>
<defs>
<radialGradient id="paint0_radial" cx="0" cy="0" r="1" gradientUnits="userSpaceOnUse" gradientTransform="translate(6.37503 25.993) rotate(-90) scale(23.7858)">
<stop stop-color="#FFDD55"/>
<stop offset="0.1" stop-color="#FFDD55"/>
<stop offset="0.5" stop-color="#FF543E"/>
<stop offset="1" stop-color="#C837AB"/>
</radialGradient>
</defs>
</svg>
