<svg width="36" height="36" viewBox="0 0 36 36" fill="none" xmlns="http://www.w3.org/2000/svg">
<rect width="36" height="36" rx="18" fill="url(#paint0_radial)"/>
<path fill-rule="evenodd" clip-rule="evenodd" d="M18.0009 7.94385C15.2851 7.94385 14.9442 7.95579 13.8776 8.0046C12.813 8.05363 12.0863 8.22312 11.4505 8.4718C10.7927 8.72865 10.2348 9.07223 9.67898 9.6314C9.12272 10.1904 8.78105 10.7514 8.5248 11.4126C8.27688 12.0522 8.10813 12.7832 8.06021 13.8533C8.0125 14.926 8 15.2689 8 18C8 20.7311 8.01208 21.0728 8.06042 22.1455C8.10938 23.216 8.27792 23.9468 8.52501 24.5862C8.78063 25.2476 9.1223 25.8087 9.67835 26.3676C10.234 26.927 10.7919 27.2714 11.4492 27.5283C12.0855 27.7769 12.8123 27.9464 13.8767 27.9955C14.9434 28.0443 15.284 28.0562 17.9997 28.0562C20.7158 28.0562 21.0556 28.0443 22.1222 27.9955C23.1868 27.9464 23.9143 27.7769 24.5506 27.5283C25.2081 27.2714 25.7652 26.927 26.3208 26.3676C26.8771 25.8087 27.2187 25.2476 27.475 24.5864C27.7208 23.9468 27.8896 23.2158 27.9396 22.1457C27.9875 21.073 28 20.7311 28 18C28 15.2689 27.9875 14.9262 27.9396 13.8535C27.8896 12.783 27.7208 12.0522 27.475 11.4128C27.2187 10.7514 26.8771 10.1904 26.3208 9.6314C25.7646 9.07203 25.2083 8.72844 24.55 8.4718C23.9125 8.22312 23.1854 8.05363 22.1208 8.0046C21.0541 7.95579 20.7145 7.94385 17.9978 7.94385H18.0009ZM17.6674 9.756H17.6677L18.0009 9.7561C20.671 9.7561 20.9874 9.76573 22.0418 9.81392C23.0168 9.85875 23.546 10.0226 23.8985 10.1602C24.3652 10.3425 24.6979 10.5604 25.0477 10.9123C25.3977 11.2643 25.6144 11.5995 25.796 12.0688C25.9329 12.4229 26.096 12.955 26.1404 13.9355C26.1883 14.9956 26.1987 15.314 26.1987 17.9978C26.1987 20.6815 26.1883 21 26.1404 22.06C26.0958 23.0405 25.9329 23.5727 25.796 23.9267C25.6148 24.396 25.3977 24.7302 25.0477 25.0819C24.6977 25.4339 24.3654 25.6518 23.8985 25.834C23.5464 25.9723 23.0168 26.1357 22.0418 26.1806C20.9876 26.2287 20.671 26.2392 18.0009 26.2392C15.3307 26.2392 15.0143 26.2287 13.9601 26.1806C12.9851 26.1353 12.4559 25.9715 12.1032 25.8338C11.6365 25.6516 11.3032 25.4337 10.9532 25.0817C10.6032 24.7297 10.3865 24.3954 10.2048 23.9259C10.068 23.5718 9.90482 23.0397 9.86045 22.0592C9.81253 20.9991 9.80295 20.6807 9.80295 17.9953C9.80295 15.3098 9.81253 14.9931 9.86045 13.933C9.90503 12.9525 10.068 12.4204 10.2048 12.0659C10.3861 11.5966 10.6032 11.2614 10.9532 10.9094C11.3032 10.5574 11.6365 10.3396 12.1032 10.1569C12.4557 10.0186 12.9851 9.85519 13.9601 9.81015C14.8826 9.76825 15.2401 9.75568 17.1039 9.75358V9.7561C17.278 9.75582 17.4653 9.75591 17.6674 9.756H17.6674H17.6674ZM22.1389 12.6321C22.1389 11.9657 22.6764 11.4258 23.3389 11.4258V11.4254C24.0014 11.4254 24.5389 11.9659 24.5389 12.6321C24.5389 13.2983 24.0014 13.8388 23.3389 13.8388C22.6764 13.8388 22.1389 13.2983 22.1389 12.6321ZM18.0007 12.8358C15.1648 12.8359 12.8655 15.1481 12.8655 18C12.8655 20.852 15.1649 23.1633 18.0009 23.1633C20.837 23.1633 23.1356 20.852 23.1356 18C23.1356 15.1481 20.8368 12.8358 18.0007 12.8358ZM21.3343 18C21.3343 16.1486 19.8418 14.648 18.0009 14.648C16.1599 14.648 14.6676 16.1486 14.6676 18C14.6676 19.8512 16.1599 21.3521 18.0009 21.3521C19.8418 21.3521 21.3343 19.8512 21.3343 18Z" fill="white"/>
<defs>
<radialGradient id="paint0_radial" cx="0" cy="0" r="1" gradientUnits="userSpaceOnUse" gradientTransform="translate(9.56255 38.7728) rotate(-90) scale(35.6787)">
<stop stop-color="#FFDD55"/>
<stop offset="0.1" stop-color="#FFDD55"/>
<stop offset="0.5" stop-color="#FF543E"/>
<stop offset="1" stop-color="#C837AB"/>
</radialGradient>
</defs>
</svg>
