<svg width="30" height="31" viewBox="0 0 30 31" fill="none" xmlns="http://www.w3.org/2000/svg">
<path d="M19.6875 15.1667C19.6875 16.4099 19.1936 17.6021 18.3146 18.4812C17.4355 19.3603 16.2432 19.8542 15 19.8542C13.7568 19.8542 12.5645 19.3603 11.6854 18.4812C10.8064 17.6021 10.3125 16.4099 10.3125 15.1667C10.3125 14.8995 10.3406 14.6385 10.3891 14.3854H8.75V20.6307C8.75 21.0651 9.10156 21.4167 9.53594 21.4167H20.4656C20.6738 21.4162 20.8733 21.3333 21.0204 21.1859C21.1674 21.0386 21.25 20.8389 21.25 20.6307V14.3854H19.6109C19.6594 14.6385 19.6875 14.8995 19.6875 15.1667ZM15 18.2917C15.4105 18.2916 15.8169 18.2106 16.1961 18.0534C16.5753 17.8962 16.9198 17.6659 17.21 17.3756C17.5002 17.0853 17.7304 16.7406 17.8874 16.3613C18.0444 15.9821 18.1251 15.5756 18.125 15.1651C18.1249 14.7546 18.0439 14.3482 17.8868 13.969C17.7296 13.5898 17.4993 13.2452 17.2089 12.9551C16.9186 12.6649 16.574 12.4347 16.1947 12.2777C15.8154 12.1207 15.4089 12.04 14.9984 12.0401C14.1694 12.0403 13.3745 12.3698 12.7884 12.9562C12.2024 13.5425 11.8732 14.3376 11.8734 15.1667C11.8736 15.9957 12.2032 16.7906 12.7895 17.3767C13.3759 17.9627 14.171 18.2919 15 18.2917ZM18.75 11.8854H20.6234C20.7479 11.8854 20.8673 11.8361 20.9554 11.7482C21.0436 11.6603 21.0933 11.5411 21.0937 11.4167V9.54322C21.0937 9.41848 21.0442 9.29886 20.956 9.21066C20.8678 9.12246 20.7482 9.07291 20.6234 9.07291H18.75C18.6253 9.07291 18.5056 9.12246 18.4174 9.21066C18.3292 9.29886 18.2797 9.41848 18.2797 9.54322V11.4167C18.2812 11.6745 18.4922 11.8854 18.75 11.8854ZM15 0.166656C11.0218 0.166656 7.20644 1.74701 4.3934 4.56005C1.58035 7.3731 0 11.1884 0 15.1667C0 19.1449 1.58035 22.9602 4.3934 25.7733C7.20644 28.5863 11.0218 30.1667 15 30.1667C16.9698 30.1667 18.9204 29.7787 20.7403 29.0248C22.5601 28.271 24.2137 27.1661 25.6066 25.7733C26.9995 24.3804 28.1044 22.7268 28.8582 20.9069C29.612 19.087 30 17.1365 30 15.1667C30 13.1968 29.612 11.2463 28.8582 9.4264C28.1044 7.60652 26.9995 5.95293 25.6066 4.56005C24.2137 3.16718 22.5601 2.06228 20.7403 1.30846C18.9204 0.554643 16.9698 0.166656 15 0.166656ZM22.8125 21.2432C22.8125 22.1979 22.0312 22.9792 21.0766 22.9792H8.92344C7.96875 22.9792 7.1875 22.1979 7.1875 21.2432V9.09009C7.1875 8.13541 7.96875 7.35416 8.92344 7.35416H21.0766C22.0312 7.35416 22.8125 8.13541 22.8125 9.09009V21.2432Z" fill="black"/>
</svg>
