<svg width="120" height="40" viewBox="0 0 120 40" fill="none" xmlns="http://www.w3.org/2000/svg">
<path fill-rule="evenodd" clip-rule="evenodd" d="M112.598 0H7.32887C1.04595 0 0 2.16482 0 7.31318V32.7328C0 37.8772 2.15196 40 7.32177 40H112.599C117.773 40 120 37.8742 120 32.7261V7.31318C120 2.16482 117.771 0 112.598 0Z" fill="#CFD1D2"/>
<path fill-rule="evenodd" clip-rule="evenodd" d="M31.1323 24.8986C30.5307 26.2316 30.2429 26.8266 29.4687 28.0047C28.388 29.65 26.8653 31.6982 24.9786 31.7154C23.3017 31.7309 22.8712 30.624 20.5958 30.6366C18.3204 30.649 17.8451 31.7348 16.168 31.7197C14.2811 31.7021 12.8382 29.8522 11.7576 28.2077C8.73615 23.6082 8.42039 18.2106 10.2836 15.341C11.608 13.3017 13.6966 12.108 15.6612 12.108C17.6611 12.108 18.9184 13.2048 20.5719 13.2048C22.1758 13.2048 23.1537 12.1062 25.4656 12.1062C27.2133 12.1062 29.0652 13.0576 30.3849 14.7037C26.0616 17.0727 26.7637 23.2478 31.1323 24.8986Z" fill="white"/>
<path d="M49.5455 20.1818C49.5455 16.4205 47.25 14.2045 44.1989 14.2045C41.142 14.2045 38.8523 16.4205 38.8523 20.1818C38.8523 23.9375 41.142 26.1591 44.1989 26.1591C47.25 26.1591 49.5455 23.9432 49.5455 20.1818ZM47.4261 20.1818C47.4261 22.8295 46.0966 24.267 44.1989 24.267C42.3068 24.267 40.9716 22.8295 40.9716 20.1818C40.9716 17.5341 42.3068 16.0966 44.1989 16.0966C46.0966 16.0966 47.4261 17.5341 47.4261 20.1818ZM57.0099 22.3295C57.0099 23.6591 56.0611 24.3182 55.152 24.3182C54.1634 24.3182 53.5043 23.6193 53.5043 22.5114V17.2727H51.4474V22.8295C51.4474 24.9261 52.6406 26.1136 54.3565 26.1136C55.6634 26.1136 56.5838 25.4261 56.9815 24.4489H57.0724V26H59.0668V17.2727H57.0099V22.3295ZM65.5398 17.2727H63.8182V15.1818H61.7614V17.2727H60.5227V18.8636H61.7614V23.7159C61.75 25.358 62.9432 26.1648 64.4886 26.1193C65.0739 26.1023 65.4773 25.9886 65.6989 25.9148L65.3523 24.3068C65.2386 24.3352 65.0057 24.3864 64.75 24.3864C64.233 24.3864 63.8182 24.2045 63.8182 23.375V18.8636H65.5398V17.2727ZM78.1264 19.5795C77.8423 18.1023 76.6605 17.1591 74.6151 17.1591C72.5128 17.1591 71.081 18.1932 71.0866 19.8068C71.081 21.0795 71.8651 21.9205 73.5412 22.267L75.0298 22.5795C75.831 22.7557 76.206 23.0795 76.206 23.5739C76.206 24.1705 75.5582 24.6193 74.581 24.6193C73.6378 24.6193 73.0241 24.2102 72.848 23.4261L70.8423 23.6193C71.098 25.2216 72.4446 26.1705 74.5866 26.1705C76.7685 26.1705 78.3082 25.0398 78.3139 23.3864C78.3082 22.142 77.5071 21.3807 75.8594 21.0227L74.3707 20.7045C73.4844 20.5057 73.1321 20.1989 73.1378 19.6932C73.1321 19.1023 73.7855 18.6932 74.6435 18.6932C75.5923 18.6932 76.0923 19.2102 76.2514 19.7841L78.1264 19.5795ZM83.8168 26.1705C86.3736 26.1705 87.9986 24.3693 87.9986 21.6705C87.9986 18.9659 86.3736 17.1591 83.8168 17.1591C81.2599 17.1591 79.6349 18.9659 79.6349 21.6705C79.6349 24.3693 81.2599 26.1705 83.8168 26.1705ZM83.8281 24.5227C82.4134 24.5227 81.7202 23.2614 81.7202 21.6648C81.7202 20.0682 82.4134 18.7898 83.8281 18.7898C85.2202 18.7898 85.9134 20.0682 85.9134 21.6648C85.9134 23.2614 85.2202 24.5227 83.8281 24.5227ZM93.5511 26.1705C96.108 26.1705 97.733 24.3693 97.733 21.6705C97.733 18.9659 96.108 17.1591 93.5511 17.1591C90.9943 17.1591 89.3693 18.9659 89.3693 21.6705C89.3693 24.3693 90.9943 26.1705 93.5511 26.1705ZM93.5625 24.5227C92.1477 24.5227 91.4545 23.2614 91.4545 21.6648C91.4545 20.0682 92.1477 18.7898 93.5625 18.7898C94.9545 18.7898 95.6477 20.0682 95.6477 21.6648C95.6477 23.2614 94.9545 24.5227 93.5625 24.5227ZM101.536 20.8864C101.536 19.625 102.297 18.8977 103.382 18.8977C104.445 18.8977 105.081 19.5966 105.081 20.7614V26H107.138V20.4432C107.143 18.3523 105.95 17.1591 104.149 17.1591C102.842 17.1591 101.945 17.7841 101.547 18.7557H101.445V17.2727H99.4787V26H101.536V20.8864Z" fill="white"/>
<path fill-rule="evenodd" clip-rule="evenodd" d="M23.712 10.269C24.5515 9.19086 25.19 7.66757 24.9584 6.11145C23.5866 6.20592 21.9809 7.07898 21.0435 8.21722C20.1928 9.25074 19.4907 10.7833 19.7641 12.2726C21.2621 12.319 22.812 11.4243 23.712 10.269Z" fill="white"/>
</svg>
