<svg width="24" height="24" viewBox="0 0 24 24" fill="none" xmlns="http://www.w3.org/2000/svg">
<path fill-rule="evenodd" clip-rule="evenodd" d="M12 20C16.4183 20 20 16.4183 20 12C20 7.58172 16.4183 4 12 4C7.58172 4 4 7.58172 4 12C4 16.4183 7.58172 20 12 20ZM14.8284 8.25526C14.0783 7.45153 13.0609 7 12 7C10.9391 7 9.92172 7.45153 9.17157 8.25526C8.42143 9.05898 8 10.1491 8 11.2857C8 13.06 9.26222 14.919 11.7333 16.9048C11.8103 16.9666 11.9038 17 12 17C12.0962 17 12.1897 16.9666 12.2667 16.9048C14.7378 14.919 16 13.06 16 11.2857C16 10.1491 15.5786 9.05898 14.8284 8.25526ZM11.0572 10.2756C11.3072 10.0077 11.6464 9.85714 12 9.85714C12.3536 9.85714 12.6928 10.0077 12.9428 10.2756C13.1929 10.5435 13.3333 10.9068 13.3333 11.2857C13.3333 11.6646 13.1929 12.028 12.9428 12.2959C12.6928 12.5638 12.3536 12.7143 12 12.7143C11.6464 12.7143 11.3072 12.5638 11.0572 12.2959C10.8071 12.028 10.6667 11.6646 10.6667 11.2857C10.6667 10.9068 10.8071 10.5435 11.0572 10.2756Z" fill="black"/>
</svg>
