<svg width="16" height="16" viewBox="0 0 16 16" fill="none" xmlns="http://www.w3.org/2000/svg">
<path fill-rule="evenodd" clip-rule="evenodd" d="M8 16C12.4183 16 16 12.4183 16 8C16 3.58172 12.4183 0 8 0C3.58172 0 0 3.58172 0 8C0 12.4183 3.58172 16 8 16ZM10.8284 4.25526C10.0783 3.45153 9.06087 3 8 3C6.93913 3 5.92172 3.45153 5.17157 4.25526C4.42143 5.05898 4 6.14907 4 7.28571C4 9.06 5.26222 10.919 7.73333 12.9048C7.81026 12.9666 7.90384 13 8 13C8.09616 13 8.18974 12.9666 8.26667 12.9048C10.7378 10.919 12 9.06 12 7.28571C12 6.14907 11.5786 5.05898 10.8284 4.25526ZM7.05719 6.27556C7.30724 6.00765 7.64638 5.85714 8 5.85714C8.35362 5.85714 8.69276 6.00765 8.94281 6.27556C9.19286 6.54347 9.33333 6.90683 9.33333 7.28571C9.33333 7.6646 9.19286 8.02796 8.94281 8.29587C8.69276 8.56378 8.35362 8.71429 8 8.71429C7.64638 8.71429 7.30724 8.56378 7.05719 8.29587C6.80714 8.02796 6.66667 7.6646 6.66667 7.28571C6.66667 6.90683 6.80714 6.54347 7.05719 6.27556Z" fill="black"/>
</svg>
