<svg width="25" height="30" viewBox="0 0 25 30" fill="none" xmlns="http://www.w3.org/2000/svg">
<path d="M12.5 0C15.8152 0 18.9946 1.31696 21.3388 3.66117C23.683 6.00537 25 9.18479 25 12.5C25 17.675 21.0556 23.0972 13.3333 28.8889C13.0929 29.0692 12.8005 29.1667 12.5 29.1667C12.1995 29.1667 11.9071 29.0692 11.6667 28.8889C3.94444 23.0972 0 17.675 0 12.5C0 9.18479 1.31696 6.00537 3.66116 3.66117C6.00537 1.31696 9.18479 0 12.5 0ZM12.5 8.33333C11.3949 8.33333 10.3351 8.77232 9.55372 9.55372C8.77232 10.3351 8.33333 11.3949 8.33333 12.5C8.33333 13.6051 8.77232 14.6649 9.55372 15.4463C10.3351 16.2277 11.3949 16.6667 12.5 16.6667C13.6051 16.6667 14.6649 16.2277 15.4463 15.4463C16.2277 14.6649 16.6667 13.6051 16.6667 12.5C16.6667 11.3949 16.2277 10.3351 15.4463 9.55372C14.6649 8.77232 13.6051 8.33333 12.5 8.33333Z" fill="black"/>
</svg>
