<svg width="17" height="16" viewBox="0 0 17 16" fill="none" xmlns="http://www.w3.org/2000/svg">
<path fill-rule="evenodd" clip-rule="evenodd" d="M16.5 8C16.5 12.4183 12.9183 16 8.5 16C4.08172 16 0.5 12.4183 0.5 8C0.5 3.58172 4.08172 0 8.5 0C12.9183 0 16.5 3.58172 16.5 8ZM4.05556 5.44444C4.05556 4.95352 4.45352 4.55556 4.94444 4.55556H12.0556C12.5465 4.55556 12.9444 4.95352 12.9444 5.44444V10.7778C12.9444 11.2687 12.5465 11.6667 12.0556 11.6667H4.94444C4.45352 11.6667 4.05556 11.2687 4.05556 10.7778V5.44444ZM4.94444 5.44444V10.7778H12.0556V5.44444H4.94444ZM5.74653 5.6302C5.5423 5.49404 5.26636 5.54923 5.1302 5.75347C4.99404 5.9577 5.04923 6.23364 5.25347 6.3698L8.25347 8.3698L8.5 8.53416L8.74653 8.3698L11.7465 6.3698C11.9508 6.23364 12.006 5.9577 11.8698 5.75347C11.7336 5.54923 11.4577 5.49404 11.2535 5.6302L8.5 7.46584L5.74653 5.6302Z" fill="black"/>
</svg>
