<svg width="24" height="24" viewBox="0 0 24 24" fill="none" xmlns="http://www.w3.org/2000/svg">
<path fill-rule="evenodd" clip-rule="evenodd" d="M20 12C20 16.4183 16.4183 20 12 20C7.58172 20 4 16.4183 4 12C4 7.58172 7.58172 4 12 4C16.4183 4 20 7.58172 20 12ZM7.55556 9.44444C7.55556 8.95352 7.95352 8.55556 8.44444 8.55556H15.5556C16.0465 8.55556 16.4444 8.95352 16.4444 9.44444V14.7778C16.4444 15.2687 16.0465 15.6667 15.5556 15.6667H8.44444C7.95352 15.6667 7.55556 15.2687 7.55556 14.7778V9.44444ZM8.44444 9.44444V14.7778H15.5556V9.44444H8.44444ZM9.24653 9.6302C9.0423 9.49404 8.76636 9.54923 8.6302 9.75347C8.49404 9.9577 8.54923 10.2336 8.75347 10.3698L11.7535 12.3698L12 12.5342L12.2465 12.3698L15.2465 10.3698C15.4508 10.2336 15.506 9.9577 15.3698 9.75347C15.2336 9.54923 14.9577 9.49404 14.7535 9.6302L12 11.4658L9.24653 9.6302Z" fill="black"/>
</svg>
