<svg width="194" height="210" viewBox="0 0 194 210" fill="none" xmlns="http://www.w3.org/2000/svg">
<path d="M58.0124 72.8438V169.502H93.8857C93.2223 167.192 92.8789 164.806 92.8647 162.408C92.9021 158.69 93.7557 155.022 95.3685 151.649C96.9814 148.276 99.3165 145.274 102.218 142.845C105.12 140.416 108.523 138.614 112.199 137.559C115.875 136.505 119.74 136.222 123.537 136.73C127.335 137.238 130.977 138.525 134.222 140.505C137.466 142.485 140.239 145.112 142.355 148.213C144.471 151.314 145.882 154.816 146.493 158.486C147.105 162.157 146.903 165.912 145.902 169.502H181.251V72.8438H58.0124Z" fill="#F2F4FF"/>
<path d="M154.681 49.8099C155.248 49.739 155.778 49.5019 156.199 49.131C156.62 48.7602 156.911 48.2736 157.032 47.738C157.153 47.2024 157.099 46.644 156.877 46.139C156.655 45.634 156.275 45.2073 155.79 44.9172L53.2913 1.38744C51.8078 0.749704 50.2076 0.3993 48.5824 0.356359C46.9573 0.313417 45.3394 0.578783 43.8215 1.13721C42.3037 1.69564 40.9159 2.53613 39.7378 3.61039C38.5598 4.68465 37.6147 5.97151 36.9569 7.39704L1.09894 84.5114C-0.2378 87.389 -0.328543 90.6577 0.846645 93.5994C2.02183 96.5412 4.36683 98.9153 7.36646 100.2L28.0271 108.763C28.6254 109.019 29.2811 109.129 29.9348 109.081C30.5884 109.033 31.2192 108.83 31.7701 108.489C32.321 108.148 32.7744 107.681 33.0894 107.13C33.4043 106.579 33.5707 105.961 33.5735 105.332V72.572C33.5809 66.5514 36.0785 60.7794 40.5184 56.5222C44.9583 52.2649 50.978 49.8702 57.257 49.8631H154.681V49.8099Z" fill="#6E7678"/>
<path d="M180.802 60.7615H56.1009C52.7626 60.7615 49.561 62.0345 47.2005 64.3003C44.84 66.5662 43.5138 69.6394 43.5138 72.8438V157.393C43.5102 158.981 43.833 160.555 44.464 162.024C45.0949 163.493 46.0215 164.829 47.1906 165.953C48.3598 167.078 49.7486 167.97 51.2776 168.579C52.8065 169.188 54.4456 169.502 56.1009 169.502H72.8094C72.3947 167.108 72.1898 164.684 72.1968 162.258C72.2076 159.568 72.4685 156.884 72.9765 154.238H59.4983V113.688H177.405V154.131H163.871C164.389 156.776 164.66 159.46 164.678 162.151C164.675 164.569 164.461 166.983 164.038 169.368H180.746C182.399 169.368 184.036 169.055 185.563 168.448C187.09 167.841 188.478 166.951 189.647 165.829C190.816 164.707 191.743 163.375 192.375 161.909C193.008 160.443 193.333 158.872 193.333 157.286V72.8438C193.326 69.6415 191.998 66.5725 189.639 64.3081C187.28 62.0438 184.082 60.7686 180.746 60.7615H180.802ZM177.405 88.7752H59.4983V76.0782H177.405V88.7752Z" fill="#3366FF"/>
<path d="M119.15 198.397C137.909 198.397 153.116 183.417 153.116 164.938C153.116 146.46 137.909 131.48 119.15 131.48C100.392 131.48 85.1852 146.46 85.1852 164.938C85.1852 183.417 100.392 198.397 119.15 198.397Z" fill="#28BD4B"/>
<path fill-rule="evenodd" clip-rule="evenodd" d="M132.296 155.213C133.77 156.664 133.77 159.018 132.296 160.47L117.2 175.34C115.726 176.792 113.337 176.792 111.863 175.34L104.315 167.905C102.841 166.453 102.841 164.1 104.315 162.648C105.789 161.196 108.179 161.196 109.652 162.648L114.532 167.454L126.959 155.213C128.433 153.761 130.822 153.761 132.296 155.213Z" fill="white"/>
</svg>
