<svg width="194" height="210" viewBox="0 0 194 210" fill="none" xmlns="http://www.w3.org/2000/svg">
<path d="M58.3934 72.4919V169.15H94.2667C93.6032 166.84 93.2599 164.454 93.2457 162.056C93.2831 158.338 94.1366 154.67 95.7495 151.297C97.3623 147.924 99.6975 144.922 102.599 142.493C105.501 140.064 108.904 138.262 112.58 137.207C116.256 136.153 120.121 135.87 123.918 136.378C127.716 136.886 131.358 138.173 134.603 140.153C137.847 142.133 140.62 144.76 142.736 147.861C144.852 150.962 146.263 154.464 146.874 158.135C147.486 161.805 147.284 165.56 146.283 169.15H181.632V72.4919H58.3934Z" fill="#F2F4FF"/>
<path d="M155.062 49.4581C155.629 49.3872 156.159 49.1501 156.58 48.7792C157.001 48.4083 157.292 47.9218 157.413 47.3862C157.534 46.8506 157.48 46.2921 157.258 45.7871C157.036 45.2822 156.656 44.8554 156.171 44.5653L53.6722 1.03557C52.1888 0.397837 50.5885 0.0474328 48.9634 0.00449094C47.3383 -0.0384509 45.7203 0.226916 44.2025 0.785346C42.6847 1.34378 41.2969 2.18426 40.1188 3.25852C38.9408 4.33278 37.9957 5.61964 37.3379 7.04517L1.47992 84.1595C0.143181 87.0371 0.0524383 90.3059 1.22763 93.2476C2.40281 96.1893 4.74781 98.5634 7.74744 99.8483L28.4081 108.411C29.0064 108.667 29.6621 108.777 30.3157 108.729C30.9694 108.681 31.6002 108.478 32.1511 108.137C32.702 107.797 33.1554 107.329 33.4703 106.778C33.7853 106.227 33.9517 105.609 33.9545 104.98V72.2201C33.9619 66.1995 36.4594 60.4275 40.8994 56.1703C45.3393 51.9131 51.359 49.5183 57.638 49.5112H155.062V49.4581Z" fill="#6E7678"/>
<path d="M181.183 60.4096H56.4818C53.1435 60.4096 49.9419 61.6826 47.5814 63.9484C45.2209 66.2143 43.8947 69.2875 43.8947 72.4919V157.041C43.8911 158.63 44.214 160.204 44.8449 161.673C45.4758 163.142 46.4024 164.477 47.5716 165.601C48.7407 166.726 50.1296 167.619 51.6585 168.227C53.1875 168.836 54.8265 169.15 56.4818 169.15H73.1903C72.7756 166.756 72.5707 164.333 72.5777 161.906C72.5885 159.216 72.8494 156.532 73.3574 153.886H59.8792V113.336H177.786V153.78H164.252C164.77 156.424 165.041 159.108 165.059 161.799C165.056 164.217 164.842 166.632 164.419 169.016H181.127C182.78 169.016 184.417 168.703 185.944 168.096C187.471 167.489 188.859 166.599 190.028 165.477C191.196 164.355 192.124 163.023 192.756 161.557C193.389 160.092 193.714 158.52 193.714 156.934V72.4919C193.707 69.2896 192.378 66.2206 190.02 63.9562C187.661 61.6919 184.463 60.4167 181.127 60.4096H181.183ZM177.786 88.4233H59.8792V75.7263H177.786V88.4233Z" fill="#3366FF"/>
<path d="M119.531 198.045C138.29 198.045 153.497 183.065 153.497 164.587C153.497 146.108 138.29 131.128 119.531 131.128C100.773 131.128 85.5662 146.108 85.5662 164.587C85.5662 183.065 100.773 198.045 119.531 198.045Z" fill="#FB3D04"/>
<path fill-rule="evenodd" clip-rule="evenodd" d="M123.156 149.919C123.156 147.754 121.4 145.999 119.235 145.999C117.07 145.999 115.315 147.754 115.315 149.919V165.601C115.315 167.766 117.07 169.521 119.235 169.521C121.4 169.521 123.156 167.766 123.156 165.601V149.919ZM119.235 177.362C117.07 177.362 115.315 179.117 115.315 181.282C115.315 183.447 117.07 185.202 119.235 185.202H119.274C121.44 185.202 123.195 183.447 123.195 181.282C123.195 179.117 121.44 177.362 119.274 177.362H119.235Z" fill="white"/>
</svg>
