<svg width="18" height="18" viewBox="0 0 18 18" fill="none" xmlns="http://www.w3.org/2000/svg">
<path d="M12.5 11.4434H11.71L11.43 11.1734C12.41 10.0334 13 8.55336 13 6.94336C13 3.35336 10.09 0.443359 6.5 0.443359C2.91 0.443359 0 3.35336 0 6.94336C0 10.5334 2.91 13.4434 6.5 13.4434C8.11 13.4434 9.59 12.8534 10.73 11.8734L11 12.1534V12.9434L16 17.9334L17.49 16.4434L12.5 11.4434ZM6.5 11.4434C4.01 11.4434 2 9.43336 2 6.94336C2 4.45336 4.01 2.44336 6.5 2.44336C8.99 2.44336 11 4.45336 11 6.94336C11 9.43336 8.99 11.4434 6.5 11.4434Z" fill="#4F4F4F"/>
</svg>
