<svg width="80" height="40" viewBox="0 0 80 40" fill="none" xmlns="http://www.w3.org/2000/svg">
  <path fill-rule="evenodd" clip-rule="evenodd" d="M17.1546 6.56695V10.9466L17.0266 10.9829C15.3419 10.2707 14.2411 9.95974 12.0712 9.56005C11.3885 9.42684 10.7303 9.3602 10.0964 9.3602C9.47466 9.3602 8.93828 9.41473 8.48725 9.52373C8.04839 9.63273 7.6705 9.79017 7.35355 9.99607C6.68307 10.4321 6.34782 11.0013 6.34782 11.7038C6.34782 12.6243 6.64042 13.3147 7.22554 13.7749C7.95697 14.3321 9.1699 14.7257 10.8643 14.9558C12.5588 15.1738 13.918 15.4766 14.942 15.8642C15.966 16.2518 16.8072 16.7423 17.4654 17.3357C18.7088 18.45 19.3305 20.0246 19.3305 22.0593C19.3305 24.7239 18.3187 26.7768 16.2952 28.2181C14.5641 29.4535 12.3821 30.0712 9.74893 30.0712C7.62782 30.0712 5.53107 29.6715 3.45873 28.8722C2.77607 28.6057 2.17874 28.2969 1.66675 27.9456L1.66678 21.8777L1.73992 21.8232C3.25152 24.415 5.93335 25.711 9.38323 25.711C11.8335 25.711 13.4548 25.1236 14.2472 23.9487C14.5154 23.549 14.6495 23.107 14.6495 22.6225C14.6495 22.1259 14.5702 21.7202 14.4117 21.4053C14.2533 21.0783 13.9912 20.7997 13.6255 20.5696C12.9184 20.1093 11.7299 19.8005 10.0598 19.643C8.38973 19.4856 7.02441 19.1889 5.96384 18.7528C4.90327 18.3168 4.05606 17.7778 3.42216 17.1359C2.27627 15.9732 1.70332 14.3502 1.70332 12.267C1.70332 10.1111 2.46521 8.36706 3.98901 7.03477C5.53717 5.67826 7.62173 5 10.2426 5C12.8758 5 16.1966 5.99715 17.1546 6.56695ZM47.1596 13.1109C48.4653 12.436 49.8003 12.0985 51.1641 12.0985C52.5282 12.0985 53.7 12.3138 54.6792 12.7444C55.6701 13.1633 56.5388 13.7684 57.2849 14.5597C58.9054 16.3168 59.7154 18.5394 59.7154 21.2275C59.7154 24.1715 58.8354 26.5454 57.075 28.3491C55.3846 30.083 53.2801 30.9499 50.7621 30.9499C48.547 30.9499 46.7225 30.3739 45.2886 29.2219C43.6798 27.9185 42.8753 26.1207 42.8753 23.8283V5.2849H47.1596V13.1109ZM47.1596 23.7759C47.1596 25.824 48.4362 26.848 50.9895 26.848C52.2368 26.848 53.2861 26.3011 54.1371 25.2072C54.9997 24.0901 55.4311 22.6995 55.4311 21.0355C55.4311 19.3598 54.9764 18.0972 54.0673 17.2478C53.251 16.4914 52.1553 16.1132 50.7795 16.1132C49.9519 16.1132 49.0365 16.3925 48.0339 16.951C47.7191 17.1256 47.4277 17.3176 47.1596 17.527V23.7759ZM61.2795 35.8373L60.1254 36.7624L64.6371 38.3333C66.6305 36.7507 69.3821 31.8401 72.8912 23.6014L75.5143 17.1256C76.3886 14.8448 77.1288 13.2855 77.7351 12.4476H72.6986L68.7992 22.9904L64.602 12.4476H59.7057L66.4032 27.6684L65.5989 29.6059C64.4564 32.3521 63.0165 34.4293 61.2795 35.8373ZM40.2171 21.575C40.2171 26.6755 36.102 30.8103 31.026 30.8103C30.3018 30.8103 29.5971 30.7261 28.9211 30.567C27.8622 31.3598 26.2832 32.0947 24.09 31.9302C23.5404 31.889 23.5565 31.5188 23.9068 31.378C25.4133 30.7725 26.1613 30.0146 26.4715 29.5985C23.7016 28.0076 21.8348 25.0104 21.8348 21.575C21.8348 16.4745 25.9499 12.3397 31.026 12.3397C36.102 12.3397 40.2171 16.4745 40.2171 21.575ZM29.206 18.0549C28.1514 18.0254 27.9171 18.4081 27.8292 18.7907C26.9211 25.5603 26.9211 25.6781 26.9211 26.0313C26.9211 26.3845 27.2433 26.7083 27.5656 26.7083H34.3029C34.5371 26.7083 34.9767 26.5905 35.0058 26.0019C34.9998 25.9404 34.9949 25.8877 34.9901 25.8346C34.9485 25.3796 34.9049 24.9066 34.0391 18.7907C34.01 18.6435 33.7756 17.996 32.7795 18.0549C32.6625 17.1719 32.018 16.4655 31.0513 16.436C30.1727 16.436 29.3231 16.907 29.206 18.0549ZM30.9929 16.907C31.6451 16.907 32.1841 17.3937 32.2699 18.0254H29.7159C29.8016 17.3937 30.3408 16.907 30.9929 16.907Z" fill="#3366FF" />
</svg>
  