<svg width="19" height="20" viewBox="0 0 19 20" fill="none" xmlns="http://www.w3.org/2000/svg">
<path d="M9.36928 8.49755e-09C7.29715 0.0108254 5.28643 0.7047 3.64863 1.97412C2.01083 3.24355 0.837373 5.01766 0.310063 7.0216C-0.217246 9.02554 -0.0689737 11.1474 0.731909 13.0586C1.53279 14.9697 2.94158 16.5634 4.74001 17.5927C4.04784 18.4272 3.1409 19.0568 2.1171 19.4135C1.76205 19.5527 1.74685 19.9381 2.30262 19.9693C4.05903 20.133 5.81359 19.6379 7.22537 18.5803C7.92903 18.7412 8.64827 18.824 9.37008 18.8274C11.8667 18.8273 14.2611 17.8354 16.0264 16.0699C17.7918 14.3044 18.7835 11.91 18.7834 9.41329C18.7833 6.91662 17.7914 4.52226 16.0259 2.75692C14.2604 0.991589 11.8659 -0.000105997 9.36928 8.49755e-09ZM14.2473 7.85433L8.73834 13.3632C8.57982 13.519 8.36645 13.6063 8.14419 13.6063C7.92193 13.6063 7.70856 13.519 7.55004 13.3632L4.78639 10.6012C4.66801 10.4821 4.58753 10.3306 4.55509 10.1658C4.52265 10.001 4.53969 9.83034 4.60408 9.67524C4.66846 9.52013 4.77731 9.38755 4.9169 9.29419C5.0565 9.20083 5.2206 9.15087 5.38854 9.1506C5.61347 9.15294 5.82895 9.24137 5.99069 9.39769L8.1354 11.5568L13.0422 6.65004L13.0885 6.60365C13.1698 6.52619 13.2658 6.46582 13.3709 6.42612C13.4759 6.38641 13.5879 6.36819 13.7001 6.37251C13.8123 6.37683 13.9225 6.40362 14.0242 6.45129C14.1259 6.49896 14.2169 6.56654 14.292 6.65004C14.442 6.81758 14.521 7.03686 14.5124 7.26156C14.5037 7.48627 14.4081 7.69882 14.2457 7.85433H14.2473Z" fill="#2B74E4"/>
</svg>
