<svg width="25" height="24" viewBox="0 0 25 24" fill="none" xmlns="http://www.w3.org/2000/svg">
<rect x="0.5" width="24" height="24" rx="12" fill="#080808"/>
<path d="M10.2155 12.2964C8.94156 12.2964 7.91234 13.3256 7.93116 14.5871C7.94371 15.3966 8.38929 16.0995 9.04511 16.4917C8.82232 16.1497 8.69053 15.7449 8.68425 15.3088C8.66542 14.0473 9.69465 13.0181 10.9686 13.0181C11.2197 13.0181 11.4613 13.0589 11.6872 13.1311V10.6051C11.4519 10.5706 11.2102 10.5518 10.9686 10.5518C10.9561 10.5518 10.9467 10.5518 10.9341 10.5518V12.4094C10.7082 12.3372 10.4666 12.2964 10.2155 12.2964Z" fill="#F00044"/>
<path d="M15.7225 4.72168H15.7037H15.051C15.2393 5.66618 15.7696 6.4883 16.5101 7.04684C16.0238 6.40358 15.7288 5.60028 15.7225 4.72168Z" fill="#F00044"/>
<path d="M19.5632 8.56562C19.3153 8.56562 19.0768 8.54051 18.8415 8.49658V10.3071C17.988 10.3071 17.1596 10.1408 16.3814 9.80821C15.8793 9.59484 15.4118 9.32184 14.9819 8.99237L14.9945 14.5746C14.9882 15.8298 14.4924 17.0065 13.595 17.8945C12.8638 18.6162 11.9382 19.0775 10.934 19.225C10.6987 19.2595 10.4571 19.2783 10.2155 19.2783C9.14232 19.2783 8.11938 18.93 7.28784 18.2867C7.38198 18.3997 7.48239 18.5095 7.59222 18.6162C8.49592 19.5074 9.69459 20 10.9717 20C11.2133 20 11.4549 19.9812 11.6903 19.9467C12.6944 19.7992 13.6201 19.3379 14.3512 18.6162C15.2486 17.7282 15.7444 16.5515 15.7507 15.2963L15.7036 9.71408C16.1304 10.0436 16.5979 10.3197 17.1031 10.5299C17.8844 10.8594 18.7128 11.0288 19.5632 11.0288" fill="#F00044"/>
<path d="M7.58309 11.9419C8.47738 11.0538 9.66663 10.5612 10.9343 10.5518V9.88342C10.699 9.84891 10.4574 9.83008 10.2158 9.83008C8.93551 9.83008 7.7337 10.3227 6.83 11.2202C5.94198 12.1019 5.43364 13.3068 5.43678 14.5588C5.43678 15.8203 5.9357 17.0032 6.83627 17.8975C6.98061 18.0387 7.12809 18.1705 7.28499 18.2898C6.57583 17.4457 6.18987 16.3914 6.18673 15.2806C6.18987 14.0285 6.69507 12.8236 7.58309 11.9419Z" fill="#08FFF9"/>
<path d="M18.8417 8.49657V7.82507H18.8355C17.9631 7.82507 17.1598 7.53638 16.5134 7.04688C17.0751 7.78741 17.8972 8.31457 18.8417 8.49657Z" fill="#08FFF9"/>
<path d="M10.8403 17.5305C11.1384 17.5462 11.4239 17.5054 11.6875 17.4207C12.5975 17.1226 13.2533 16.2753 13.2533 15.2775L13.2564 11.5434V4.72171H15.0513C15.0042 4.48637 14.9791 4.24789 14.976 4H12.5033V10.8186L12.5002 14.5527C12.5002 15.5505 11.8444 16.3977 10.9344 16.6958C10.6708 16.7837 10.3853 16.8245 10.0872 16.8056C9.7075 16.7837 9.35292 16.6707 9.04541 16.4887C9.43137 17.0849 10.0903 17.4897 10.8403 17.5305Z" fill="#08FFF9"/>
<path d="M10.9344 19.2249C11.9385 19.0774 12.8642 18.6162 13.5953 17.8945C14.4928 17.0064 14.9885 15.8297 14.9948 14.5746L14.9823 8.99232C15.409 9.3218 15.8766 9.59793 16.3818 9.80817C17.1631 10.1376 17.9915 10.3071 18.8419 10.3071V8.49654C17.8974 8.31454 17.0752 7.78738 16.5135 7.04684C15.773 6.4883 15.2396 5.66618 15.0544 4.72168H13.2564V11.5403L13.2533 15.2743C13.2533 16.2722 12.5975 17.1194 11.6875 17.4175C11.4239 17.5054 11.1384 17.5462 10.8403 17.5273C10.0872 17.4865 9.43138 17.0818 9.04542 16.4887C8.3896 16.0996 7.94403 15.3936 7.93147 14.584C7.91265 13.3226 8.94187 12.2934 10.2158 12.2934C10.4669 12.2934 10.7085 12.3342 10.9344 12.4063V10.5487C9.66672 10.5581 8.47746 11.0508 7.58317 11.9388C6.69515 12.8205 6.18682 14.0255 6.18996 15.2743C6.18996 16.3851 6.57591 17.4395 7.28821 18.2836C8.12288 18.9268 9.14269 19.2751 10.2158 19.2751C10.4575 19.2783 10.6991 19.2594 10.9344 19.2249Z" fill="white"/>
</svg>
