<svg width="216" height="70" viewBox="0 0 216 70" fill="none" xmlns="http://www.w3.org/2000/svg">
<path d="M82.01 1.2362L53.73 68.9374H35.2806L21.3638 14.9055C20.52 11.5855 19.7868 10.3637 17.2193 8.95988C13.0224 6.67207 6.09187 4.53244 0 3.20141L0.410906 1.2362H30.1143C33.8943 1.2362 37.298 3.76193 38.1637 8.13518L45.5169 47.315L63.6711 1.2362H82.01ZM106.951 1.2362L92.5206 68.9374H75.0651L89.4974 1.2362H106.951ZM154.299 46.8332C154.372 28.9685 129.684 27.977 129.845 19.995C129.904 17.5684 132.207 14.9851 137.249 14.3246C139.747 14.0003 146.647 13.7421 154.463 17.3558L157.521 2.99058C153.321 1.4665 147.917 0 141.195 0C123.94 0 111.803 9.19696 111.706 22.3768C111.593 32.1258 120.375 37.5592 126.98 40.8063C133.783 44.122 136.065 46.2532 136.034 49.2167C135.985 53.7593 130.6 55.7702 125.594 55.8447C116.816 55.9844 111.727 53.4638 107.668 51.5663L104.499 66.4074C108.583 68.2854 116.109 69.917 123.905 70C142.248 70 154.245 60.908 154.299 46.8332ZM199.862 68.9374H216L201.901 1.2362H187.011C183.653 1.2362 180.831 3.19209 179.579 6.19876L153.389 68.9374H171.717L175.353 58.8243H197.746L199.862 68.9374ZM180.379 44.951L189.57 19.5268L194.849 44.951H180.379H180.379Z" fill="#1A1F71"/>
</svg>
