<svg width="36" height="36" viewBox="0 0 36 36" fill="none" xmlns="http://www.w3.org/2000/svg">
<rect width="36" height="36" rx="18" fill="#0468FB"/>
<path fill-rule="evenodd" clip-rule="evenodd" d="M11.3068 25.4642C12.4429 25.667 13.5532 25.5103 14.6461 25.1758L14.6462 25.1758L14.6463 25.1757C15.0268 25.0611 15.4074 24.9465 15.7925 24.8502C16.0539 24.7814 16.329 24.7952 16.5812 24.8869C19.4885 25.8866 22.3591 25.7948 25.1838 24.5567C26.3348 24.0477 27.3849 23.3324 28.2745 22.4382C28.2855 22.4272 28.2957 22.4148 28.306 22.4024C28.3387 22.363 28.3723 22.3224 28.435 22.319C28.4653 22.3662 28.461 22.4159 28.4565 22.4663C28.4549 22.4844 28.4533 22.5025 28.4533 22.5207V25.2033C28.4625 26.7349 27.2336 27.9822 25.702 27.9959H25.679C24.5785 28.002 23.4779 28 22.3774 27.998C21.8271 27.9969 21.2769 27.9959 20.7266 27.9959H14.1004C14.0149 27.9874 13.9295 27.9828 13.844 27.9822C13.4654 27.9827 13.0864 27.9867 12.7072 27.9907L12.7067 27.9907C11.8557 27.9997 11.004 28.0087 10.1543 27.9776C8.67317 27.918 7.54053 26.6753 7.54053 25.1941C7.54053 23.6001 7.54155 22.006 7.54257 20.4117C7.5446 17.2227 7.54664 14.033 7.54053 10.8412C7.54053 9.20417 8.81991 8.06236 10.2919 8.02109C11.3636 7.99238 12.4375 7.99917 13.5121 8.00597C13.9824 8.00894 14.4529 8.01192 14.9233 8.01192C14.9284 8.01192 14.9338 8.01145 14.9392 8.01098C14.9636 8.00887 14.9901 8.00658 15.0013 8.04401C14.9945 8.10511 14.9475 8.12601 14.9031 8.14576C14.8875 8.15269 14.8722 8.15949 14.8591 8.16783C13.9512 8.69976 13.1212 9.33715 12.4242 10.1259C11.2732 11.4282 10.4753 12.9231 10.2048 14.661C9.72786 17.7288 10.6862 20.3334 12.8552 22.507C13.2404 22.8968 13.2909 23.1994 12.9836 23.7222C12.6122 24.3504 12.0482 24.7769 11.4475 25.1666C11.4047 25.1911 11.3619 25.2196 11.3191 25.2481C11.2977 25.2624 11.2763 25.2767 11.2549 25.2904C11.1586 25.373 11.2182 25.4143 11.3007 25.4509L11.3068 25.4642ZM15.3194 17.7186H15.3195H15.3196C15.7622 17.7175 16.1921 17.7166 16.62 17.7196C16.9823 17.7242 17.1795 17.8755 17.2161 18.1644C17.2574 18.5267 17.0465 18.7697 16.6521 18.7743C16.0951 18.7812 15.5407 18.7803 14.985 18.7794H14.9849C14.7995 18.7792 14.6139 18.7789 14.4281 18.7789C14.3664 18.7789 14.305 18.7796 14.2438 18.7804C14.0914 18.7822 13.9399 18.7841 13.7861 18.7743C13.5201 18.7605 13.2588 18.7055 13.1304 18.4304C13.002 18.1552 13.0937 17.9076 13.2679 17.6829C13.9741 16.7841 14.6849 15.8808 15.3957 14.982C15.4369 14.927 15.4782 14.8719 15.5195 14.8215C15.4857 14.7641 15.442 14.7689 15.3993 14.7735C15.384 14.7752 15.3689 14.7769 15.3544 14.7756C15.1068 14.7734 14.858 14.7734 14.6092 14.7734C14.3605 14.7734 14.1117 14.7734 13.8641 14.7711C13.7494 14.7711 13.6348 14.7573 13.5247 14.7344C13.2634 14.6748 13.1029 14.4134 13.1625 14.1566C13.2037 13.9823 13.3413 13.8402 13.5156 13.7989C13.6256 13.7714 13.7403 13.7576 13.8549 13.7576C14.6711 13.7531 15.492 13.7531 16.3082 13.7576C16.4549 13.7531 16.5971 13.7714 16.7392 13.8081C17.0511 13.9136 17.184 14.2024 17.0602 14.5051C16.9502 14.7665 16.7759 14.9912 16.6017 15.2159C16.001 15.9817 15.4002 16.7429 14.7995 17.4995C14.7491 17.5591 14.7032 17.6187 14.6299 17.7196C14.864 17.7196 15.0933 17.7191 15.3194 17.7186ZM20.3619 14.9958C20.1738 15.0324 20.0592 15.1654 19.9492 15.3076C19.376 14.8078 18.7431 14.7757 18.1195 15.1471C17.3675 15.5873 17.0877 16.3027 17.184 17.1418C17.2758 17.9168 17.6105 18.5542 18.4267 18.8202C18.9357 18.9852 19.4081 18.9256 19.8253 18.5863C19.9354 18.4992 19.9675 18.5175 20.0455 18.6138C20.1968 18.811 20.4582 18.8798 20.6874 18.7926C20.9121 18.7239 21.068 18.5129 21.068 18.2745C21.0772 17.3573 21.0818 16.4402 21.068 15.5231C21.0635 15.1563 20.7241 14.9224 20.3619 14.9958ZM18.5184 17.5362C18.3992 17.3757 18.335 17.1831 18.3259 16.9813C18.3213 16.3348 18.6744 15.945 19.1788 15.9771C19.3943 15.9817 19.5961 16.0871 19.7245 16.266C19.9813 16.6145 19.9813 17.1877 19.7245 17.5362C19.6786 17.5958 19.6282 17.6462 19.5731 17.6875C19.2384 17.9351 18.7661 17.8663 18.5184 17.5362ZM24.9658 14.9178C23.8653 14.9499 23.0903 15.8303 23.127 17.0088C23.1086 18.1552 24.0578 19.0219 25.2547 18.9027C26.3506 18.7926 27.0614 17.9718 27.0247 16.8117C26.988 15.6653 26.1351 14.8811 24.9658 14.9178ZM24.4751 17.5408C24.3376 17.3528 24.2688 17.1281 24.278 16.8988C24.278 16.3256 24.6265 15.9496 25.1217 15.9771C25.3372 15.9817 25.539 16.0917 25.6674 16.266C25.9288 16.6145 25.9288 17.2014 25.6628 17.5499C25.6215 17.5958 25.5803 17.6417 25.5298 17.6783C25.1997 17.9351 24.7273 17.8709 24.4751 17.5408ZM22.7245 16.8071C22.724 16.5702 22.7234 16.3332 22.7234 16.0963C22.7234 15.858 22.724 15.6192 22.7245 15.3803C22.7255 14.9018 22.7265 14.4227 22.7234 13.9457C22.7234 13.5788 22.4896 13.3495 22.1411 13.3541C21.8017 13.3541 21.577 13.5834 21.5725 13.9365C21.5694 14.08 21.5704 14.2215 21.5714 14.3636C21.5719 14.435 21.5725 14.5065 21.5725 14.5785V18.224C21.5725 18.5129 21.7467 18.756 21.976 18.8156C22.031 18.8293 22.0906 18.8339 22.1457 18.8339C22.4712 18.8247 22.728 18.5542 22.7234 18.2286C22.7265 17.7548 22.7255 17.2809 22.7245 16.8071Z" fill="white"/>
</svg>
