<svg width="25" height="24" viewBox="0 0 25 24" fill="none" xmlns="http://www.w3.org/2000/svg">
<rect x="0.5" width="24" height="24" rx="12" fill="#0468FB"/>
<path fill-rule="evenodd" clip-rule="evenodd" d="M8.02068 16.9953C8.78098 17.131 9.52402 17.0262 10.2554 16.8023C10.5102 16.7256 10.7649 16.6489 11.0227 16.5844C11.1976 16.5384 11.3817 16.5476 11.5505 16.609C13.4962 17.278 15.4173 17.2166 17.3077 16.388C18.078 16.0474 18.7807 15.5686 19.3761 14.9702C19.3835 14.9628 19.3903 14.9546 19.3972 14.9462C19.4191 14.9199 19.4415 14.8927 19.4835 14.8904C19.5038 14.922 19.5009 14.9553 19.4979 14.989L19.4979 14.989C19.4969 15.0011 19.4958 15.0133 19.4958 15.0254V16.8207C19.5019 17.8457 18.6795 18.6805 17.6545 18.6897H17.6391C16.9027 18.6938 16.1663 18.6924 15.4299 18.691H15.4295C15.0613 18.6903 14.693 18.6897 14.3248 18.6897H9.89025C9.82887 18.6835 9.76749 18.6805 9.70611 18.6805L9.70609 18.6803C9.45676 18.6807 9.20717 18.6833 8.95749 18.6859H8.95746H8.95744H8.95735H8.95733C8.38784 18.692 7.81784 18.698 7.24925 18.6772C6.25801 18.6373 5.5 17.8056 5.5 16.8144C5.5 15.7475 5.50068 14.6807 5.50136 13.6138C5.50273 11.4795 5.50409 9.34487 5.5 7.20882C5.5 6.11324 6.35621 5.34909 7.34132 5.32147C8.05855 5.30226 8.77726 5.3068 9.49642 5.31135C9.81118 5.31334 10.126 5.31533 10.4409 5.31533C10.4443 5.31533 10.4478 5.31502 10.4515 5.31471L10.4515 5.31471C10.4678 5.3133 10.4855 5.31176 10.493 5.33681C10.4885 5.3777 10.4571 5.39169 10.4273 5.40491C10.4169 5.40955 10.4067 5.41409 10.3979 5.41967C9.79027 5.77566 9.23481 6.20223 8.76834 6.73008C7.99806 7.60164 7.46407 8.60209 7.28301 9.76519C6.96385 11.8183 7.60524 13.5614 9.05681 15.016C9.3146 15.2769 9.34836 15.4794 9.14274 15.8293C8.89416 16.2497 8.51669 16.5351 8.11467 16.796C8.08603 16.8123 8.05739 16.8314 8.02874 16.8505C8.01442 16.8601 8.0001 16.8696 7.98578 16.8788C7.92133 16.9341 7.96123 16.9617 8.01647 16.9862L8.02068 16.9953ZM10.7061 11.8112H10.7063C11.0025 11.8105 11.2903 11.8099 11.5767 11.8119C11.8191 11.815 11.9511 11.9162 11.9756 12.1096C12.0032 12.352 11.8621 12.5147 11.5981 12.5177C11.2254 12.5223 10.8544 12.5218 10.4825 12.5212H10.4824C10.3583 12.521 10.2341 12.5208 10.1097 12.5208C10.0684 12.5208 10.0274 12.5213 9.9864 12.5218C9.88438 12.5231 9.78302 12.5243 9.6801 12.5177C9.50211 12.5085 9.32718 12.4717 9.24125 12.2876C9.15533 12.1034 9.2167 11.9377 9.33332 11.7873C9.80593 11.1858 10.2816 10.5813 10.7573 9.97978C10.7849 9.94295 10.8125 9.90613 10.8401 9.87237C10.8175 9.83394 10.7883 9.83714 10.7597 9.84026C10.7495 9.84138 10.7394 9.84249 10.7297 9.84168C10.564 9.84015 10.3976 9.84015 10.2311 9.84015H10.231C10.0645 9.84015 9.89799 9.84015 9.73227 9.83861C9.65555 9.83861 9.57883 9.82941 9.50518 9.81406C9.33025 9.77417 9.22284 9.59924 9.26274 9.42738C9.29036 9.31077 9.38242 9.21563 9.49904 9.18801C9.57269 9.1696 9.64941 9.16039 9.72613 9.16039C10.2724 9.15732 10.8217 9.15732 11.368 9.16039C11.4662 9.15732 11.5613 9.1696 11.6565 9.19415C11.8651 9.26473 11.9541 9.45807 11.8713 9.66062C11.7976 9.83554 11.681 9.98592 11.5644 10.1363L11.5644 10.1363C11.1624 10.6488 10.7603 11.1582 10.3583 11.6646C10.3246 11.7045 10.2939 11.7444 10.2448 11.8119C10.4014 11.8119 10.5548 11.8115 10.7061 11.8112ZM14.0805 9.98934C13.9547 10.0139 13.878 10.1029 13.8043 10.198C13.4207 9.86351 12.9972 9.84203 12.5798 10.0906C12.0765 10.3852 11.8893 10.864 11.9538 11.4256C12.0152 11.9442 12.2392 12.3708 12.7854 12.5488C13.1261 12.6592 13.4422 12.6194 13.7215 12.3923C13.7951 12.3339 13.8166 12.3462 13.8688 12.4107C13.97 12.5426 14.145 12.5887 14.2984 12.5304C14.4488 12.4843 14.5531 12.3432 14.5531 12.1836C14.5593 11.5698 14.5623 10.956 14.5531 10.3423C14.55 10.0967 14.323 9.94023 14.0805 9.98934ZM12.8468 11.6895C12.767 11.5821 12.7241 11.4532 12.7179 11.3182C12.7149 10.8854 12.9512 10.6246 13.2887 10.6461C13.433 10.6491 13.568 10.7197 13.6539 10.8394C13.8258 11.0726 13.8258 11.4563 13.6539 11.6895C13.6233 11.7294 13.5895 11.7631 13.5527 11.7908C13.3286 11.9565 13.0125 11.9104 12.8468 11.6895ZM17.1617 9.93717C16.4251 9.95865 15.9065 10.5479 15.931 11.3366C15.9188 12.1038 16.554 12.6838 17.355 12.604C18.0884 12.5304 18.5641 11.981 18.5396 11.2046C18.515 10.4374 17.9442 9.91261 17.1617 9.93717ZM16.8333 11.6926C16.7412 11.5667 16.6952 11.4164 16.7013 11.2629C16.7013 10.8793 16.9346 10.6277 17.266 10.6461C17.4102 10.6491 17.5453 10.7228 17.6312 10.8394C17.8061 11.0726 17.8061 11.4655 17.6281 11.6987C17.6005 11.7294 17.5729 11.7601 17.5391 11.7846C17.3182 11.9565 17.0021 11.9135 16.8333 11.6926ZM15.6617 11.2015C15.6613 11.043 15.661 10.8844 15.661 10.7259C15.661 10.5664 15.6613 10.4066 15.6617 10.2467C15.6623 9.92648 15.663 9.60584 15.661 9.28657C15.661 9.04106 15.5045 8.88761 15.2712 8.89068C15.0441 8.89068 14.8938 9.04413 14.8907 9.28043C14.8886 9.37647 14.8893 9.47115 14.89 9.56629C14.8903 9.61403 14.8907 9.66188 14.8907 9.71007V12.1498C14.8907 12.3432 15.0073 12.5058 15.1608 12.5457C15.1976 12.5549 15.2375 12.558 15.2743 12.558C15.4922 12.5518 15.664 12.3708 15.661 12.1529C15.663 11.8358 15.6623 11.5187 15.6617 11.2015Z" fill="white"/>
</svg>
